<?xml version="1.0" encoding="UTF-8" standalone="no"?>
<!-- Created with Inkscape (http://www.inkscape.org/) -->

<svg
   width="43.900169mm"
   height="50.799999mm"
   viewBox="0 0 43.900169 50.8"
   version="1.1"
   id="svg1"
   sodipodi:docname="servo.hex.svg"
   inkscape:version="1.3.2 (091e20ef0f, 2023-11-25)"
   xmlns:inkscape="http://www.inkscape.org/namespaces/inkscape"
   xmlns:sodipodi="http://sodipodi.sourceforge.net/DTD/sodipodi-0.dtd"
   xmlns:xlink="http://www.w3.org/1999/xlink"
   xmlns="http://www.w3.org/2000/svg"
   xmlns:svg="http://www.w3.org/2000/svg">
  <sodipodi:namedview
     id="namedview1"
     pagecolor="#ffffff"
     bordercolor="#666666"
     borderopacity="1.0"
     inkscape:showpageshadow="2"
     inkscape:pageopacity="0.0"
     inkscape:pagecheckerboard="0"
     inkscape:deskcolor="#d1d1d1"
     inkscape:document-units="mm"
     inkscape:zoom="1.1893044"
     inkscape:cx="157.65518"
     inkscape:cy="385.09905"
     inkscape:window-width="1143"
     inkscape:window-height="1390"
     inkscape:window-x="0"
     inkscape:window-y="0"
     inkscape:window-maximized="1"
     inkscape:current-layer="layer1" />
  <defs
     id="defs1">
    <linearGradient
       id="linearGradient170"
       inkscape:collect="always">
      <stop
         style="stop-color:#1192e8;stop-opacity:1;"
         offset="0"
         id="stop170" />
      <stop
         style="stop-color:#42be65;stop-opacity:0;"
         offset="1"
         id="stop171" />
    </linearGradient>
    <clipPath
       clipPathUnits="userSpaceOnUse"
       id="clipPath5">
      <path
         id="path5"
         style="stroke-width:0.1;stroke-linecap:square;paint-order:markers fill stroke;stop-color:#000000"
         d="M 438.25066,553.76374 H 1298.1212 V 755.15928 H 438.25066 Z"
         sodipodi:nodetypes="ccccc" />
    </clipPath>
    <filter
       style="color-interpolation-filters:sRGB"
       inkscape:label="Drop Shadow"
       id="filter168"
       x="-0.045907886"
       y="-0.045907886"
       width="1.1816621"
       height="1.1346403">
      <feFlood
         result="flood"
         in="SourceGraphic"
         flood-opacity="0.819608"
         flood-color="rgb(0,0,0)"
         id="feFlood167" />
      <feGaussianBlur
         result="blur"
         in="SourceGraphic"
         stdDeviation="1.500000"
         id="feGaussianBlur167" />
      <feOffset
         result="offset"
         in="blur"
         dx="7.045560"
         dy="3.358209"
         id="feOffset167" />
      <feComposite
         result="comp1"
         operator="in"
         in="flood"
         in2="offset"
         id="feComposite167" />
      <feComposite
         result="comp2"
         operator="over"
         in="SourceGraphic"
         in2="comp1"
         id="feComposite168" />
    </filter>
    <linearGradient
       inkscape:collect="always"
       xlink:href="#linearGradient170"
       id="linearGradient169"
       x1="202.62999"
       y1="-62.180244"
       x2="203.80823"
       y2="-17.595827"
       gradientUnits="userSpaceOnUse" />
  </defs>
  <g
     inkscape:label="Layer 1"
     inkscape:groupmode="layer"
     id="layer1"
     transform="translate(-181.91653,70.710416)">
    <path
       id="path24"
       style="fill:url(#linearGradient169);fill-opacity:1;stroke:none;stroke-width:0.264583px;stroke-linecap:butt;stroke-linejoin:miter;stroke-opacity:1"
       d="m 203.79996,-70.710416 -0.91468,0.5271 -20.1135,11.642183 -0.85524,0.52865 v 1.059884 23.284367 1.059883 l 0.85524,0.52865 20.14348,11.642184 0.89813,0.527099 0.90589,-0.527099 20.17758,-11.642184 0.91984,-0.52865 v -1.059883 -23.284367 -1.059884 l -0.92346,-0.52865 -20.17809,-11.642183 z" />
    <path
       id="path59"
       style="opacity:0.359847;fill:#f9f9f9;fill-rule:evenodd;stroke:none;stroke-width:0.467514"
       d="m 203.76688,-70.691295 -0.8816,0.507979 -6.2668,3.627169 0.0594,0.183451 6.61458,2.128036 c 0.37484,-1.462081 0.57413,-2.99478 0.57413,-4.573881 0,-0.632763 -0.0373,-1.256489 -0.0997,-1.872754 z m -7.70857,6.397025 -9.43922,6.863664 v 6.927226 c 7.31425,-0.426653 13.47719,-5.145442 16.01091,-11.676807 z m -13.20074,5.703528 -0.0858,0.04961 -0.85524,0.52865 v 1.059884 6.11849 c 0.82719,0.165882 1.67292,0.280372 2.53628,0.330729 v -6.927226 z" />
    <path
       id="path145"
       style="opacity:0.359847;fill:#f9f9f9;fill-rule:evenodd;stroke:none;stroke-width:1.90294"
       d="m 216.20592,-63.55323 c -4.35083,1.743437 -8.51398,3.857717 -12.41527,6.352584 l 16.55403,22.880257 h 5.47202 v -22.63221 -1.059884 l -0.92346,-0.52865 z m -19.55281,11.534697 c -5.67896,4.657191 -10.6368,10.152254 -14.73657,16.271875 v 2.078426 1.059883 l 0.85524,0.52865 20.14348,11.642184 0.89813,0.527099 0.90589,-0.527099 6.86521,-3.960999 1.56477,-4.820377 z" />
    <g
       id="g151"
       transform="matrix(0.3900845,0,0,0.3900845,188.70255,-65.428564)"
       style="fill:none;fill-rule:evenodd;stroke:none;stroke-width:1;filter:url(#filter168)">
      <path
         d="M 16.701765,48.918987 36.892057,63.60073 V 78.4179 C 21.246856,77.505368 8.0646958,67.411736 2.6451225,53.441268 Z"
         id="path147"
         fill="#1192e8" />
      <path
         d="m 61.715957,48.918987 14.056821,4.522281 C 70.353225,67.411683 57.171144,77.505292 41.526187,78.41789 l -3.44e-4,-14.81716 z"
         id="path148"
         fill="#1192e8" />
      <path
         d="M 14.375525,8.8729592 23.044169,20.854254 15.376146,44.473866 1.2281496,49.025638 C 0.47780661,46.098957 0.05626136,43.04035 0.00525288,39.891592 L 0,39.242643 C 0,27.001642 5.5998753,16.069686 14.375525,8.8729592 Z"
         id="path149"
         fill="#009d9a" />
      <path
         d="M 64.042375,8.8729592 C 72.818025,16.069686 78.4179,27.001642 78.4179,39.242643 c 0,3.377656 -0.426359,6.655645 -1.22815,9.782995 L 63.041576,44.473866 55.373553,20.854254 Z"
         id="path150"
         fill="#009d9a" />
      <path
         d="m 39.20895,0 c 7.760537,0 14.994478,2.2565615 21.082534,6.1498617 L 51.592206,18.173446 H 26.825516 L 18.126416,6.1498617 C 24.044594,2.3651976 31.045603,0.12720565 38.560558,0.00525739 Z"
         id="path151"
         fill="#42be65" />
    </g>
    <g
       id="g1776"
       transform="matrix(0.02118558,0,0,0.02118558,193.39084,-40.486435)">
      <path
         style="fill:#000000"
         d="M -1.0269193,606.7948 C -20.53553,603.76327 -41.948734,596.71211 -57.563559,588.17782 c -5.998291,-3.27837 -15.063145,-9.07794 -23.274345,-14.89059 -0.657255,-0.46527 21.136876,-35.63327 24.329352,-39.25895 0.413133,-0.46919 3.382265,0.92035 6.598072,3.08787 36.294513,24.46324 85.630651,31.40961 105.046661,14.79023 7.88428,-6.74865 9.91745,-17.38342 4.9454,-25.86758 -5.02,-8.56597 -14.55078,-13.05066 -47.83731,-22.50977 -39.320679,-11.17384 -55.00651,-18.30931 -67.321854,-30.62466 -10.618203,-10.6182 -15.502483,-23.35012 -15.468612,-40.32224 0.02397,-12.01409 2.157531,-21.13156 7.418217,-31.70077 10.471841,-21.03893 30.612813,-35.16321 58.7420367,-41.19411 11.675598,-2.50325 36.7216723,-2.47524 50.3223823,0.0563 15.08306,2.80742 34.91024,9.69999 49.2602,17.12445 7.006889,3.62527 13.572949,7.21933 14.591239,7.98681 1.74681,1.31656 1.19073,2.55422 -9.839629,21.89996 l -11.69107,20.50453 -9.16037,-4.87108 c -31.30482,-16.64653 -63.101439,-21.22819 -82.4508313,-11.88056 -8.5449427,4.12803 -11.7095387,8.82472 -11.7095387,17.37855 0,13.40601 7.6895677,17.93767 52.65868,31.03315 34.23501,9.96959 50.0595,17.54083 62.453379,29.88088 12.06832,12.01589 17.3452,25.34504 17.37316,43.88375 0.0594,39.38388 -26.444849,66.92437 -71.427639,74.22029 -11.25938,1.82619 -34.918993,1.77113 -47.0209403,-0.10944 z M 240.43644,606.7111 c -16.57816,-2.8944 -34.4615,-10.19296 -49.46733,-20.18865 -8.70278,-5.7971 -23.7189,-20.51202 -29.89042,-29.29088 -10.19118,-14.49673 -17.98778,-33.49807 -21.16888,-51.59137 -2.0088,-11.42551 -2.01659,-35.04802 -0.0153,-46.42977 8.89059,-50.56321 43.85721,-87.40922 94.04196,-99.09654 12.92473,-3.00999 40.04858,-3.01008 53.0594,-1.9e-4 11.94463,2.76324 23.11768,7.15111 32.9406,12.9364 10.8358,6.38183 28.17337,23.7995 34.80253,34.96331 13.24923,22.31231 20.87766,49.95774 22.36967,81.06773 l 0.63783,13.30023 h -90.67408 -90.67408 l 0.67496,2.75 c 5.87508,23.93681 22.21427,42.43198 44.08471,49.90174 10.84432,3.70383 26.03333,4.31106 39.29177,1.5708 15.75189,-3.25559 32.04515,-10.76339 41.08785,-18.93292 l 3.62952,-3.27905 17.7822,18.54487 17.7822,18.54487 -3.39756,3.53323 c -8.3102,8.64207 -27.54439,19.31102 -45.84559,25.42996 -22.51214,7.52684 -49.96446,9.94792 -71.05196,6.26623 z m 82.38091,-150.07973 c -3.77843,-15.81059 -12.99391,-30.11705 -24.69144,-38.3319 -10.39273,-7.29853 -20.08555,-10.18012 -34.68947,-10.31288 -13.48919,-0.12264 -19.44721,1.13487 -30.5,6.43737 -8.96409,4.30046 -15.25666,9.17947 -22.05107,17.09751 -4.7888,5.58076 -11.94478,19.08916 -13.05622,24.64633 l -0.64271,3.21357 h 63.14405 63.14405 z m 86.61909,26.75 v -120 h 28 28 l 0.0588,25.75 c 0.0386,16.90461 0.38969,25.23473 1.02206,24.25 0.52979,-0.825 2.64083,-4.30729 4.69119,-7.73843 14.2165,-23.79023 42.2322,-40.2574 71.47795,-42.01356 l 8.75,-0.52543 v 24.13871 24.13871 h -4.42764 c -13.36645,0 -32.51909,5.01902 -44.34337,11.62036 -17.14629,9.57254 -29.07954,24.8675 -34.50512,44.22553 -2.07344,7.39787 -2.15675,9.80504 -2.48845,71.90411 l -0.34319,64.25 h -27.94611 -27.94612 z m 207.17416,0.75 c -28.15737,-65.5875 -51.19048,-119.5942 -51.18469,-120.01488 0.006,-0.42069 13.36505,-0.64569 29.68725,-0.5 l 29.67672,0.26488 34.67071,86.94457 34.67071,86.94458 7.63832,-19.44457 c 4.20108,-10.69452 19.50819,-49.81958 34.01581,-86.94458 l 26.37748,-67.5 30.22503,-0.2648 c 18.45821,-0.16171 30.09334,0.0995 29.88676,0.67086 -0.18604,0.51462 -23.04582,54.52127 -50.7995,120.0148 l -50.46124,119.07914 h -26.60407 -26.60408 z"
         id="path1951" />
      <g
         id="o"
         transform="matrix(3.2161254,0,0,3.2161254,817.60463,357.26986)"
         style="fill:none;fill-rule:evenodd;stroke:none;stroke-width:1">
        <path
           d="M 16.701765,48.918987 36.892057,63.60073 V 78.4179 C 21.246856,77.505368 8.0646958,67.411736 2.6451225,53.441268 Z"
           id="Path"
           fill="#1192e8" />
        <path
           d="m 61.715957,48.918987 14.056821,4.522281 C 70.353225,67.411683 57.171144,77.505292 41.526187,78.41789 l -3.44e-4,-14.81716 z"
           id="Path2"
           fill="#1192e8" />
        <path
           d="M 14.375525,8.8729592 23.044169,20.854254 15.376146,44.473866 1.2281496,49.025638 C 0.47780661,46.098957 0.05626136,43.04035 0.00525288,39.891592 L 0,39.242643 C 0,27.001642 5.5998753,16.069686 14.375525,8.8729592 Z"
           id="Path3"
           fill="#009d9a" />
        <path
           d="M 64.042375,8.8729592 C 72.818025,16.069686 78.4179,27.001642 78.4179,39.242643 c 0,3.377656 -0.426359,6.655645 -1.22815,9.782995 L 63.041576,44.473866 55.373553,20.854254 Z"
           id="Path4"
           fill="#009d9a" />
        <path
           d="m 39.20895,0 c 7.760537,0 14.994478,2.2565615 21.082534,6.1498617 L 51.592206,18.173446 H 26.825516 L 18.126416,6.1498617 C 24.044594,2.3651976 31.045603,0.12720565 38.560558,0.00525739 Z"
           id="Path5"
           fill="#42be65" />
      </g>
    </g>
    <g
       id="g65"
       inkscape:label="NGI"
       style="fill:#1192e8;fill-opacity:1"
       transform="matrix(0.02799276,0,0,-0.02799276,199.55511,-23.305163)">
      <path
         id="path63"
         style="fill:#1192e8;fill-opacity:1;stroke:none;stroke-width:0.999996"
         d="m 25.228832,113.81197 c -6.078957,0 -11.057907,-4.97999 -11.057907,-11.058 V 25.237743 c 0,-6.078958 4.97895,-11.057908 11.057907,-11.057908 H 190.26701 c 6.07801,0 11.03948,4.979896 11.03948,11.057908 v 18.25757 c 0,2.022034 0.80246,3.959569 2.23375,5.390579 l 9.1011,9.101091 c 2.53999,2.538956 2.52751,6.643895 -0.0189,9.174911 l -9.06423,9.027272 c -1.43999,1.43101 -2.25218,3.378942 -2.25218,5.408916 v 21.155888 c 0,6.07801 -4.96147,11.058 -11.03948,11.058 z M 133.11291,96.957337 c 5.585,0 10.65856,-0.943294 15.21152,-2.824496 1.97402,-0.815694 3.80125,-1.799159 5.50126,-2.935177 3.60399,-2.407008 3.79388,-7.707794 0.3138,-10.448736 -2.233,-1.75899 -5.41251,-1.778177 -7.75354,-0.166353 -3.68499,2.538011 -7.87216,3.802857 -12.55319,3.802857 -4.06798,0 -7.68039,-0.849721 -10.83636,-2.547557 -3.15805,-1.701994 -5.60485,-4.102575 -7.36582,-7.199663 -1.76098,-3.095953 -2.65834,-6.645784 -2.65834,-10.651762 0,-3.946997 0.89698,-7.463464 2.65834,-10.559511 1.76097,-3.095954 4.20182,-5.506553 7.32887,-7.236525 3.12601,-1.729973 6.6817,-2.602945 10.68871,-2.602945 2.32894,0 4.53491,0.283555 6.60893,0.830817 2.20596,0.582234 3.88329,2.231771 4.54133,4.319779 0.23157,0.74008 -0.33176,1.495283 -1.10767,1.495283 -4.23698,0 -7.6438,3.586693 -7.36582,7.882748 0.25425,3.919965 3.69529,6.885767 7.62424,6.885767 h 7.27348 c 0.0662,0 0.13894,-0.0189 0.20321,-0.0189 0.0662,0.002 0.12099,0.0189 0.18432,0.0189 h 0.51701 c 3.58301,0 6.47962,-2.916085 6.47962,-6.498147 v -9.045704 c 0,-7.436998 -4.78462,-14.098756 -11.88863,-16.300754 -0.0473,-0.0095 -0.0851,-0.0189 -0.12949,-0.03781 -4.55399,-1.396038 -9.14022,-2.086118 -13.7532,-2.086118 -6.61799,0 -12.56944,1.403505 -17.85142,4.227529 -5.28198,2.822984 -9.41905,6.731985 -12.42398,11.740993 -3.005031,5.009007 -4.504473,10.668775 -4.504473,16.983745 0,6.312985 1.499442,11.975777 4.504473,16.983839 3.00493,5.009008 7.17225,8.937386 12.51623,11.759424 5.34001,2.822984 11.35706,4.227435 18.03611,4.227435 z M 39.406607,95.868201 h 1.45842 c 2.184039,0 4.247472,-0.986773 5.630467,-2.676764 L 70.64204,63.728226 c 1.801995,-2.201997 5.372053,-0.943295 5.372053,1.901429 v 22.946538 c 0,4.024031 3.249546,7.292008 7.273482,7.292008 4.02403,0 7.292007,-3.267977 7.292007,-7.292008 V 39.397086 c 0,-4.022991 -3.267977,-7.273482 -7.292007,-7.273482 h -1.366076 c -2.181014,0 -4.246432,0.973351 -5.630467,2.658333 L 52.052236,64.28201 c -1.804074,2.196988 -5.372053,0.923446 -5.372053,-1.91986 V 39.397086 c 0,-4.022991 -3.249546,-7.273482 -7.273576,-7.273482 -4.022991,0 -7.291913,3.250491 -7.291913,7.273482 v 49.179107 c 0,4.024031 3.268922,7.292008 7.291913,7.292008 z m 136.590383,0 c 4.07393,0 7.38425,-3.310321 7.38425,-7.384258 V 39.489336 c 0,-4.073937 -3.31032,-7.365732 -7.38425,-7.365732 -4.07403,0 -7.36583,3.291795 -7.36583,7.365732 v 48.994607 c 0,4.073937 3.2918,7.384258 7.36583,7.384258 z"
         inkscape:label="tag" />
    </g>
    <g
       aria-label="Z E R O"
       transform="matrix(0.02799276,0,0,0.02799276,199.55511,-23.305163)"
       style="font-variant:normal;font-weight:600;font-stretch:normal;font-size:31.76px;font-family:'Montserrat SemiBold';-inkscape-font-specification:Montserrat-SemiBold;font-variant-ligatures:normal;font-variant-caps:normal;font-variant-numeric:normal;font-feature-settings:normal;text-align:start;writing-mode:lr-tb;text-anchor:start;fill:#000000;fill-opacity:1;fill-rule:nonzero;stroke:none"
       id="g75"
       inkscape:label="letters">
      <path
         style="fill:#000000;fill-opacity:1"
         d="m 243.58117,-73.015206 h 19.46231 v 3.613321 l -12.42176,15.02707 h 12.77844 v 4.512774 h -20.17567 v -3.613321 l 12.42176,-15.02707 h -12.06508 z"
         id="path67"
         inkscape:connector-curvature="0"
         inkscape:label="z" />
      <path
         style="fill:#000000;fill-opacity:1"
         d="m 278.7684,-73.015206 h 16.11262 v 4.512774 h -10.14211 v 4.311172 h 9.5373 v 4.512773 h -9.5373 v 5.303672 h 10.48328 v 4.512774 H 278.7684 Z"
         id="path69"
         inkscape:connector-curvature="0"
         inkscape:label="e" />
      <path
         style="fill:#000000;fill-opacity:1"
         d="m 320.00367,-62.749034 q 1.87645,0 2.68285,-0.697851 0.82192,-0.697852 0.82192,-2.295157 0,-1.581796 -0.82192,-2.26414 -0.8064,-0.682344 -2.68285,-0.682344 h -2.51226 v 5.939492 z m -2.51226,4.125078 v 8.761915 h -5.97051 v -23.153165 h 9.11859 q 4.57481,0 6.69938,1.535274 2.14008,1.535273 2.14008,4.853945 0,2.295156 -1.11657,3.768399 -1.10105,1.473242 -3.33418,2.171093 1.22512,0.279141 2.18661,1.271641 0.97699,0.976992 1.96949,2.9775 l 3.24113,6.575313 h -6.3582 l -2.82242,-5.753399 q -0.85293,-1.736875 -1.73688,-2.372695 -0.86844,-0.635821 -2.32617,-0.635821 z"
         id="path71"
         inkscape:connector-curvature="0"
         inkscape:label="r" />
      <path
         style="fill:#000000;fill-opacity:1"
         d="m 357.57911,-69.107237 q -2.72938,0 -4.23364,2.016016 -1.50425,2.016015 -1.50425,5.675859 0,3.644336 1.50425,5.660352 1.50426,2.016015 4.23364,2.016015 2.74488,0 4.24914,-2.016015 1.50426,-2.016016 1.50426,-5.660352 0,-3.659844 -1.50426,-5.675859 -1.50426,-2.016016 -4.24914,-2.016016 z m 0,-4.32668 q 5.58281,0 8.7464,3.19461 3.1636,3.194609 3.1636,8.823945 0,5.613828 -3.1636,8.808438 -3.16359,3.194609 -8.7464,3.194609 -5.56731,0 -8.74641,-3.194609 -3.16359,-3.19461 -3.16359,-8.808438 0,-5.629336 3.16359,-8.823945 3.1791,-3.19461 8.74641,-3.19461 z"
         id="path73"
         inkscape:connector-curvature="0"
         inkscape:label="o" />
    </g>
  </g>
</svg>
