<?xml version="1.0" encoding="UTF-8" standalone="no"?>
<!-- Created with Inkscape (http://www.inkscape.org/) -->

<svg
   width="43.900002mm"
   height="50.799999mm"
   viewBox="0 0 43.900002 50.8"
   version="1.1"
   id="svg5"
   xml:space="preserve"
   sodipodi:docname="winden.hex.svg"
   inkscape:version="1.3.2 (091e20ef0f, 2023-11-25)"
   xmlns:inkscape="http://www.inkscape.org/namespaces/inkscape"
   xmlns:sodipodi="http://sodipodi.sourceforge.net/DTD/sodipodi-0.dtd"
   xmlns:xlink="http://www.w3.org/1999/xlink"
   xmlns="http://www.w3.org/2000/svg"
   xmlns:svg="http://www.w3.org/2000/svg"><sodipodi:namedview
     id="namedview77"
     pagecolor="#ffffff"
     bordercolor="#666666"
     borderopacity="1.0"
     inkscape:showpageshadow="2"
     inkscape:pageopacity="0.0"
     inkscape:pagecheckerboard="0"
     inkscape:deskcolor="#d1d1d1"
     inkscape:document-units="mm"
     showgrid="false"
     inkscape:zoom="3.6164108"
     inkscape:cx="69.682349"
     inkscape:cy="105.21482"
     inkscape:window-width="1920"
     inkscape:window-height="1007"
     inkscape:window-x="0"
     inkscape:window-y="0"
     inkscape:window-maximized="1"
     inkscape:current-layer="svg5" /><defs
     id="defs2"><linearGradient
       xlink:href="#linearGradient1220"
       id="linearGradient947"
       gradientUnits="userSpaceOnUse"
       x1="14.915152"
       y1="14.167241"
       x2="214.11908"
       y2="111.76186"
       gradientTransform="translate(4.9909524e-5,-1.8764301e-5)" /><linearGradient
       id="linearGradient1220"><stop
         id="stop1216"
         offset="0"
         style="stop-color:#98bf00;stop-opacity:1;" /><stop
         id="stop1218"
         offset="1"
         style="stop-color:#98bf00;stop-opacity:0.51" /></linearGradient><linearGradient
       gradientUnits="userSpaceOnUse"
       y2="161.62906"
       x2="79.058426"
       y1="157.91002"
       x1="100.54038"
       id="linearGradient884"
       xlink:href="#linearGradient880" /><linearGradient
       id="linearGradient880"><stop
         id="stop876"
         offset="0"
         style="stop-color:#784421;stop-opacity:1;" /><stop
         id="stop878"
         offset="1"
         style="stop-color:#784421;stop-opacity:0;" /></linearGradient><linearGradient
       gradientUnits="userSpaceOnUse"
       y2="187.636"
       x2="162.18832"
       y1="188.57594"
       x1="188.85896"
       id="linearGradient1106"
       xlink:href="#linearGradient880" /><linearGradient
       gradientUnits="userSpaceOnUse"
       y2="208.92482"
       x2="-1.8827039"
       y1="261.78836"
       x1="-1.8827039"
       id="linearGradient1408-6"
       xlink:href="#linearGradient1406" /><linearGradient
       id="linearGradient1406"><stop
         id="stop1402"
         offset="0"
         style="stop-color:#000000;stop-opacity:1;" /><stop
         id="stop1404"
         offset="1"
         style="stop-color:#000000;stop-opacity:0;" /></linearGradient><radialGradient
       gradientUnits="userSpaceOnUse"
       gradientTransform="matrix(1,0,0,1.4639338,0,-64.581152)"
       r="56.134296"
       fy="127.04554"
       fx="140.49042"
       cy="127.04554"
       cx="140.49042"
       id="radialGradient1608"
       xlink:href="#linearGradient1606" /><linearGradient
       id="linearGradient1606"><stop
         id="stop1602"
         offset="0"
         style="stop-color:#fdbc5c;stop-opacity:1" /><stop
         id="stop1604"
         offset="1"
         style="stop-color:#fdd08c;stop-opacity:0;" /></linearGradient><linearGradient
       gradientUnits="userSpaceOnUse"
       y2="276.31"
       y1="233.23"
       x2="529.53003"
       x1="479.79001"
       id="d"><stop
         id="stop16254"
         stop-color="#fff"
         offset="0" /><stop
         id="stop16256"
         stop-opacity="0"
         stop-color="#fff"
         offset="1" /></linearGradient><clipPath
       id="c"><path
         id="path16259"
         fill="#009688"
         fill-rule="evenodd"
         d="m 503.51,222.01 c -20.04,0 -36.286,16.246 -36.286,36.286 0,1.925 0.151,3.814 0.44,5.657 1.402,6.762 6.687,9.389 6.687,9.389 1.108,0.908 2.484,1.836 4.073,2.752 l -0.13,-0.004 c 0,0 3.331,18.563 9.444,18.41 4.622,-0.116 8.25,-9.453 14.128,-9.265 5.872,0.188 8.256,9.151 14.1,9.213 3.374,0.036 6.307,-5.744 8.16,-10.528 0.586,-0.12 1.17,-0.25 1.749,-0.392 5.556,5.254 18.398,10.599 23.87,12.412 a 0.533,0.533 0 0 0 0.177,-0.14 c 1.396,-1.82 -7.954,-16.01 -12.983,-23.372 a 36.17,36.17 0 0 0 2.856,-14.132 c 0,-20.04 -16.246,-36.286 -36.286,-36.286 z" /></clipPath><filter
       color-interpolation-filters="sRGB"
       height="1.1272249"
       width="1.1135408"
       y="-0.063612454"
       x="-0.056770418"
       id="b"><feGaussianBlur
         id="feGaussianBlur16262"
         stdDeviation="7.406" /></filter><filter
       color-interpolation-filters="sRGB"
       height="1.071391"
       width="1.072607"
       y="-0.035695516"
       x="-0.036303554"
       id="a"><feGaussianBlur
         id="feGaussianBlur16265"
         stdDeviation="1.279" /></filter><linearGradient
       id="SVGID_right_"
       y2="1.279e-13"
       gradientUnits="userSpaceOnUse"
       x2="-1073.2"
       gradientTransform="matrix(7.5430428,0,0,7.5430428,12291.1,192.47492)"
       y1="126.85"
       x1="-1073.2"><stop
         stop-color="#1b3967"
         offset=".011"
         id="stop112" /><stop
         stop-color="#13b5ea"
         offset=".467"
         id="stop114" /><stop
         stop-color="#002b5c"
         offset=".9945"
         id="stop116" /></linearGradient><linearGradient
       id="SVGID_left_"
       y2="1.279e-13"
       gradientUnits="userSpaceOnUse"
       x2="-1073.2"
       gradientTransform="matrix(-7.5430427,0,0,7.5430428,-4238.6638,192.46737)"
       y1="126.85"
       x1="-1073.2"><stop
         stop-color="#1b3967"
         offset=".011"
         id="stop119" /><stop
         stop-color="#13b5ea"
         offset=".467"
         id="stop121" /><stop
         stop-color="#002b5c"
         offset=".9945"
         id="stop123" /></linearGradient><filter
       inkscape:label="Lapping"
       inkscape:menu="Distort"
       inkscape:menu-tooltip="Something like a water noise"
       height="1.0000056"
       y="-2.7936187e-06"
       width="1.0000041"
       x="-2.031084e-06"
       style="color-interpolation-filters:sRGB"
       id="filter2256"><feTurbulence
         numOctaves="5"
         seed="0"
         type="fractalNoise"
         baseFrequency="0.1"
         result="result1"
         id="feTurbulence2250" /><feGaussianBlur
         stdDeviation="3.5809009e-05"
         result="result2"
         id="feGaussianBlur2252" /><feDisplacementMap
         scale="50"
         yChannelSelector="B"
         xChannelSelector="R"
         in="SourceGraphic"
         in2="result2"
         id="feDisplacementMap2254" /></filter><filter
       inkscape:label="Dots Transparency"
       inkscape:menu="Overlays"
       inkscape:menu-tooltip="Gives a pointillist HSL sensitive transparency"
       style="color-interpolation-filters:sRGB"
       id="filter10107"
       x="0"
       y="0"
       width="1"
       height="1"><feTurbulence
         result="result1"
         numOctaves="3"
         baseFrequency="1"
         type="fractalNoise"
         seed="50"
         id="feTurbulence10095" /><feColorMatrix
         result="result0"
         in="SourceGraphic"
         type="luminanceToAlpha"
         id="feColorMatrix10097" /><feColorMatrix
         values="1 0 0 0 0 0 1 0 0 0 0 0 1 0 0 0 0 0 0.7 0 "
         result="result2"
         id="feColorMatrix10099" /><feComposite
         in="result1"
         operator="over"
         in2="result2"
         result="result3"
         id="feComposite10101" /><feColorMatrix
         values="1 0 0 0 0 0 1 0 0 0 0 0 1 0 0 0 0 0 5 -3.2 "
         result="result91"
         id="feColorMatrix10103" /><feComposite
         operator="out"
         in="SourceGraphic"
         result="result4"
         in2="result91"
         id="feComposite10105" /></filter><style
       id="style10360">.b{fill:#282f39;stroke:#282f39;stroke-miterlimit:10;stroke-width:.4px;}.c{fill:#88b3ff;}</style><filter
       style="color-interpolation-filters:sRGB"
       inkscape:menu-tooltip="Adds a small scale crossy graininess"
       inkscape:menu="Overlays"
       inkscape:label="Cross Noise B"
       id="filter10563"
       x="0"
       y="0"
       width="1"
       height="1"><feColorMatrix
         result="result6"
         values="1 0 0 0 0 0 1 0 0 0 0 0 1 0 0 0 0 0 1 1 "
         id="feColorMatrix10549" /><feTurbulence
         result="result0"
         seed="0"
         baseFrequency="1"
         numOctaves="5"
         type="fractalNoise"
         id="feTurbulence10551" /><feConvolveMatrix
         result="result5"
         order="5 5"
         kernelMatrix="-2 0 0 0 -2 0 -2 0 -2 0 0 0 -10 0 0 0 -2 0 -2 0 -2 0 0 0 -2 "
         targetX="2"
         targetY="2"
         id="feConvolveMatrix10553" /><feColorMatrix
         in="result5"
         type="saturate"
         values="0"
         result="result4"
         id="feColorMatrix10555" /><feComposite
         in2="result6"
         result="result2"
         k3="0.5"
         k2="0.5"
         k1="1.5"
         operator="arithmetic"
         in="result4"
         id="feComposite10557"
         k4="0" /><feBlend
         result="result7"
         mode="normal"
         in2="result4"
         id="feBlend10559" /><feComposite
         in2="SourceGraphic"
         result="result3"
         operator="in"
         in="result7"
         id="feComposite10561" /></filter><filter
       style="color-interpolation-filters:sRGB"
       inkscape:label="Drop Shadow"
       id="filter17076"
       x="-0.096179535"
       y="-0.096"
       width="1.2725087"
       height="1.272"><feFlood
         flood-opacity="0.498039"
         flood-color="rgb(0,0,0)"
         result="flood"
         id="feFlood17066" /><feComposite
         in="flood"
         in2="SourceGraphic"
         operator="in"
         result="composite1"
         id="feComposite17068" /><feGaussianBlur
         in="composite1"
         stdDeviation="3"
         result="blur"
         id="feGaussianBlur17070" /><feOffset
         dx="6"
         dy="6"
         result="offset"
         id="feOffset17072" /><feComposite
         in="SourceGraphic"
         in2="offset"
         operator="over"
         result="composite2"
         id="feComposite17074" /></filter><filter
       style="color-interpolation-filters:sRGB"
       inkscape:label="Drop Shadow"
       id="filter18540"
       x="-0.028213166"
       y="-0.13090909"
       width="1.0799373"
       height="1.3709091"><feFlood
         flood-opacity="0.498039"
         flood-color="rgb(0,0,0)"
         result="flood"
         id="feFlood18530" /><feComposite
         in="flood"
         in2="SourceGraphic"
         operator="in"
         result="composite1"
         id="feComposite18532" /><feGaussianBlur
         in="composite1"
         stdDeviation="3"
         result="blur"
         id="feGaussianBlur18534" /><feOffset
         dx="6"
         dy="6"
         result="offset"
         id="feOffset18536" /><feComposite
         in="SourceGraphic"
         in2="offset"
         operator="over"
         result="composite2"
         id="feComposite18538" /></filter><filter
       style="color-interpolation-filters:sRGB"
       inkscape:label="Drop Shadow"
       id="filter18921"
       x="-0.035933813"
       y="-0.072265841"
       width="1.1018125"
       height="1.2047532"><feFlood
         flood-opacity="0.498039"
         flood-color="rgb(0,0,0)"
         result="flood"
         id="feFlood18911" /><feComposite
         in="flood"
         in2="SourceGraphic"
         operator="in"
         result="composite1"
         id="feComposite18913" /><feGaussianBlur
         in="composite1"
         stdDeviation="3"
         result="blur"
         id="feGaussianBlur18915" /><feOffset
         dx="6"
         dy="6"
         result="offset"
         id="feOffset18917" /><feComposite
         in="SourceGraphic"
         in2="offset"
         operator="over"
         result="composite2"
         id="feComposite18919" /></filter><style
       id="style19082">.b{fill:#282f39;stroke:#282f39;stroke-miterlimit:10;stroke-width:.4px;}.c{fill:#88b3ff;}</style><filter
       style="color-interpolation-filters:sRGB"
       inkscape:label="Drop Shadow"
       id="filter26894"
       x="-2.5622182"
       y="-2.5622182"
       width="8.2596188"
       height="8.2596188"><feFlood
         flood-opacity="0.498039"
         flood-color="rgb(0,0,0)"
         result="flood"
         id="feFlood26884" /><feComposite
         in="flood"
         in2="SourceGraphic"
         operator="in"
         result="composite1"
         id="feComposite26886" /><feGaussianBlur
         in="composite1"
         stdDeviation="3"
         result="blur"
         id="feGaussianBlur26888" /><feOffset
         dx="6"
         dy="6"
         result="offset"
         id="feOffset26890" /><feComposite
         in="SourceGraphic"
         in2="offset"
         operator="over"
         result="composite2"
         id="feComposite26892" /></filter><filter
       style="color-interpolation-filters:sRGB"
       inkscape:label="Drop Shadow"
       id="filter28164"
       x="-0.020326743"
       y="-0.096"
       width="1.0575924"
       height="1.272"><feFlood
         flood-opacity="0.498039"
         flood-color="rgb(0,0,0)"
         result="flood"
         id="feFlood28154" /><feComposite
         in="flood"
         in2="SourceGraphic"
         operator="in"
         result="composite1"
         id="feComposite28156" /><feGaussianBlur
         in="composite1"
         stdDeviation="3"
         result="blur"
         id="feGaussianBlur28158" /><feOffset
         dx="6"
         dy="6"
         result="offset"
         id="feOffset28160" /><feComposite
         in="SourceGraphic"
         in2="offset"
         operator="over"
         result="composite2"
         id="feComposite28162" /></filter></defs><g
     id="g44"
     transform="matrix(0.02803721,0,0,-0.02808877,190.89119,51.507308)" /><style
     type="text/css"
     id="style7711">
	.st0{fill:none;stroke:#CB4F24;stroke-width:1.23;stroke-linecap:round;stroke-linejoin:round;stroke-dasharray:2.43,3.65;}
	.st1{fill:none;stroke:#68A8DE;stroke-width:1.23;stroke-miterlimit:10;}
	.st2{fill:#4B7DBF;}
	.st3{fill:#CB4F24;}
</style><style
     id="style2"
     type="text/css">
	.st0{fill-rule:evenodd;clip-rule:evenodd;}
	.st1{fill-rule:evenodd;clip-rule:evenodd;fill:#A6A6A6;}
	.st2{fill:#FFFFFF;}
	.st3{fill-rule:evenodd;clip-rule:evenodd;fill:#FFFFFF;}
	.st4{fill-rule:evenodd;clip-rule:evenodd;fill:url(#SVGID_1_);}
	.st5{fill-rule:evenodd;clip-rule:evenodd;fill:url(#SVGID_2_);}
	.st6{fill-rule:evenodd;clip-rule:evenodd;fill:url(#SVGID_3_);}
	.st7{fill-rule:evenodd;clip-rule:evenodd;fill:url(#SVGID_4_);}
	.st8{opacity:0.2;fill-rule:evenodd;clip-rule:evenodd;enable-background:new    ;}
	.st9{opacity:0.12;fill-rule:evenodd;clip-rule:evenodd;enable-background:new    ;}
	.st10{opacity:0.25;fill-rule:evenodd;clip-rule:evenodd;fill:#FFFFFF;enable-background:new    ;}
</style><g
     id="g27987"
     transform="matrix(0.26500347,0,0,0.26549077,3.3461214,-1.7209328)"
     style="fill:#666666;fill-opacity:1;filter:url(#filter10563)"><path
       id="path27985"
       style="fill:#666666;fill-opacity:1;stroke-width:1.32497"
       d="m 69.949472,6.4820816 -3.45118,1.98438 -75.8964796,43.8515594 -3.2285204,1.99219 v 3.99023 87.705079 3.99024 l 3.2265704,1.99218 76.0136696,43.85157 3.38867,1.98632 3.41797,-1.98632 76.140618,-43.85157 3.47071,-1.99218 v -3.99024 -87.705079 -3.99023 L 149.54712,52.318021 73.404542,8.4664616 Z m -0.02735,4.4843794 78.835938,45.5957 v 91.183599 l -78.835938,45.5957 -78.1757796,-45.21289 -0.66016,-0.38281 V 56.562161 Z m 0,3.06055 -76.1855396,44.06054 V 146.21646 L 69.922122,190.28091 146.10767,146.21646 V 58.087551 Z" /></g><g
     id="g28001"
     transform="matrix(0.01940312,-0.01122299,-0.01120239,-0.0194388,27.91772,44.634344)"
     style="filter:url(#filter18921)"><path
       id="path27989"
       style="fill:#ffffff;fill-opacity:1;stroke:none;stroke-width:0.999996"
       d="m 25.228832,113.81197 c -6.078957,0 -11.057907,-4.97999 -11.057907,-11.058 V 25.237742 c 0,-6.078957 4.97895,-11.057907 11.057907,-11.057907 H 190.26701 c 6.07801,0 11.03948,4.979896 11.03948,11.057907 v 18.257571 c 0,2.022034 0.80246,3.959569 2.23375,5.390579 l 9.1011,9.101092 c 2.53999,2.538955 2.52751,6.643894 -0.0189,9.17491 l -9.06423,9.027272 c -1.43999,1.431011 -2.25218,3.378942 -2.25218,5.408916 v 21.155888 c 0,6.07801 -4.96147,11.058 -11.03948,11.058 z M 133.11291,96.957338 c 5.585,0 10.65856,-0.943295 15.21152,-2.824497 1.97402,-0.815694 3.80125,-1.799159 5.50126,-2.935177 3.60399,-2.407008 3.79388,-7.707794 0.3138,-10.448736 -2.233,-1.758989 -5.41251,-1.778177 -7.75354,-0.166353 -3.68499,2.538011 -7.87216,3.802857 -12.55319,3.802857 -4.06798,0 -7.68039,-0.849721 -10.83636,-2.547557 -3.15805,-1.701994 -5.60485,-4.102575 -7.36582,-7.199663 -1.76098,-3.095953 -2.65834,-6.645784 -2.65834,-10.651761 0,-3.946998 0.89698,-7.463464 2.65834,-10.559512 1.76097,-3.095954 4.20182,-5.506553 7.32887,-7.236525 3.12601,-1.729972 6.6817,-2.602945 10.68871,-2.602945 2.32894,0 4.53491,0.283555 6.60893,0.830817 2.20596,0.582234 3.88329,2.231771 4.54133,4.319779 0.23157,0.74008 -0.33176,1.495283 -1.10767,1.495283 -4.23698,0 -7.6438,3.586693 -7.36582,7.882748 0.25425,3.919965 3.69529,6.885767 7.62424,6.885767 h 7.27348 c 0.0662,0 0.13894,-0.0189 0.20321,-0.0189 0.0662,0.002 0.12099,0.0189 0.18432,0.0189 h 0.51701 c 3.58301,0 6.47962,-2.916085 6.47962,-6.498147 v -9.045703 c 0,-7.436999 -4.78462,-14.098757 -11.88863,-16.300755 -0.0473,-0.0095 -0.0851,-0.0189 -0.12949,-0.03781 -4.55399,-1.396038 -9.14022,-2.086118 -13.7532,-2.086118 -6.61799,0 -12.56944,1.403505 -17.85142,4.227529 -5.28198,2.822984 -9.41905,6.731985 -12.42398,11.740993 -3.005029,5.009008 -4.504469,10.668775 -4.504469,16.983745 0,6.312985 1.49944,11.975777 4.504469,16.983839 3.00493,5.009008 7.17225,8.937386 12.51623,11.759425 5.34001,2.822984 11.35706,4.227434 18.03611,4.227434 z M 39.406607,95.868201 h 1.45842 c 2.184039,0 4.247472,-0.986773 5.630467,-2.676764 L 70.642042,63.728226 c 1.80199,-2.201997 5.37205,-0.943295 5.37205,1.901429 v 22.946538 c 0,4.024031 3.24955,7.292008 7.273479,7.292008 4.02403,0 7.29201,-3.267977 7.29201,-7.292008 V 39.397086 c 0,-4.022991 -3.26798,-7.273482 -7.29201,-7.273482 h -1.36607 c -2.18102,0 -4.246429,0.973351 -5.630469,2.658333 L 52.052236,64.28201 c -1.804074,2.196988 -5.372053,0.923446 -5.372053,-1.91986 V 39.397086 c 0,-4.022991 -3.249546,-7.273482 -7.273576,-7.273482 -4.022991,0 -7.291913,3.250491 -7.291913,7.273482 v 49.179107 c 0,4.024031 3.268922,7.292008 7.291913,7.292008 z m 136.590383,0 c 4.07393,0 7.38425,-3.310321 7.38425,-7.384258 V 39.489336 c 0,-4.073936 -3.31032,-7.365732 -7.38425,-7.365732 -4.07403,0 -7.36583,3.291796 -7.36583,7.365732 v 48.994607 c 0,4.073937 3.2918,7.384258 7.36583,7.384258 z" /></g><g
     id="g19106"
     transform="matrix(0.0471175,0.02725332,-0.0272033,0.04720414,4.9702663,33.572868)"
     style="fill:#ffffff;filter:url(#filter28164)"><path
       id="path19104"
       style="fill:#ffffff"
       class="c"
       d="M 74.86,37.5 C 74.86,58.21 58.08,75 37.36,75 16.64,75 1.56,59.85 0,40.58 h 8.82 c 1.01,0 1.99,-0.49 2.57,-1.41 h 0.01 l 0.15,-0.28 0.04,-0.06 2.54,-4.4 1.26,-2.2 4.36,-7.53 c 0.83,-1.46 2.72,-1.96 4.2,-1.12 1.46,0.83 1.96,2.71 1.13,4.17 0,0 0,0.01 -0.01,0.03 l -0.03,0.03 -3.81,6.62 h 0.01 l -0.52,0.88 -3.04,5.28 h -0.01 l -2.02,3.53 c 0,0 -0.01,0.03 -0.03,0.06 -0.03,0.03 -0.03,0.06 -0.06,0.09 -1.28,2.28 -1.49,4.85 -0.79,7.17 0.09,0.28 0.19,0.58 0.3,0.85 0.01,0.03 0.03,0.06 0.03,0.09 0.07,0.18 0.15,0.34 0.25,0.52 0.09,0.18 0.18,0.34 0.28,0.52 0.28,0.49 0.6,0.92 0.95,1.35 h 0.01 c 0.65,0.79 1.46,1.46 2.38,1.99 0.94,0.54 1.93,0.89 2.95,1.07 0.55,0.12 1.12,0.16 1.67,0.16 3.18,0 6.29,-1.65 7.99,-4.61 l 7.4,-12.8 h 0.01 l 3.54,-6.16 h 0.01 l 5.61,-9.73 c 0.85,-1.46 2.74,-1.96 4.21,-1.12 1.46,0.83 1.95,2.71 1.13,4.17 -0.01,0 -0.01,0.01 -0.01,0.03 l -0.03,0.03 -3.81,6.62 -0.52,0.88 -3.04,5.28 h -0.01 l -2.02,3.53 c 0,0 -0.01,0.03 -0.03,0.06 -0.03,0.03 -0.03,0.06 -0.06,0.09 -0.1,0.19 -0.19,0.36 -0.28,0.54 -0.18,0.37 -0.31,0.74 -0.45,1.12 -0.12,0.37 -0.21,0.73 -0.3,1.12 l -0.04,0.31 c -0.01,0.12 -0.04,0.27 -0.06,0.39 v 0.21 c -0.06,0.45 -0.06,0.91 -0.03,1.37 0.01,0.13 0.01,0.28 0.03,0.43 v 0.04 c 0.03,0.21 0.06,0.4 0.09,0.61 0.03,0.15 0.06,0.28 0.1,0.43 0,0.06 0.01,0.12 0.04,0.18 0.03,0.13 0.07,0.3 0.12,0.45 0.36,1.21 0.97,2.34 1.82,3.32 v 0 c 0.65,0.79 1.46,1.46 2.38,1.99 0.94,0.54 1.93,0.89 2.95,1.07 0.55,0.12 1.12,0.16 1.67,0.16 3.18,0 6.29,-1.65 7.99,-4.61 l 7.4,-12.8 h 0.01 l 3.54,-6.16 h 0.01 l 2.98,-5.15 c 0.6,2.65 0.91,5.4 0.91,8.23 z M 71.3,21.55 63.87,34.42 h -0.01 l -3.56,6.16 h -0.01 l -1.25,2.2 -4.36,7.53 c -0.83,1.46 -2.72,1.96 -4.2,1.12 -1.46,-0.83 -1.96,-2.71 -1.15,-4.17 0.01,0 0.01,-0.01 0.03,-0.03 0.02,-0.02 0.01,-0.01 0.01,-0.03 l 3.82,-6.62 0.51,-0.88 3.05,-5.28 2.02,-3.53 c 0,0 0.03,-0.03 0.04,-0.06 0.01,-0.03 0.03,-0.06 0.06,-0.09 0.19,-0.36 0.37,-0.71 0.54,-1.09 0.15,-0.37 0.27,-0.74 0.36,-1.13 0.09,-0.37 0.18,-0.76 0.22,-1.13 0.09,-0.77 0.09,-1.53 0,-2.28 -0.04,-0.19 -0.06,-0.37 -0.1,-0.57 -0.01,-0.18 -0.06,-0.36 -0.12,-0.55 -0.01,-0.1 -0.06,-0.24 -0.09,-0.34 -0.01,-0.09 -0.03,-0.15 -0.07,-0.24 v 0 c -0.04,-0.15 -0.1,-0.28 -0.15,-0.43 -0.18,-0.49 -0.4,-0.97 -0.67,-1.41 -0.13,-0.22 -0.27,-0.43 -0.4,-0.64 -0.03,-0.03 -0.04,-0.06 -0.07,-0.07 -0.15,-0.21 -0.31,-0.42 -0.48,-0.62 v 0 c -0.65,-0.79 -1.46,-1.46 -2.4,-1.99 -0.92,-0.54 -1.92,-0.89 -2.93,-1.07 -0.57,-0.12 -1.12,-0.16 -1.68,-0.16 -3.18,0 -6.28,1.65 -7.99,4.61 l -7.38,12.8 h -0.01 l -3.56,6.16 -1.26,2.2 -4.36,7.53 c -0.83,1.46 -2.72,1.96 -4.2,1.12 -1.46,-0.83 -1.96,-2.71 -1.15,-4.17 0.01,0 0.01,-0.01 0.03,-0.03 l 0.03,-0.03 3.81,-6.62 h -0.01 l 0.52,-0.88 3.04,-5.28 h 0.01 l 2.02,-3.53 c 0,0 0.01,-0.03 0.03,-0.06 0.03,-0.03 0.03,-0.06 0.06,-0.09 1.28,-2.29 1.49,-4.9 0.79,-7.22 -0.09,-0.28 -0.19,-0.57 -0.31,-0.85 -0.16,-0.37 -0.34,-0.74 -0.55,-1.09 -0.27,-0.49 -0.6,-0.92 -0.95,-1.35 h -0.01 c -0.65,-0.79 -1.46,-1.46 -2.38,-1.99 -0.94,-0.54 -1.93,-0.89 -2.95,-1.07 -0.55,-0.12 -1.12,-0.16 -1.67,-0.16 -3.2,0 -6.29,1.65 -7.99,4.61 L 8,32.76 c -0.06,0.1 -0.1,0.21 -0.18,0.31 -0.55,0.82 -1.49,1.35 -2.54,1.35 H 0 C 1.56,15.15 17.69,0 37.36,0 52.37,0 65.32,8.81 71.3,21.55 Z M 172.10317,9.1614332 a 3.28,3.2899999 90 0 1 -3.29,3.2799868 3.28,3.2899999 90 0 1 -3.29,-3.2799868 3.28,3.2899999 90 0 1 3.29,-3.280005 3.28,3.2899999 90 0 1 3.29,3.280005 z M 310.17316,38.681378 c -6e-5,-3.269966 -0.76001,-6.260004 -2.27,-8.959999 -1.52044,-2.699748 -3.70999,-4.86 -6.57999,-6.480003 -2.85993,-1.610042 -6.22,-2.449996 -10.07001,-2.45 -3.85,-3e-6 -7.16999,0.839988 -10.11,2.449991 -2.93961,1.62066 -5.24,3.940016 -6.9,6.970016 -1.66003,3.029936 -2.49,6.589996 -2.48999,10.669981 -1e-5,4.080011 0.83,7.620015 2.49,10.640016 1.65937,3.010347 3.96006,5.329955 6.9,6.939994 2.94005,1.619963 6.30999,2.420001 10.11,2.420003 3.32996,-4.9e-5 6.30999,-0.590002 8.95999,-1.779994 2.64997,-1.190056 4.80003,-2.84995 6.46998,-4.980054 1.65995,-2.130073 2.73,-4.550012 3.21999,-7.250007 l -7.00999,1.3e-5 c -0.47993,2.649945 -1.80001,4.779998 -3.94001,6.369991 -2.15004,1.589944 -4.80003,2.379955 -7.98,2.380007 -3.50997,3.3e-5 -6.49,-1.109999 -8.92,-3.340003 -2.43006,-2.229976 -3.72005,-5.56997 -3.87002,-10.02999 l 31.71,2e-6 c 0.19005,-0.999978 0.28995,-2.180036 0.29001,-3.560005 z m -28.03,-9.280007 c 2.46,-2.209988 5.49002,-3.309962 9.10004,-3.309938 2.25997,-2.4e-5 4.36,0.470012 6.28,1.420009 1.93,0.950008 3.43993,2.390037 4.55,4.339988 0.76999,1.339992 1.12002,2.990001 1.29004,4.789988 l -24.9,6e-6 c 0.51999,-3.060002 1.72999,-5.489998 3.67999,-7.240008 z m 67.81,-4.339986 c 2.83994,2.920037 4.26079,7.129535 4.26001,12.629996 l -2e-5,23.189997 -6.56999,4e-6 V 38.261384 c 0,-3.890007 -1.01,-6.880014 -3.03001,-8.970012 -2.01994,-2.080021 -4.77,-3.129998 -8.23998,-3.129991 -3.47005,-6.2e-5 -6.5,1.149995 -8.67,3.45002 -2.16003,2.299962 -3.25,5.659982 -3.25,10.069992 v 21.199989 l -6.57001,1.3e-5 1e-5,-40.09001 6.57001,1.3e-5 -2e-5,9.779995 c 1.02,-3.180004 2.81002,-5.619998 5.38001,-7.330006 2.57002,-1.709976 5.54997,-2.450065 8.93,-2.449985 4.62,-3e-6 8.35001,1.349989 11.19,4.269999 z m -98.10001,-1.390014 c 2.67,1.9 4.53993,4.430047 5.59999,7.610013 V 5.8813886 l 6.58001,-2.2e-6 V 60.871396 l -6.58,-8e-6 V 50.411387 c -1.06001,3.179998 -2.92,5.719997 -5.60001,7.610008 -2.67002,1.899936 -5.93999,2.849984 -9.78999,2.849997 -3.51997,6.3e-5 -6.64,-0.800005 -9.39,-2.42001 -2.75,-1.609992 -4.90001,-3.920005 -6.47001,-6.939988 -1.55945,-3.010324 -2.35,-6.559996 -2.34999,-10.640007 0,-4.080011 0.78,-7.639998 2.35001,-10.669999 1.55998,-3.040006 3.71998,-5.360001 6.46999,-6.969997 2.75044,-1.609223 5.88003,-2.449951 9.39,-2.45 3.84999,-1.2e-5 7.11,0.989995 9.79,2.879992 z m -17.63,6.720004 c -2.42998,2.54 -3.64999,6.039996 -3.64999,10.490006 0,4.449995 1.22,7.960001 3.65,10.489991 2.43004,2.539975 5.66999,3.810001 9.72,3.809999 2.60003,6e-5 4.92,-0.589995 6.96999,-1.779999 2.05002,-1.189997 3.65,-2.860042 4.81001,-5.019994 1.14998,-2.160026 1.73001,-4.659999 1.73,-7.509995 6e-5,-2.850033 -0.58,-5.360014 -1.72999,-7.540006 -1.16063,-2.179635 -2.75998,-3.850016 -4.80995,-5.010034 -2.04997,-1.160018 -4.36999,-1.75001 -6.97,-1.749996 -4.04999,-8e-6 -7.29,1.269985 -9.71996,3.810058 z m -22.33998,-5.339996 c 2.83993,2.920022 4.2592,7.130455 4.25999,12.629989 l 1e-5,23.190005 -6.57001,1.2e-5 V 38.251388 c 1e-5,-3.890017 -1.01,-6.880015 -3.02999,-8.970021 -2.01995,-2.080022 -4.77001,-3.129999 -8.23,-3.129997 -3.45996,6.6e-5 -6.50001,1.150004 -8.67,3.450019 -2.17,2.299984 -3.25,5.660008 -3.24999,10.070009 l -1e-5,21.199998 -6.57,3e-6 v -40.09 l 6.57001,-1.3e-5 -1e-5,9.780012 c 1.01,-3.180015 2.81001,-5.620014 5.38,-7.329997 2.58001,-1.710007 5.54996,-2.450066 8.92,-2.450021 4.61999,7e-6 8.35001,1.350014 11.2,4.270009 z m -46.35995,-4.269953 h 6.57001 v 40.090007 h -6.57001 z m -7.71005,0.0099 -11.41001,40.089999 h -7.08 l -10.91,-32.300006 -10.98,32.300009 -7.15,3e-6 -11.269998,-40.090002 6.650008,-6e-6 8.45,33.400001 10.97999,-33.399997 h 6.86 l 11.04999,33.329998 8.52002,-33.33001 6.27999,10e-6 z" /></g><g
     id="g28119"
     transform="matrix(1.0015879,0,0,1.0034297,107.7191,1.6825973)"><g
       id="g28007"
       transform="matrix(0.39899566,0,0,0.39899566,-100.66432,7.6758816)"
       style="filter:url(#filter17076)"><path
         class="c"
         d="m 71.3,21.55 -7.43,12.87 h -0.01 l -3.56,6.16 h -0.01 l -1.25,2.2 -4.36,7.53 c -0.83,1.46 -2.72,1.96 -4.2,1.12 -1.46,-0.83 -1.96,-2.71 -1.15,-4.17 0.01,0 0.01,-0.01 0.03,-0.03 0.02,-0.02 0.01,-0.01 0.01,-0.03 l 3.82,-6.62 0.51,-0.88 3.05,-5.28 2.02,-3.53 c 0,0 0.03,-0.03 0.04,-0.06 0.01,-0.03 0.03,-0.06 0.06,-0.09 0.19,-0.36 0.37,-0.71 0.54,-1.09 0.15,-0.37 0.27,-0.74 0.36,-1.13 0.09,-0.37 0.18,-0.76 0.22,-1.13 0.09,-0.77 0.09,-1.53 0,-2.28 -0.04,-0.19 -0.06,-0.37 -0.1,-0.57 -0.01,-0.18 -0.06,-0.36 -0.12,-0.55 -0.01,-0.1 -0.06,-0.24 -0.09,-0.34 -0.01,-0.09 -0.03,-0.15 -0.07,-0.24 v 0 c -0.04,-0.15 -0.1,-0.28 -0.15,-0.43 -0.18,-0.49 -0.4,-0.97 -0.67,-1.41 -0.13,-0.22 -0.27,-0.43 -0.4,-0.64 -0.03,-0.03 -0.04,-0.06 -0.07,-0.07 -0.15,-0.21 -0.31,-0.42 -0.48,-0.62 v 0 c -0.65,-0.79 -1.46,-1.46 -2.4,-1.99 -0.92,-0.54 -1.92,-0.89 -2.93,-1.07 -0.57,-0.12 -1.12,-0.16 -1.68,-0.16 -3.18,0 -6.28,1.65 -7.99,4.61 l -7.38,12.8 h -0.01 l -3.56,6.16 -1.26,2.2 -4.36,7.53 c -0.83,1.46 -2.72,1.96 -4.2,1.12 -1.46,-0.83 -1.96,-2.71 -1.15,-4.17 0.01,0 0.01,-0.01 0.03,-0.03 l 0.03,-0.03 3.81,-6.62 h -0.01 l 0.52,-0.88 3.04,-5.28 h 0.01 l 2.02,-3.53 c 0,0 0.01,-0.03 0.03,-0.06 0.03,-0.03 0.03,-0.06 0.06,-0.09 1.28,-2.29 1.49,-4.9 0.79,-7.22 -0.09,-0.28 -0.19,-0.57 -0.31,-0.85 -0.16,-0.37 -0.34,-0.74 -0.55,-1.09 -0.27,-0.49 -0.6,-0.92 -0.95,-1.35 h -0.01 c -0.65,-0.79 -1.46,-1.46 -2.38,-1.99 -0.94,-0.54 -1.93,-0.89 -2.95,-1.07 -0.55,-0.12 -1.12,-0.16 -1.67,-0.16 -3.2,0 -6.29,1.65 -7.99,4.61 L 8,32.76 c -0.06,0.1 -0.1,0.21 -0.18,0.31 -0.55,0.82 -1.49,1.35 -2.54,1.35 H 0 C 1.56,15.15 17.69,0 37.36,0 52.37,0 65.32,8.81 71.3,21.55 Z"
         id="path28003" /><path
         class="c"
         d="M 74.86,37.5 C 74.86,58.21 58.08,75 37.36,75 16.64,75 1.56,59.85 0,40.58 h 8.82 c 1.01,0 1.99,-0.49 2.57,-1.41 h 0.01 l 0.15,-0.28 0.04,-0.06 2.54,-4.4 1.26,-2.2 4.36,-7.53 c 0.83,-1.46 2.72,-1.96 4.2,-1.12 1.46,0.83 1.96,2.71 1.13,4.17 0,0 0,0.01 -0.01,0.03 l -0.03,0.03 -3.81,6.62 h 0.01 l -0.52,0.88 -3.04,5.28 h -0.01 l -2.02,3.53 c 0,0 -0.01,0.03 -0.03,0.06 -0.03,0.03 -0.03,0.06 -0.06,0.09 -1.28,2.28 -1.49,4.85 -0.79,7.17 0.09,0.28 0.19,0.58 0.3,0.85 0.01,0.03 0.03,0.06 0.03,0.09 0.07,0.18 0.15,0.34 0.25,0.52 0.09,0.18 0.18,0.34 0.28,0.52 0.28,0.49 0.6,0.92 0.95,1.35 h 0.01 c 0.65,0.79 1.46,1.46 2.38,1.99 0.94,0.54 1.93,0.89 2.95,1.07 0.55,0.12 1.12,0.16 1.67,0.16 3.18,0 6.29,-1.65 7.99,-4.61 l 7.4,-12.8 h 0.01 l 3.54,-6.16 h 0.01 l 5.61,-9.73 c 0.85,-1.46 2.74,-1.96 4.21,-1.12 1.46,0.83 1.95,2.71 1.13,4.17 -0.01,0 -0.01,0.01 -0.01,0.03 l -0.03,0.03 -3.81,6.62 -0.52,0.88 -3.04,5.28 h -0.01 l -2.02,3.53 c 0,0 -0.01,0.03 -0.03,0.06 -0.03,0.03 -0.03,0.06 -0.06,0.09 -0.1,0.19 -0.19,0.36 -0.28,0.54 -0.18,0.37 -0.31,0.74 -0.45,1.12 -0.12,0.37 -0.21,0.73 -0.3,1.12 l -0.04,0.31 c -0.01,0.12 -0.04,0.27 -0.06,0.39 v 0.21 c -0.06,0.45 -0.06,0.91 -0.03,1.37 0.01,0.13 0.01,0.28 0.03,0.43 v 0.04 c 0.03,0.21 0.06,0.4 0.09,0.61 0.03,0.15 0.06,0.28 0.1,0.43 0,0.06 0.01,0.12 0.04,0.18 0.03,0.13 0.07,0.3 0.12,0.45 0.36,1.21 0.97,2.34 1.82,3.32 v 0 c 0.65,0.79 1.46,1.46 2.38,1.99 0.94,0.54 1.93,0.89 2.95,1.07 0.55,0.12 1.12,0.16 1.67,0.16 3.18,0 6.29,-1.65 7.99,-4.61 l 7.4,-12.8 h 0.01 l 3.54,-6.16 h 0.01 l 2.98,-5.15 c 0.6,2.65 0.91,5.4 0.91,8.23 z"
         id="path28005" /></g><g
       id="g28041"
       transform="matrix(0.39899566,0,0,0.39899566,-100.74804,6.2198117)"
       style="opacity:1;filter:url(#filter17076)"><path
         class="c"
         d="m 71.3,21.55 -7.43,12.87 h -0.01 l -3.56,6.16 h -0.01 l -1.25,2.2 -4.36,7.53 c -0.83,1.46 -2.72,1.96 -4.2,1.12 -1.46,-0.83 -1.96,-2.71 -1.15,-4.17 0.01,0 0.01,-0.01 0.03,-0.03 0.02,-0.02 0.01,-0.01 0.01,-0.03 l 3.82,-6.62 0.51,-0.88 3.05,-5.28 2.02,-3.53 c 0,0 0.03,-0.03 0.04,-0.06 0.01,-0.03 0.03,-0.06 0.06,-0.09 0.19,-0.36 0.37,-0.71 0.54,-1.09 0.15,-0.37 0.27,-0.74 0.36,-1.13 0.09,-0.37 0.18,-0.76 0.22,-1.13 0.09,-0.77 0.09,-1.53 0,-2.28 -0.04,-0.19 -0.06,-0.37 -0.1,-0.57 -0.01,-0.18 -0.06,-0.36 -0.12,-0.55 -0.01,-0.1 -0.06,-0.24 -0.09,-0.34 -0.01,-0.09 -0.03,-0.15 -0.07,-0.24 v 0 c -0.04,-0.15 -0.1,-0.28 -0.15,-0.43 -0.18,-0.49 -0.4,-0.97 -0.67,-1.41 -0.13,-0.22 -0.27,-0.43 -0.4,-0.64 -0.03,-0.03 -0.04,-0.06 -0.07,-0.07 -0.15,-0.21 -0.31,-0.42 -0.48,-0.62 v 0 c -0.65,-0.79 -1.46,-1.46 -2.4,-1.99 -0.92,-0.54 -1.92,-0.89 -2.93,-1.07 -0.57,-0.12 -1.12,-0.16 -1.68,-0.16 -3.18,0 -6.28,1.65 -7.99,4.61 l -7.38,12.8 h -0.01 l -3.56,6.16 -1.26,2.2 -4.36,7.53 c -0.83,1.46 -2.72,1.96 -4.2,1.12 -1.46,-0.83 -1.96,-2.71 -1.15,-4.17 0.01,0 0.01,-0.01 0.03,-0.03 l 0.03,-0.03 3.81,-6.62 h -0.01 l 0.52,-0.88 3.04,-5.28 h 0.01 l 2.02,-3.53 c 0,0 0.01,-0.03 0.03,-0.06 0.03,-0.03 0.03,-0.06 0.06,-0.09 1.28,-2.29 1.49,-4.9 0.79,-7.22 -0.09,-0.28 -0.19,-0.57 -0.31,-0.85 -0.16,-0.37 -0.34,-0.74 -0.55,-1.09 -0.27,-0.49 -0.6,-0.92 -0.95,-1.35 h -0.01 c -0.65,-0.79 -1.46,-1.46 -2.38,-1.99 -0.94,-0.54 -1.93,-0.89 -2.95,-1.07 -0.55,-0.12 -1.12,-0.16 -1.67,-0.16 -3.2,0 -6.29,1.65 -7.99,4.61 L 8,32.76 c -0.06,0.1 -0.1,0.21 -0.18,0.31 -0.55,0.82 -1.49,1.35 -2.54,1.35 H 0 C 1.56,15.15 17.69,0 37.36,0 52.37,0 65.32,8.81 71.3,21.55 Z"
         id="path28037" /><path
         class="c"
         d="M 74.86,37.5 C 74.86,58.21 58.08,75 37.36,75 16.64,75 1.56,59.85 0,40.58 h 8.82 c 1.01,0 1.99,-0.49 2.57,-1.41 h 0.01 l 0.15,-0.28 0.04,-0.06 2.54,-4.4 1.26,-2.2 4.36,-7.53 c 0.83,-1.46 2.72,-1.96 4.2,-1.12 1.46,0.83 1.96,2.71 1.13,4.17 0,0 0,0.01 -0.01,0.03 l -0.03,0.03 -3.81,6.62 h 0.01 l -0.52,0.88 -3.04,5.28 h -0.01 l -2.02,3.53 c 0,0 -0.01,0.03 -0.03,0.06 -0.03,0.03 -0.03,0.06 -0.06,0.09 -1.28,2.28 -1.49,4.85 -0.79,7.17 0.09,0.28 0.19,0.58 0.3,0.85 0.01,0.03 0.03,0.06 0.03,0.09 0.07,0.18 0.15,0.34 0.25,0.52 0.09,0.18 0.18,0.34 0.28,0.52 0.28,0.49 0.6,0.92 0.95,1.35 h 0.01 c 0.65,0.79 1.46,1.46 2.38,1.99 0.94,0.54 1.93,0.89 2.95,1.07 0.55,0.12 1.12,0.16 1.67,0.16 3.18,0 6.29,-1.65 7.99,-4.61 l 7.4,-12.8 h 0.01 l 3.54,-6.16 h 0.01 l 5.61,-9.73 c 0.85,-1.46 2.74,-1.96 4.21,-1.12 1.46,0.83 1.95,2.71 1.13,4.17 -0.01,0 -0.01,0.01 -0.01,0.03 l -0.03,0.03 -3.81,6.62 -0.52,0.88 -3.04,5.28 h -0.01 l -2.02,3.53 c 0,0 -0.01,0.03 -0.03,0.06 -0.03,0.03 -0.03,0.06 -0.06,0.09 -0.1,0.19 -0.19,0.36 -0.28,0.54 -0.18,0.37 -0.31,0.74 -0.45,1.12 -0.12,0.37 -0.21,0.73 -0.3,1.12 l -0.04,0.31 c -0.01,0.12 -0.04,0.27 -0.06,0.39 v 0.21 c -0.06,0.45 -0.06,0.91 -0.03,1.37 0.01,0.13 0.01,0.28 0.03,0.43 v 0.04 c 0.03,0.21 0.06,0.4 0.09,0.61 0.03,0.15 0.06,0.28 0.1,0.43 0,0.06 0.01,0.12 0.04,0.18 0.03,0.13 0.07,0.3 0.12,0.45 0.36,1.21 0.97,2.34 1.82,3.32 v 0 c 0.65,0.79 1.46,1.46 2.38,1.99 0.94,0.54 1.93,0.89 2.95,1.07 0.55,0.12 1.12,0.16 1.67,0.16 3.18,0 6.29,-1.65 7.99,-4.61 l 7.4,-12.8 h 0.01 l 3.54,-6.16 h 0.01 l 2.98,-5.15 c 0.6,2.65 0.91,5.4 0.91,8.23 z"
         id="path28039" /></g></g></svg>
