<?xml version="1.0" encoding="UTF-8" standalone="no"?>
<!-- Created with Inkscape (http://www.inkscape.org/) -->

<svg
   width="43.900284mm"
   height="50.799999mm"
   viewBox="0 0 43.900287 50.799999"
   version="1.1"
   id="svg5"
   sodipodi:docname="mox.hex.svg"
   inkscape:version="1.3.2 (091e20ef0f, 2023-11-25)"
   xml:space="preserve"
   xmlns:inkscape="http://www.inkscape.org/namespaces/inkscape"
   xmlns:sodipodi="http://sodipodi.sourceforge.net/DTD/sodipodi-0.dtd"
   xmlns:xlink="http://www.w3.org/1999/xlink"
   xmlns="http://www.w3.org/2000/svg"
   xmlns:svg="http://www.w3.org/2000/svg"><sodipodi:namedview
     id="namedview8"
     pagecolor="#ffffff"
     bordercolor="#666666"
     borderopacity="1.0"
     inkscape:pageshadow="2"
     inkscape:pageopacity="0.0"
     inkscape:pagecheckerboard="0"
     inkscape:document-units="mm"
     showgrid="false"
     fit-margin-top="0"
     fit-margin-left="0"
     fit-margin-right="0"
     fit-margin-bottom="0"
     inkscape:zoom="4.0000001"
     inkscape:cx="-98.499997"
     inkscape:cy="144.25"
     inkscape:window-width="3440"
     inkscape:window-height="1440"
     inkscape:window-x="0"
     inkscape:window-y="0"
     inkscape:window-maximized="0"
     inkscape:current-layer="svg5"
     inkscape:showpageshadow="2"
     inkscape:deskcolor="#d1d1d1" /><defs
     id="defs2"><linearGradient
       id="linearGradient1"
       inkscape:collect="always"><stop
         style="stop-color:#bc1b66;stop-opacity:1;"
         offset="0"
         id="stop1" /><stop
         style="stop-color:#ad7944;stop-opacity:1;"
         offset="1"
         id="stop2" /></linearGradient><linearGradient
       gradientUnits="userSpaceOnUse"
       y2="161.62906"
       x2="79.058426"
       y1="157.91002"
       x1="100.54038"
       id="linearGradient884"
       xlink:href="#linearGradient880" /><linearGradient
       id="linearGradient880"><stop
         id="stop876"
         offset="0"
         style="stop-color:#784421;stop-opacity:1;" /><stop
         id="stop878"
         offset="1"
         style="stop-color:#784421;stop-opacity:0;" /></linearGradient><linearGradient
       gradientUnits="userSpaceOnUse"
       y2="187.636"
       x2="162.18832"
       y1="188.57594"
       x1="188.85896"
       id="linearGradient1106"
       xlink:href="#linearGradient880" /><linearGradient
       gradientUnits="userSpaceOnUse"
       y2="208.92482"
       x2="-1.8827039"
       y1="261.78836"
       x1="-1.8827039"
       id="linearGradient1408-6"
       xlink:href="#linearGradient1406" /><linearGradient
       id="linearGradient1406"><stop
         id="stop1402"
         offset="0"
         style="stop-color:#000000;stop-opacity:1;" /><stop
         id="stop1404"
         offset="1"
         style="stop-color:#000000;stop-opacity:0;" /></linearGradient><radialGradient
       gradientUnits="userSpaceOnUse"
       gradientTransform="matrix(1,0,0,1.4639338,0,-64.581152)"
       r="56.134296"
       fy="127.04554"
       fx="140.49042"
       cy="127.04554"
       cx="140.49042"
       id="radialGradient1608"
       xlink:href="#linearGradient1606" /><linearGradient
       id="linearGradient1606"><stop
         id="stop1602"
         offset="0"
         style="stop-color:#fdbc5c;stop-opacity:1" /><stop
         id="stop1604"
         offset="1"
         style="stop-color:#fdd08c;stop-opacity:0;" /></linearGradient><linearGradient
       gradientUnits="userSpaceOnUse"
       y2="276.31"
       y1="233.23"
       x2="529.53003"
       x1="479.79001"
       id="d"><stop
         id="stop16254"
         stop-color="#fff"
         offset="0" /><stop
         id="stop16256"
         stop-opacity="0"
         stop-color="#fff"
         offset="1" /></linearGradient><clipPath
       id="c"><path
         id="path16259"
         fill="#009688"
         fill-rule="evenodd"
         d="m 503.51,222.01 c -20.04,0 -36.286,16.246 -36.286,36.286 0,1.925 0.151,3.814 0.44,5.657 1.402,6.762 6.687,9.389 6.687,9.389 1.108,0.908 2.484,1.836 4.073,2.752 l -0.13,-0.004 c 0,0 3.331,18.563 9.444,18.41 4.622,-0.116 8.25,-9.453 14.128,-9.265 5.872,0.188 8.256,9.151 14.1,9.213 3.374,0.036 6.307,-5.744 8.16,-10.528 0.586,-0.12 1.17,-0.25 1.749,-0.392 5.556,5.254 18.398,10.599 23.87,12.412 a 0.533,0.533 0 0 0 0.177,-0.14 c 1.396,-1.82 -7.954,-16.01 -12.983,-23.372 a 36.17,36.17 0 0 0 2.856,-14.132 c 0,-20.04 -16.246,-36.286 -36.286,-36.286 z" /></clipPath><filter
       color-interpolation-filters="sRGB"
       height="1.1272249"
       width="1.1135408"
       y="-0.063612454"
       x="-0.056770418"
       id="b"><feGaussianBlur
         id="feGaussianBlur16262"
         stdDeviation="7.406" /></filter><filter
       color-interpolation-filters="sRGB"
       height="1.071391"
       width="1.072607"
       y="-0.035695516"
       x="-0.036303554"
       id="a"><feGaussianBlur
         id="feGaussianBlur16265"
         stdDeviation="1.279" /></filter><clipPath
       clipPathUnits="userSpaceOnUse"
       id="clipPath80613"><polygon
         points="36.911,132.309 36.911,135.321 39.346,136.825 96.715,169.921 99.273,171.419 101.853,169.921 159.319,136.825 161.938,135.321 161.938,132.309 161.938,66.116 161.938,63.104 159.308,61.6 101.841,28.504 99.234,27.006 96.629,28.504 39.347,61.6 36.911,63.104 36.911,66.116 "
         id="polygon80615"
         style="fill:#77889b;fill-opacity:1"
         transform="matrix(1.4781253,0,0,1.4781253,81.707219,-272.07126)" /></clipPath><linearGradient
       xlink:href="#linearGradient5562"
       id="linearGradient5384"
       gradientUnits="userSpaceOnUse"
       gradientTransform="translate(70.650339,-1055.1511)"
       x1="200.59668"
       y1="351.41116"
       x2="290.08701"
       y2="506.18814" /><linearGradient
       id="linearGradient5562"><stop
         style="stop-color:#699ad7;stop-opacity:1"
         offset="0"
         id="stop5564" /><stop
         id="stop5566"
         offset="0.24345198"
         style="stop-color:#7eb1dd;stop-opacity:1" /><stop
         style="stop-color:#7ebae4;stop-opacity:1"
         offset="1"
         id="stop5568" /></linearGradient><linearGradient
       xlink:href="#linearGradient5053"
       id="linearGradient5386"
       gradientUnits="userSpaceOnUse"
       gradientTransform="translate(864.69589,-1491.3405)"
       x1="-584.19934"
       y1="782.33563"
       x2="-496.29703"
       y2="937.71399" /><linearGradient
       id="linearGradient5053"><stop
         style="stop-color:#415e9a;stop-opacity:1"
         offset="0"
         id="stop5055" /><stop
         id="stop5057"
         offset="0.23168644"
         style="stop-color:#4a6baf;stop-opacity:1" /><stop
         style="stop-color:#5277c3;stop-opacity:1"
         offset="1"
         id="stop5059" /></linearGradient><linearGradient
       xlink:href="#linearGradient1407"
       id="linearGradient1409"
       x1="-171.06561"
       y1="270.24414"
       x2="-129.89749"
       y2="203.39642"
       gradientUnits="userSpaceOnUse" /><linearGradient
       id="linearGradient1407"><stop
         style="stop-color:#264d82;stop-opacity:1"
         offset="0"
         id="stop1403" /><stop
         style="stop-color:#56a4d7;stop-opacity:1"
         offset="1"
         id="stop1405" /></linearGradient><linearGradient
       inkscape:collect="always"
       xlink:href="#linearGradient1"
       id="linearGradient2"
       x1="42.939255"
       y1="61.60495"
       x2="152.51884"
       y2="133.0593"
       gradientUnits="userSpaceOnUse" /></defs><polygon
     points="36.911,132.309 36.911,135.321 39.346,136.825 96.715,169.921 99.273,171.419 101.853,169.921 159.319,136.825 161.938,135.321 161.938,132.309 161.938,66.116 161.938,63.104 159.308,61.6 101.841,28.504 99.234,27.006 96.629,28.504 39.347,61.6 36.911,63.104 36.911,66.116 "
     id="polygon8"
     style="fill:url(#linearGradient2);fill-opacity:1"
     transform="matrix(0.35112416,0,0,0.35176889,-12.960311,-9.4998706)"
     inkscape:label="hexagon" /><path
     id="polygon71814"
     style="opacity:0.356261;fill:#ffffff;fill-opacity:1;stroke-width:0.351446"
     d="M 3.22826,10.795688 2.535795,11.19618 3.3e-5,13.80894 v 0.296623 L 2.96471,11.05252 4.871053,12.894267 1.212879,16.541073 3.3e-5,15.849643 v 0.240295 l 1.136882,0.646472 0.08165,16.246036 0.0041,0.931727 L 0,34.591652 v 0.237194 l 1.324467,-0.733287 1.003557,1.164267 2.289266,2.689241 -1.932182,1.738914 0.54932,0.317809 37.318134,-0.0077 0.0295,-0.03152 3.31815,-3.347084 v -0.293561 l -3.37861,3.408577 -1.90634,-1.826243 1.29501,-1.292944 2.48254,-2.363163 1.5074,0.844393 V 34.8578 l -1.40973,-0.789616 v -0.0274 l 0.0703,-0.07028 -0.0687,-0.0098 0.0393,-5.294769 0.13849,-11.531079 0.1757,-0.01602 -0.0739,-0.07183 1.12861,-0.597897 v -0.235144 l -1.28468,0.680579 -4.02973,-3.904154 1.94562,-1.791105 3.36879,3.382222 v -0.294556 l -3.3631,-3.377054 z m -0.01705,0.206189 37.099542,0.117305 -1.87534,1.72651 -0.0114,-0.01189 -0.0527,0.06873 -19.777596,-0.05891 -13.539225,-0.06253 z m 2.048453,2.007629 12.595614,0.03927 20.312965,0.09198 -3.79925,4.648295 H 9.353467 Z m -0.241846,0.03721 3.987871,4.654496 -7.501868,-1.087789 z m 33.374705,0.160197 3.90622,3.746025 -0.38447,0.03927 -7.04505,0.609265 z m -37.017375,3.59978 7.935433,1.148251 v 14.939655 h -0.0584 l -0.07442,0.08371 -7.746297,0.848009 -0.0057,-0.976683 z m 41.036765,0.349333 -0.0878,11.474753 -0.0625,5.300968 c -2.53766,-0.32527 -0.71991,-0.07697 -3.73413,-0.458886 h -0.002 c -0.0703,-0.0082 -0.01,-0.0021 -0.076,-0.0098 l -0.0336,-0.0041 c -1.92827,-0.22528 -2.26348,-0.279811 -2.27893,-0.287322 -0.004,-0.0021 -0.028,-0.0171 -0.0687,-0.03099 -0.0407,-0.01389 -0.0995,-0.0299 -0.2129,-0.05271 -0.20373,-0.04098 -0.68163,-0.11716 -1.40974,-0.226342 V 17.926002 l 7.50549,-0.728638 z M 9.519349,17.996282 h 24.716833 v 14.837855 l -18.524963,0.04496 h -6.19187 z m 3.656624,1.14825 -2.086178,1.900143 0.04909,8.568469 1.898075,2.013831 18.172022,-0.0041 0.0295,-0.02533 2.14612,-1.91771 0.11162,-8.447548 -2.29495,-2.039152 z m 0.0801,0.207222 17.867129,0.04858 2.16369,1.923913 -0.10904,8.261511 -2.0469,1.83038 -18.00407,0.0036 -1.781286,-1.888773 -0.04651,-8.394319 z m 2.519226,13.734045 h 18.623153 l 3.84783,4.720644 -5.63119,0.0021 c -9.226554,-0.0089 -18.398377,-0.03264 -27.491855,-0.03307 L 7.603705,35.029386 9.37724,33.101337 Z M 8.96693,33.208788 7.453327,34.886722 4.78889,37.783187 H 4.77752 L 2.355446,34.972508 1.54516,34.023211 Z m 25.812372,0.01755 7.29671,0.918292 c -0.0281,0.02702 -0.0684,0.06306 -0.0915,0.08578 -0.0716,0.07039 -0.10814,0.106276 -0.13488,0.140559 -0.002,0.0021 -0.003,0.0043 -0.006,0.0077 -0.002,0.0028 -0.008,0.01136 -0.01,0.01551 -3.5e-4,0.0011 -0.002,0.004 -0.002,0.0042 l -1.9141,1.912026 -0.30076,0.295074 -1.17202,1.115178 z M 3.5e-5,36.518145 v 0.323494 l 2.087211,2.50114 0.526583,0.304375 z m 19.273242,1.501198 19.121315,0.03721 0.0372,-0.03514 h 0.002 l 1.84743,1.769401 H 3.006051 l 1.910478,-1.769401 z"
     inkscape:label="emerald" /><path
     id="path12"
     style="fill:#ffffff;fill-opacity:1;stroke-width:0.351444"
     d="M 21.883008,8.3518683e-7 20.968433,0.52683541 0.85560267,12.16902 3.3565323e-5,12.697928 v 1.059369 23.284889 1.059372 L 0.85508592,38.630463 20.998972,50.27265 21.896981,50.8 22.802755,50.27265 42.980283,38.630463 43.900034,38.101558 V 37.042186 13.757297 12.697928 L 42.976661,12.16902 22.798613,0.52683541 Z M 21.87576,1.1905622 42.767557,13.2958 V 37.504204 L 21.87576,49.609441 1.1589071,37.605836 0.98396241,37.504204 V 13.2958 Z"
     sodipodi:nodetypes="ccccccccccccccccccccccccccc"
     inkscape:label="border" /><g
     id="g13"
     inkscape:label="NGI ZERO"><path
       id="path30-2"
       style="fill:#ffffff;fill-opacity:1;stroke:none;stroke-width:0.0222654"
       d="m 18.240579,43.792771 c -0.135345,0 -0.246209,0.11088 -0.246209,0.246212 v 1.725937 c 0,0.135344 0.110864,0.246208 0.246209,0.246208 h 3.674652 c 0.13533,0 0.245799,-0.11088 0.245799,-0.246208 v -0.406514 c 0,-0.04502 0.01786,-0.08816 0.04974,-0.120021 l 0.20264,-0.202641 c 0.05655,-0.05654 0.05628,-0.147923 -4.35e-4,-0.204284 l -0.20182,-0.200997 c -0.03206,-0.03185 -0.05014,-0.07524 -0.05014,-0.120436 v -0.471048 c 0,-0.135328 -0.110474,-0.246208 -0.245799,-0.246208 z m 2.40209,0.375276 c 0.124352,0 0.237318,0.02099 0.338692,0.06289 0.04395,0.01818 0.08463,0.04006 0.122484,0.06535 0.08024,0.0536 0.08447,0.17162 0.007,0.232649 -0.04973,0.03916 -0.120513,0.0396 -0.172636,0.0036 -0.08205,-0.05651 -0.175278,-0.08468 -0.279503,-0.08468 -0.09058,0 -0.171007,0.01893 -0.241276,0.05672 -0.07031,0.0379 -0.124799,0.09134 -0.164005,0.160305 -0.03921,0.06894 -0.05919,0.147967 -0.05919,0.237166 0,0.08789 0.01997,0.166178 0.05919,0.235111 0.03921,0.06894 0.09355,0.122606 0.163182,0.161127 0.06961,0.03853 0.148774,0.05795 0.237989,0.05795 0.05186,0 0.100974,-0.0063 0.147145,-0.0185 0.04911,-0.013 0.08647,-0.04969 0.101109,-0.09618 0.0052,-0.01648 -0.0073,-0.03328 -0.02466,-0.03328 -0.09434,0 -0.170193,-0.07986 -0.164003,-0.175513 0.0057,-0.08728 0.08227,-0.153314 0.169757,-0.153314 h 0.161946 c 0.0015,0 0.0031,3.95e-4 0.0045,3.95e-4 0.0015,-4.4e-5 0.0027,-3.95e-4 0.004,-3.95e-4 h 0.0115 c 0.07978,0 0.144277,0.06493 0.144277,0.144678 v 0.201408 c 0,0.165589 -0.106531,0.313916 -0.264706,0.362946 -0.0011,2.09e-4 -0.0019,3.95e-4 -0.0028,7.9e-4 -0.101392,0.0311 -0.203511,0.04645 -0.30622,0.04645 -0.147355,0 -0.279867,-0.03126 -0.397472,-0.09414 -0.1176,-0.06285 -0.209719,-0.149888 -0.276625,-0.261416 -0.0669,-0.111521 -0.100302,-0.237546 -0.100302,-0.378154 0,-0.140557 0.03338,-0.266645 0.100302,-0.378149 0.0669,-0.111537 0.159693,-0.198997 0.27868,-0.261832 0.118899,-0.06285 0.25287,-0.09413 0.401583,-0.09413 z m -2.086416,0.02427 h 0.03247 c 0.04864,0 0.09457,0.02197 0.125367,0.0596 l 0.537634,0.656014 c 0.04012,0.04902 0.119616,0.02099 0.119616,-0.04233 v -0.510917 c 0,-0.08959 0.07236,-0.16236 0.161949,-0.16236 0.08959,0 0.16236,0.07276 0.16236,0.16236 v 1.094995 c 0,0.08958 -0.07276,0.16195 -0.16236,0.16195 h -0.03041 c -0.04856,0 -0.09455,-0.02166 -0.125367,-0.0592 l -0.539688,-0.656832 c -0.04017,-0.04892 -0.119616,-0.02055 -0.119616,0.04275 v 0.511327 c 0,0.08958 -0.07236,0.16195 -0.161951,0.16195 -0.08958,0 -0.162358,-0.07237 -0.162358,-0.16195 v -1.094995 c 0,-0.08959 0.07279,-0.16236 0.162358,-0.16236 z m 3.04125,0 c 0.09071,0 0.164414,0.0737 0.164414,0.164416 v 1.090888 c 0,0.09071 -0.0737,0.164001 -0.164414,0.164001 -0.09071,0 -0.164004,-0.0733 -0.164004,-0.164001 v -1.090888 c 0,-0.09071 0.0733,-0.164416 0.164004,-0.164416 z"
       inkscape:label="NGI" /><g
       aria-label="Z E R O"
       transform="matrix(0.02226547,0,0,0.02226547,17.678847,46.326851)"
       style="font-variant:normal;font-weight:600;font-stretch:normal;font-size:31.76px;font-family:'Montserrat SemiBold';-inkscape-font-specification:Montserrat-SemiBold;font-variant-ligatures:normal;font-variant-caps:normal;font-variant-numeric:normal;font-feature-settings:normal;text-align:start;writing-mode:lr-tb;text-anchor:start;fill:#ffffff;fill-opacity:1;fill-rule:nonzero;stroke:none"
       id="text56-3"
       inkscape:label="ZERO"><path
         style="fill:#ffffff;fill-opacity:1"
         d="m 357.57911,-69.107237 q -2.72938,0 -4.23364,2.016016 -1.50425,2.016015 -1.50425,5.675859 0,3.644336 1.50425,5.660352 1.50426,2.016015 4.23364,2.016015 2.74488,0 4.24914,-2.016015 1.50426,-2.016016 1.50426,-5.660352 0,-3.659844 -1.50426,-5.675859 -1.50426,-2.016016 -4.24914,-2.016016 z m 0,-4.32668 q 5.58281,0 8.7464,3.19461 3.1636,3.194609 3.1636,8.823945 0,5.613828 -3.1636,8.808438 -3.16359,3.194609 -8.7464,3.194609 -5.56731,0 -8.74641,-3.194609 -3.16359,-3.19461 -3.16359,-8.808438 0,-5.629336 3.16359,-8.823945 3.1791,-3.19461 8.74641,-3.19461 z"
         id="path2331-7"
         inkscape:label="O" /><path
         style="font-variant:normal;font-weight:600;font-stretch:normal;font-size:31.76px;font-family:'Montserrat SemiBold';-inkscape-font-specification:Montserrat-SemiBold;font-variant-ligatures:normal;font-variant-caps:normal;font-variant-numeric:normal;font-feature-settings:normal;text-align:start;writing-mode:lr-tb;text-anchor:start;fill:#ffffff;fill-opacity:1;fill-rule:nonzero;stroke:none"
         d="m 320.00367,-62.749034 q 1.87645,0 2.68285,-0.697851 0.82192,-0.697852 0.82192,-2.295157 0,-1.581796 -0.82192,-2.26414 -0.8064,-0.682344 -2.68285,-0.682344 h -2.51226 v 5.939492 z m -2.51226,4.125078 v 8.761915 h -5.97051 v -23.153165 h 9.11859 q 4.57481,0 6.69938,1.535274 2.14008,1.535273 2.14008,4.853945 0,2.295156 -1.11657,3.768399 -1.10105,1.473242 -3.33418,2.171093 1.22512,0.279141 2.18661,1.271641 0.97699,0.976992 1.96949,2.9775 l 3.24113,6.575313 h -6.3582 l -2.82242,-5.753399 q -0.85293,-1.736875 -1.73688,-2.372695 -0.86844,-0.635821 -2.32617,-0.635821 z"
         id="path2329-2"
         inkscape:label="R"
         transform="translate(-5.3333705e-6)" /><path
         style="font-variant:normal;font-weight:600;font-stretch:normal;font-size:31.76px;font-family:'Montserrat SemiBold';-inkscape-font-specification:Montserrat-SemiBold;font-variant-ligatures:normal;font-variant-caps:normal;font-variant-numeric:normal;font-feature-settings:normal;text-align:start;writing-mode:lr-tb;text-anchor:start;fill:#ffffff;fill-opacity:1;fill-rule:nonzero;stroke:none"
         d="m 278.7684,-73.015206 h 16.11262 v 4.512774 h -10.14211 v 4.311172 h 9.5373 v 4.512773 h -9.5373 v 5.303672 h 10.48328 v 4.512774 H 278.7684 Z"
         id="path2327-6"
         inkscape:label="E"
         transform="translate(-5.3333705e-6)" /><path
         style="font-variant:normal;font-weight:600;font-stretch:normal;font-size:31.76px;font-family:'Montserrat SemiBold';-inkscape-font-specification:Montserrat-SemiBold;font-variant-ligatures:normal;font-variant-caps:normal;font-variant-numeric:normal;font-feature-settings:normal;text-align:start;writing-mode:lr-tb;text-anchor:start;fill:#ffffff;fill-opacity:1;fill-rule:nonzero;stroke:none"
         d="m 243.58117,-73.015206 h 19.46231 v 3.613321 l -12.42176,15.02707 h 12.77844 v 4.512774 h -20.17567 v -3.613321 l 12.42176,-15.02707 h -12.06508 z"
         id="path2325-8"
         inkscape:label="Z"
         transform="translate(-5.3333705e-6)" /></g></g><g
     id="g12"
     inkscape:label="MOX"><path
       id="path7"
       style="-inkscape-font-specification:ubuntu;fill:#ffffff;stroke-width:0.969888"
       d="m 29.003091,21.365362 2.555399,3.669544 0.833541,-1.087272 -1.759582,-2.582272 z m 5.493203,0 -4.32945,5.927804 c -0.496582,0.724182 -0.925686,1.437981 -1.287776,2.141471 h 1.489314 c 0.1138,-0.217254 0.253569,-0.46533 0.419096,-0.744657 0.165528,-0.279327 0.341398,-0.564022 0.527616,-0.853695 0.196564,-0.300018 0.398222,-0.594511 0.605131,-0.884183 0.206909,-0.300019 0.408568,-0.579556 0.605132,-0.838192 0.196563,0.258636 0.398738,0.532499 0.605647,0.822172 0.206909,0.289673 0.408568,0.584682 0.605131,0.8847 0.196564,0.289673 0.377593,0.574368 0.543119,0.853695 0.165526,0.279327 0.305295,0.53256 0.419097,0.76016 H 36.2812 C 35.91911,28.720801 35.474012,27.99153 34.946398,27.246657 34.429122,26.491439 33.922141,25.77764 33.42556,25.105186 l 2.607075,-3.739824 z"
       sodipodi:nodetypes="cccccccccscccscscccccc"
       inkscape:label="X" /><path
       id="path8"
       style="-inkscape-font-specification:ubuntu;fill:#ffffff;stroke-width:0.969888"
       d="m 24.316555,21.163308 c -0.548309,0 -1.055292,0.103666 -1.520837,0.310575 -0.465545,0.196563 -0.868862,0.481259 -1.210262,0.853695 -0.331054,0.372436 -0.589962,0.82217 -0.77618,1.349788 -0.186218,0.517273 -0.279053,1.09182 -0.279053,1.722892 0,0.641418 0.09283,1.220606 0.279053,1.737879 0.186218,0.517272 0.445126,0.961849 0.77618,1.334285 0.3414,0.372436 0.744717,0.662289 1.210262,0.869198 0.465545,0.196563 0.972528,0.295072 1.520837,0.295072 0.548309,0 1.055292,-0.09851 1.520838,-0.295072 0.465545,-0.206909 0.863704,-0.496762 1.194759,-0.869198 0.3414,-0.372436 0.605465,-0.817013 0.791683,-1.334285 0.186218,-0.517273 0.279052,-1.096461 0.279052,-1.737879 0,-0.631072 -0.09283,-1.205619 -0.279052,-1.722892 -0.186218,-0.527618 -0.450283,-0.977352 -0.791683,-1.349788 -0.331055,-0.372436 -0.729214,-0.657132 -1.194759,-0.853695 -0.465546,-0.206909 -0.972529,-0.310575 -1.520838,-0.310575 z m 0,1.27279 c 0.703491,0 1.256891,0.268706 1.660364,0.806669 0.413818,0.527618 0.620634,1.247092 0.620634,2.157491 0,0.9104 -0.206816,1.634514 -0.620634,2.172477 -0.403473,0.527618 -0.956873,0.791166 -1.660364,0.791166 -0.70349,0 -1.262048,-0.263548 -1.675866,-0.791166 -0.403473,-0.537963 -0.605648,-1.262077 -0.605648,-2.172477 0,-0.910399 0.202175,-1.629873 0.605648,-2.157491 0.413818,-0.537963 0.972376,-0.806669 1.675866,-0.806669 z"
       sodipodi:nodetypes="scccssccsccsscccsscscscscs"
       inkscape:label="O" /><path
       id="text1-9"
       style="-inkscape-font-specification:ubuntu;fill:#ffffff;stroke-width:0.969888"
       d="m 10.815571,21.19483 c -0.713836,0 -1.3451154,0.04642 -1.8934244,0.139527 -0.5379635,0.09311 -0.9722251,0.180786 -1.3032796,0.263549 v 7.836731 h 1.4433227 v -6.812504 c 0.041382,-0.01035 0.1239015,-0.02582 0.2480469,-0.04651 0.1241455,-0.02069 0.2587566,-0.03616 0.403593,-0.04651 0.1551817,-0.02069 0.3155804,-0.03616 0.4811074,-0.04651 0.165527,-0.01034 0.320768,-0.0155 0.465605,-0.0155 0.3414,0 0.62042,0.05673 0.837674,0.170532 0.227601,0.103455 0.403471,0.269011 0.527617,0.496611 0.134491,0.2276 0.227842,0.512294 0.279569,0.853694 0.05173,0.3414 0.07751,0.749875 0.07751,1.225765 v 4.220931 h 1.443323 v -4.530989 c 0,-0.351745 -0.02063,-0.688015 -0.06201,-1.008724 -0.04138,-0.320709 -0.103788,-0.615719 -0.186551,-0.884701 C 13.45801,22.656986 13.271268,22.32448 13.00355,22.017001 12.765605,21.74802 12.471112,21.546361 12.119367,21.41187 11.767621,21.267034 11.332843,21.194829 10.815571,21.194829 Z m 4.76405,0 c -0.320709,0 -0.620876,0.0361 -0.900203,0.108521 -0.279328,0.06207 -0.532561,0.139434 -0.760161,0.232544 -0.2276,0.08276 -0.418943,0.170957 -0.574125,0.264066 -0.05942,0.03565 -0.08342,0.05365 -0.130741,0.0832 0.04655,0.05613 0.10193,0.121708 0.14211,0.182935 0.170872,0.248541 0.314999,0.500076 0.398425,0.818555 -0.0026,0.002 -0.01246,0.0092 -0.02067,0.01499 0.119152,-0.07263 0.276351,-0.149505 0.480074,-0.230994 0.320709,-0.134491 0.724026,-0.201538 1.210262,-0.201538 0.351746,0 0.635924,0.05673 0.853178,0.170532 0.2276,0.103455 0.403988,0.26901 0.528133,0.49661 0.134491,0.227601 0.222168,0.512295 0.26355,0.853695 0.05173,0.3414 0.07751,0.749874 0.07751,1.225765 v 4.220931 h 1.443323 v -4.53099 c 0,-0.537963 -0.04126,-1.034631 -0.124024,-1.489831 C 18.393842,22.958616 18.24376,22.565614 18.01616,22.23456 17.798906,21.903505 17.493581,21.649755 17.100454,21.473883 16.707327,21.287664 16.200344,21.19483 15.579617,21.19483 Z"
       sodipodi:nodetypes="scccccscssccssccsscccssccscccccscccsccscccssc"
       inkscape:label="M" /></g></svg>
