<?xml version="1.0" encoding="UTF-8" standalone="no"?>
<svg
   viewBox="0 0 165.92125 192.00001"
   version="1.1"
   id="svg12140"
   sodipodi:docname="Funkwhale.hex.svg"
   width="165.92125"
   height="192"
   inkscape:version="1.3.2 (091e20ef0f, 2023-11-25)"
   xmlns:inkscape="http://www.inkscape.org/namespaces/inkscape"
   xmlns:sodipodi="http://sodipodi.sourceforge.net/DTD/sodipodi-0.dtd"
   xmlns="http://www.w3.org/2000/svg"
   xmlns:svg="http://www.w3.org/2000/svg"
   xmlns:rdf="http://www.w3.org/1999/02/22-rdf-syntax-ns#"
   xmlns:cc="http://creativecommons.org/ns#"
   xmlns:dc="http://purl.org/dc/elements/1.1/">
  <metadata
     id="metadata12144">
    <rdf:RDF>
      <cc:Work
         rdf:about="">
        <dc:format>image/svg+xml</dc:format>
        <dc:type
           rdf:resource="http://purl.org/dc/dcmitype/StillImage" />
        <dc:title>CryptPad_logo_color</dc:title>
      </cc:Work>
    </rdf:RDF>
  </metadata>
  <sodipodi:namedview
     pagecolor="#ffffff"
     bordercolor="#666666"
     borderopacity="1"
     objecttolerance="10"
     gridtolerance="10"
     guidetolerance="10"
     inkscape:pageopacity="0"
     inkscape:pageshadow="2"
     inkscape:window-width="1920"
     inkscape:window-height="1007"
     id="namedview12142"
     showgrid="false"
     fit-margin-top="0"
     fit-margin-left="0"
     fit-margin-right="0"
     fit-margin-bottom="0"
     inkscape:zoom="3.1520535"
     inkscape:cx="91.369007"
     inkscape:cy="93.113902"
     inkscape:window-x="0"
     inkscape:window-y="0"
     inkscape:window-maximized="1"
     inkscape:current-layer="svg12140"
     inkscape:pagecheckerboard="0"
     inkscape:showpageshadow="2"
     inkscape:deskcolor="#d1d1d1" />
  <defs
     id="defs12116">
    <style
       id="style12114">.cls-1{fill:#4591c4}.cls-2{fill:#999}</style>
  </defs>
  <title
     id="title12118">CryptPad_logo_color</title>
  <polygon
     style="fill:#009fe3;fill-opacity:1"
     id="polygon4538"
     points="161.938,66.116 161.938,63.104 159.308,61.6 101.841,28.504 99.234,27.006 96.629,28.504 39.347,61.6 36.911,63.104 36.911,66.116 36.911,132.309 36.911,135.321 39.346,136.825 96.715,169.921 99.273,171.419 101.853,169.921 159.319,136.825 161.938,135.321 161.938,132.309 "
     transform="matrix(1.3270834,0,0,1.3295202,-48.983975,-35.905023)" />
  <g
     id="g77"
     transform="matrix(0.12120404,0,0,-0.1214266,59.710055,175.04326)"
     style="fill:#ffffff">
    <g
       id="g65"
       style="fill:#ffffff">
      <path
         id="path63"
         style="fill:#ffffff;fill-opacity:1;stroke:none;stroke-width:0.999996"
         d="m 25.228832,113.81197 c -6.078957,0 -11.057907,-4.97999 -11.057907,-11.058 V 25.237743 c 0,-6.078958 4.97895,-11.057908 11.057907,-11.057908 H 190.26701 c 6.07801,0 11.03948,4.979896 11.03948,11.057908 v 18.25757 c 0,2.022034 0.80246,3.959569 2.23375,5.390579 l 9.1011,9.101091 c 2.53999,2.538956 2.52751,6.643895 -0.0189,9.174911 l -9.06423,9.027272 c -1.43999,1.43101 -2.25218,3.378942 -2.25218,5.408916 v 21.155888 c 0,6.07801 -4.96147,11.058 -11.03948,11.058 z M 133.11291,96.957337 c 5.585,0 10.65856,-0.943294 15.21152,-2.824496 1.97402,-0.815694 3.80125,-1.799159 5.50126,-2.935177 3.60399,-2.407008 3.79388,-7.707794 0.3138,-10.448736 -2.233,-1.75899 -5.41251,-1.778177 -7.75354,-0.166353 -3.68499,2.538011 -7.87216,3.802857 -12.55319,3.802857 -4.06798,0 -7.68039,-0.849721 -10.83636,-2.547557 -3.15805,-1.701994 -5.60485,-4.102575 -7.36582,-7.199663 -1.76098,-3.095953 -2.65834,-6.645784 -2.65834,-10.651762 0,-3.946997 0.89698,-7.463464 2.65834,-10.559511 1.76097,-3.095954 4.20182,-5.506553 7.32887,-7.236525 3.12601,-1.729973 6.6817,-2.602945 10.68871,-2.602945 2.32894,0 4.53491,0.283555 6.60893,0.830817 2.20596,0.582234 3.88329,2.231771 4.54133,4.319779 0.23157,0.74008 -0.33176,1.495283 -1.10767,1.495283 -4.23698,0 -7.6438,3.586693 -7.36582,7.882748 0.25425,3.919965 3.69529,6.885767 7.62424,6.885767 h 7.27348 c 0.0662,0 0.13894,-0.0189 0.20321,-0.0189 0.0662,0.002 0.12099,0.0189 0.18432,0.0189 h 0.51701 c 3.58301,0 6.47962,-2.916085 6.47962,-6.498147 v -9.045704 c 0,-7.436998 -4.78462,-14.098756 -11.88863,-16.300754 -0.0473,-0.0095 -0.0851,-0.0189 -0.12949,-0.03781 -4.55399,-1.396038 -9.14022,-2.086118 -13.7532,-2.086118 -6.61799,0 -12.56944,1.403505 -17.85142,4.227529 -5.28198,2.822984 -9.41905,6.731985 -12.42398,11.740993 -3.005031,5.009007 -4.504473,10.668775 -4.504473,16.983745 0,6.312985 1.499442,11.975777 4.504473,16.983839 3.00493,5.009008 7.17225,8.937386 12.51623,11.759424 5.34001,2.822984 11.35706,4.227435 18.03611,4.227435 z M 39.406607,95.868201 h 1.45842 c 2.184039,0 4.247472,-0.986773 5.630467,-2.676764 L 70.64204,63.728226 c 1.801995,-2.201997 5.372053,-0.943295 5.372053,1.901429 v 22.946538 c 0,4.024031 3.249546,7.292008 7.273482,7.292008 4.02403,0 7.292007,-3.267977 7.292007,-7.292008 V 39.397086 c 0,-4.022991 -3.267977,-7.273482 -7.292007,-7.273482 h -1.366076 c -2.181014,0 -4.246432,0.973351 -5.630467,2.658333 L 52.052236,64.28201 c -1.804074,2.196988 -5.372053,0.923446 -5.372053,-1.91986 V 39.397086 c 0,-4.022991 -3.249546,-7.273482 -7.273576,-7.273482 -4.022991,0 -7.291913,3.250491 -7.291913,7.273482 v 49.179107 c 0,4.024031 3.268922,7.292008 7.291913,7.292008 z m 136.590383,0 c 4.07393,0 7.38425,-3.310321 7.38425,-7.384258 V 39.489336 c 0,-4.073937 -3.31032,-7.365732 -7.38425,-7.365732 -4.07403,0 -7.36583,3.291795 -7.36583,7.365732 v 48.994607 c 0,4.073937 3.2918,7.384258 7.36583,7.384258 z" />
    </g>
    <g
       aria-label="Z E R O"
       transform="scale(1,-1)"
       style="font-variant:normal;font-weight:600;font-stretch:normal;font-size:31.76px;font-family:'Montserrat SemiBold';-inkscape-font-specification:Montserrat-SemiBold;font-variant-ligatures:normal;font-variant-caps:normal;font-variant-numeric:normal;font-feature-settings:normal;text-align:start;writing-mode:lr-tb;text-anchor:start;fill:#ffffff;fill-opacity:1;fill-rule:nonzero;stroke:none"
       id="g75">
      <path
         style="fill:#ffffff;fill-opacity:1"
         d="m 243.58117,-73.015206 h 19.46231 v 3.613321 l -12.42176,15.02707 h 12.77844 v 4.512774 h -20.17567 v -3.613321 l 12.42176,-15.02707 h -12.06508 z"
         id="path67"
         inkscape:connector-curvature="0" />
      <path
         style="fill:#ffffff;fill-opacity:1"
         d="m 278.7684,-73.015206 h 16.11262 v 4.512774 h -10.14211 v 4.311172 h 9.5373 v 4.512773 h -9.5373 v 5.303672 h 10.48328 v 4.512774 H 278.7684 Z"
         id="path69"
         inkscape:connector-curvature="0" />
      <path
         style="fill:#ffffff;fill-opacity:1"
         d="m 320.00367,-62.749034 q 1.87645,0 2.68285,-0.697851 0.82192,-0.697852 0.82192,-2.295157 0,-1.581796 -0.82192,-2.26414 -0.8064,-0.682344 -2.68285,-0.682344 h -2.51226 v 5.939492 z m -2.51226,4.125078 v 8.761915 h -5.97051 v -23.153165 h 9.11859 q 4.57481,0 6.69938,1.535274 2.14008,1.535273 2.14008,4.853945 0,2.295156 -1.11657,3.768399 -1.10105,1.473242 -3.33418,2.171093 1.22512,0.279141 2.18661,1.271641 0.97699,0.976992 1.96949,2.9775 l 3.24113,6.575313 h -6.3582 l -2.82242,-5.753399 q -0.85293,-1.736875 -1.73688,-2.372695 -0.86844,-0.635821 -2.32617,-0.635821 z"
         id="path71"
         inkscape:connector-curvature="0" />
      <path
         style="fill:#ffffff;fill-opacity:1"
         d="m 357.57911,-69.107237 q -2.72938,0 -4.23364,2.016016 -1.50425,2.016015 -1.50425,5.675859 0,3.644336 1.50425,5.660352 1.50426,2.016015 4.23364,2.016015 2.74488,0 4.24914,-2.016015 1.50426,-2.016016 1.50426,-5.660352 0,-3.659844 -1.50426,-5.675859 -1.50426,-2.016016 -4.24914,-2.016016 z m 0,-4.32668 q 5.58281,0 8.7464,3.19461 3.1636,3.194609 3.1636,8.823945 0,5.613828 -3.1636,8.808438 -3.16359,3.194609 -8.7464,3.194609 -5.56731,0 -8.74641,-3.194609 -3.16359,-3.19461 -3.16359,-8.808438 0,-5.629336 3.16359,-8.823945 3.1791,-3.19461 8.74641,-3.19461 z"
         id="path73"
         inkscape:connector-curvature="0" />
    </g>
  </g>
  <g
     id="g7317"
     transform="matrix(0.49401762,0,0,0.49492474,211.41641,-75.988868)">
    <g
       style="fill:#ffffff"
       transform="matrix(1.2060724,0,0,1.2060724,-414.39995,159.27057)"
       id="g12">
      <path
         style="fill:#ffffff"
         id="path6"
         d="m 128,157.1 c 17.7,0 32.1,-14.4 32.1,-32.1 0,-0.9 -0.8,-1.7 -1.7,-1.7 h -12.1 c -0.9,0 -1.7,0.8 -1.7,1.7 0,9.1 -7.4,16.6 -16.6,16.6 -9.1,0 -16.6,-7.4 -16.6,-16.6 0,-0.9 -0.8,-1.7 -1.7,-1.7 H 97.6 c -0.9,0 -1.7,0.8 -1.7,1.7 0,17.8 14.4,32.1 32.1,32.1 z"
         class="st1"
         inkscape:connector-curvature="0" />
      <path
         style="fill:#ffffff"
         id="path8"
         d="m 128,187.4 c 34.3,0 62.3,-28 62.3,-62.3 0,-0.9 -0.8,-1.7 -1.7,-1.7 h -12.1 c -0.9,0 -1.7,0.8 -1.7,1.7 0,25.9 -21,46.9 -46.9,46.9 C 102,172 81,151 81,125.1 c 0,-0.9 -0.8,-1.7 -1.7,-1.7 H 67.4 c -0.9,0 -1.7,0.8 -1.7,1.7 -0.2,34.3 27.8,62.3 62.3,62.3 z"
         class="st1"
         inkscape:connector-curvature="0" />
      <path
         style="fill:#ffffff"
         id="path10"
         d="m 219,123.4 h -12.1 c -0.9,0 -1.7,0.8 -1.7,1.7 0,42.6 -34.8,77.3 -77.3,77.3 -42.6,0 -77.3,-34.6 -77.3,-77.3 0,-0.9 -0.8,-1.7 -1.7,-1.7 H 37 c -0.9,0 -1.7,0.8 -1.7,1.7 0,51.1 41.6,92.7 92.7,92.7 51.1,0 92.7,-41.6 92.7,-92.7 0,-0.9 -0.8,-1.7 -1.7,-1.7 z"
         class="st1"
         inkscape:connector-curvature="0" />
    </g>
    <path
       style="fill:#3c3c3b;stroke-width:1.20607"
       id="path14"
       d="m -310.3159,259.7364 c 7.47765,3.85943 15.55833,4.58308 22.79477,8.80433 4.70368,2.77397 7.71886,5.78915 10.61343,10.37222 4.58308,6.87461 4.34186,15.55834 4.34186,15.55834 l 0.60304,9.52797 c 0,0 3.61822,9.52797 11.6989,9.52797 8.56312,0 11.69891,-9.52797 11.69891,-9.52797 l 0.60303,-9.52797 c 0,0 -0.24121,-8.56312 4.34186,-15.55834 2.89458,-4.58307 5.78915,-7.83947 10.61344,-10.37222 7.23643,-4.22125 15.31712,-4.9449 22.79477,-8.80433 7.47765,-3.85943 14.71408,-8.80433 19.65898,-15.67894 4.94489,-6.87461 7.23643,-16.04076 4.58307,-24.12145 -14.23165,-0.72364 -30.63424,0.96486 -43.17739,7.71887 -17.48805,9.28675 -28.10149,6.03036 -31.23727,19.90019 h -0.24122 c -3.13579,-13.99044 -13.62862,-10.61344 -31.23727,-19.90019 -12.54316,-6.75401 -28.94574,-8.44251 -43.1774,-7.71887 -2.77396,8.08069 -0.36182,17.12623 4.58308,24.12145 5.30672,6.99522 12.66376,11.94012 20.14141,15.67894 z"
       class="st2"
       inkscape:connector-curvature="0" />
  </g>
  <g
     transform="matrix(0.5739162,0,0,0.57497003,5.3052618,65.610316)"
     id="g5221">
    <path
       inkscape:connector-curvature="0"
       style="fill:#3c3c3b;fill-opacity:1;stroke-width:0.743825"
       d="m 32.845914,132.89252 c 0,-6.69443 2.603389,-9.29781 10.413554,-9.29781 1.636415,0 3.719126,0.14876 4.834864,0.37191 0.59506,0.14876 1.115738,0.59506 1.115738,1.11574 v 2.00832 c 0,0.59506 -0.446295,1.11574 -1.115738,1.11574 h -0.669443 c -0.818208,0 -1.48765,-0.29753 -2.529006,-0.29753 -4.834864,0 -5.801837,0.96698 -5.801837,4.98363 v 0.29753 h 6.620045 c 0.59506,0 1.115738,0.4463 1.115738,1.11574 v 2.15709 c 0,0.66945 -0.446295,1.11574 -1.115738,1.11574 h -6.620045 v 11.30614 c 0,0.59506 -0.446295,1.11574 -1.115737,1.11574 h -4.016657 c -0.59506,0 -1.115738,-0.52068 -1.115738,-1.11574 z"
       id="path5166" />
    <path
       inkscape:connector-curvature="0"
       style="fill:#3c3c3b;fill-opacity:1;stroke-width:0.743825"
       d="m 57.020235,141.59528 c 0,3.04968 1.413268,4.31418 3.495978,4.31418 1.785181,0 3.495979,-1.2645 4.834864,-2.60339 v -12.12435 c 0,-0.59506 0.520678,-1.11573 1.115738,-1.11573 h 4.091039 c 0.59506,0 1.115738,0.52067 1.115738,1.11573 v 17.70304 c 0,0.59506 -0.446295,1.11574 -1.115738,1.11574 h -4.091039 c -0.59506,0 -1.115738,-0.52068 -1.115738,-1.11574 v -1.19012 c -1.710798,1.48765 -3.570361,2.67777 -6.322514,2.67777 -4.834864,0 -8.25646,-2.529 -8.25646,-8.70275 v -10.41355 c 0,-0.59506 0.446295,-1.11574 1.115738,-1.11574 h 4.091038 c 0.595061,0 1.115738,0.52068 1.115738,1.11574 v 10.33917 z"
       id="path5168" />
    <path
       inkscape:connector-curvature="0"
       style="fill:#3c3c3b;fill-opacity:1;stroke-width:0.743825"
       d="m 90.715518,138.47121 c 0,-3.04968 -1.413268,-4.31419 -3.495979,-4.31419 -1.78518,0 -3.570361,1.26451 -4.909246,2.60339 v 12.19874 c 0,0.59506 -0.446295,1.11573 -1.115738,1.11573 h -4.091039 c -0.669442,0 -1.115738,-0.52067 -1.115738,-1.11573 v -17.77743 c 0,-0.59506 0.446296,-1.11573 1.115738,-1.11573 h 4.165422 c 0.59506,0 1.115737,0.52067 1.115737,1.11573 v 1.19012 c 1.710798,-1.48765 3.570362,-2.67777 6.396897,-2.67777 4.834865,0 8.256461,2.52901 8.256461,8.70276 v 10.41355 c 0,0.59506 -0.446295,1.11574 -1.115738,1.11574 h -4.091039 c -0.59506,0 -1.115738,-0.52068 -1.115738,-1.11574 z"
       id="path5170" />
    <path
       inkscape:connector-curvature="0"
       style="fill:#3c3c3b;fill-opacity:1;stroke-width:0.743825"
       d="m 107.67473,137.95053 c 2.1571,0 3.57036,-0.89259 4.31419,-2.45462 l 1.78518,-3.71913 c 0.4463,-1.04135 1.56203,-1.71079 2.60339,-1.71079 h 3.42159 c 0.96698,0 1.11574,0.74382 0.59507,1.71079 l -2.38025,4.98363 c -0.74382,1.63642 -2.23147,2.90092 -3.86789,3.27283 1.48765,0.4463 2.75216,1.48765 3.86789,3.27283 l 3.12407,4.98363 c 0.59506,0.96698 0.29753,1.7108 -0.59506,1.7108 h -3.4216 c -1.19012,0 -2.15709,-0.74382 -2.75215,-1.7108 l -2.30586,-3.71912 c -0.96697,-1.63642 -2.67777,-2.38024 -4.31418,-2.38024 v 6.76881 c 0,0.59506 -0.4463,1.11573 -1.11574,1.11573 h -4.09104 c -0.59506,0 -1.11574,-0.52067 -1.11574,-1.11573 v -23.80241 c 0,-0.59506 0.4463,-1.11574 1.11574,-1.11574 h 4.09104 c 0.59506,0 1.11574,0.52068 1.11574,1.11574 v 12.79379 z"
       id="path5172" />
    <path
       inkscape:connector-curvature="0"
       style="fill:#3c3c3b;fill-opacity:1;stroke-width:0.743825"
       d="m 140.1799,130.06599 c 1.04135,0 1.78518,0.59506 2.08271,1.56203 l 2.9753,9.81849 2.9753,-9.81849 c 0.29753,-1.04136 1.33888,-1.56203 2.45462,-1.56203 h 3.34722 c 0.89259,0 1.04135,0.66944 0.74382,1.56203 l -5.50431,16.73607 c -0.29753,0.96697 -1.33888,1.56203 -2.30585,1.56203 h -2.60339 c -0.89259,0 -2.00833,-0.59506 -2.30586,-1.56203 l -3.49598,-10.78547 -3.49598,10.85985 c -0.29753,0.96697 -1.41327,1.56203 -2.30586,1.56203 h -2.60338 c -0.96698,0 -1.93395,-0.59506 -2.30586,-1.56203 l -5.50431,-16.73607 c -0.29753,-0.89259 -0.0744,-1.56203 0.74383,-1.56203 h 3.34721 c 1.11574,0 2.08271,0.59506 2.45462,1.56203 l 2.9753,9.81849 2.9753,-9.81849 c 0.29753,-0.96697 1.04136,-1.56203 2.08272,-1.56203 h 3.27283 z"
       id="path5174" />
    <path
       inkscape:connector-curvature="0"
       style="fill:#3c3c3b;fill-opacity:1;stroke-width:0.743825"
       d="m 172.09,138.47121 c 0,-3.04968 -1.41327,-4.31419 -3.4216,-4.31419 -1.78518,0 -3.57036,1.26451 -4.90924,2.60339 v 12.19874 c 0,0.59506 -0.4463,1.11573 -1.11574,1.11573 h -4.09104 c -0.59506,0 -1.11574,-0.52067 -1.11574,-1.11573 v -23.80241 c 0,-0.59506 0.52068,-1.11574 1.11574,-1.11574 h 4.09104 c 0.59506,0 1.11574,0.52068 1.11574,1.11574 v 7.2151 c 1.71079,-1.48765 3.57036,-2.67777 6.39689,-2.67777 4.83487,0 8.25646,2.52901 8.25646,8.70276 v 10.41355 c 0,0.59506 -0.52067,1.11574 -1.11573,1.11574 h -4.09104 c -0.59506,0 -1.11574,-0.52068 -1.11574,-1.11574 z"
       id="path5176" />
    <path
       inkscape:connector-curvature="0"
       style="fill:#3c3c3b;fill-opacity:1;stroke-width:0.743825"
       d="m 189.04921,135.04961 c -0.44629,0.59506 -1.19012,0.96698 -2.08271,0.96698 h -2.67777 c -0.59506,0 -1.11573,-0.4463 -1.11573,-1.11574 0,-3.86789 3.86789,-5.20678 9.89287,-5.20678 5.35554,0 9.59535,2.23148 9.59535,7.88455 v 11.23176 c 0,0.59506 -0.52068,1.11574 -1.11574,1.11574 h -3.49598 c -0.59506,0 -1.11574,-0.52068 -1.11574,-1.11574 v -0.59506 c -1.7108,1.19012 -3.71912,2.08271 -6.62004,2.08271 -4.83487,0 -8.55399,-2.15709 -8.55399,-6.39689 0,-4.23981 3.71912,-6.32252 8.55399,-6.32252 h 6.02498 c 0,-2.90092 -1.19012,-3.79351 -3.71912,-3.79351 -1.56204,0.0744 -2.9753,0.52068 -3.57037,1.2645 z m 7.28949,9.52097 v -2.82654 h -5.57869 c -1.78518,0 -2.75215,0.96697 -2.75215,2.23148 0,1.2645 0.96697,2.23147 2.9753,2.23147 2.15709,0 4.01666,-0.8182 5.35554,-1.63641 z"
       id="path5178" />
    <path
       inkscape:connector-curvature="0"
       style="fill:#3c3c3b;fill-opacity:1;stroke-width:0.743825"
       d="m 208.16552,150.0005 c -0.59506,0 -1.11573,-0.52068 -1.11573,-1.11574 v -23.8024 c 0,-0.59506 0.52067,-1.11574 1.11573,-1.11574 h 4.09104 c 0.59506,0 1.11574,0.52068 1.11574,1.11574 v 23.8024 c 0,0.59506 -0.44629,1.11574 -1.11574,1.11574 z"
       id="path5180" />
    <path
       inkscape:connector-curvature="0"
       style="fill:#3c3c3b;fill-opacity:1;stroke-width:0.743825"
       d="m 223.04203,141.96719 c 0.22315,2.9753 1.56203,4.2398 4.61171,4.2398 1.56204,0 2.97531,-0.44629 3.57037,-1.19012 0.52067,-0.59506 1.19012,-0.96697 2.08271,-0.96697 h 2.67777 c 0.59506,0 1.11574,0.52068 1.11574,1.11574 0,3.86789 -3.94228,5.20677 -9.89288,5.20677 -6.62004,0 -10.6367,-3.57036 -10.6367,-10.26478 0,-6.69443 4.01666,-10.33917 10.6367,-10.33917 6.62004,0 10.56232,3.57036 10.56232,10.11602 v 1.04135 c 0,0.59506 -0.4463,1.11574 -1.11574,1.11574 h -13.612 z m 0,-3.86789 h 8.47961 c -0.14877,-2.75216 -1.48765,-4.23981 -4.23981,-4.23981 -2.67777,0 -4.09104,1.48765 -4.2398,4.23981 z"
       id="path5182" />
  </g>
</svg>
