<?xml version="1.0" encoding="utf-8"?><svg xmlns="http://www.w3.org/2000/svg" xmlns:svg="http://www.w3.org/2000/svg" width="43.900002mm" height="50.799999mm" viewBox="0 0 43.900002 50.8" version="1.1" id="svg5" xml:space="preserve"><defs id="defs2"/><g id="layer1" transform="translate(-58.227576,-118.47264)"><polygon points="99.234,27.006 96.629,28.504 39.347,61.6 36.911,63.104 36.911,66.116 36.911,132.309 36.911,135.321 39.346,136.825 96.715,169.921 99.273,171.419 101.853,169.921 159.319,136.825 161.938,135.321 161.938,132.309 161.938,66.116 161.938,63.104 159.308,61.6 101.841,28.504 " id="polygon24" style="fill:#ffffff;fill-opacity:1" transform="matrix(0.35112416,0,0,0.35176889,45.267233,108.97277)"/><path id="polygon4013" style="fill:#00539f;fill-opacity:1;stroke-width:0.351444" d="m 80.11055,118.47264 -0.914575,0.52684 -20.11283,11.64218 -0.855569,0.52891 v 1.05937 23.28489 1.05937 l 0.855052,0.52891 20.143886,11.64218 0.898009,0.52735 0.905774,-0.52735 20.177533,-11.64218 0.91975,-0.52891 v -1.05937 -23.28489 -1.05937 l -0.92338,-0.52891 -20.178045,-11.64218 z m -0.0072,1.19056 20.8918,12.10524 v 24.20841 l -20.8918,12.10523 -20.716853,-12.0036 -0.174945,-0.10163 v -24.20841 z m 0,0.81255 -20.189432,11.69767 v 23.39741 l 20.189432,11.69871 20.18944,-11.69871 v -23.39741 z"/><path id="path3941" clip-path="none" style="opacity:1;fill:#1863a8;fill-opacity:1;stroke-width:0.286132" d="M 88.618486 129.0875 C 86.645617 129.08613 85.279318 129.89496 84.554651 131.49355 C 83.897194 132.94387 83.877175 133.89602 84.471969 135.3853 C 85.006791 136.72442 86.240922 137.70859 87.701746 137.96086 C 90.739056 138.48537 93.156193 136.51972 93.156193 133.52547 C 93.156193 130.8178 91.389125 129.0895 88.618486 129.0875 z M 88.414881 131.3778 C 89.230815 131.3778 90.238137 132.01706 90.569271 132.74515 C 91.001791 133.69618 90.530418 134.90368 89.552279 135.35016 C 89.162437 135.52808 88.650475 135.67366 88.414881 135.67366 C 87.726604 135.67366 86.583468 134.33258 86.583468 133.52547 C 86.583468 132.71836 87.726604 131.3778 88.414881 131.3778 z M 89.25979 140.90125 C 88.070209 140.85671 86.770561 140.90843 86.121997 141.08418 C 85.0019 141.3877 84.936989 141.46626 84.763941 142.73111 C 84.664014 143.4616 84.582556 144.4277 84.582556 144.87826 L 84.582556 145.69733 L 88.482577 145.69733 L 92.383114 145.69733 L 92.190878 143.62718 C 92.085251 142.48862 91.880544 141.43863 91.736125 141.29399 C 91.528719 141.0862 90.449372 140.94578 89.25979 140.90125 z M 84.33761 148.27496 L 84.163977 149.92188 C 84.068451 150.82762 83.922616 152.11633 83.839966 152.78579 L 83.689588 154.00277 L 88.444853 154.00277 L 93.199602 154.00277 L 93.025969 152.35636 C 92.930442 151.45063 92.784608 150.16191 92.701958 149.49245 L 92.551579 148.27496 L 88.444853 148.27496 L 84.33761 148.27496 z M 83.499418 156.58039 L 83.305632 159.22984 C 83.199085 160.68688 83.048222 162.1044 82.970252 162.38004 C 82.845339 162.82175 83.193646 162.87638 87.677458 162.88078 L 93.602678 159.4474 C 93.593345 159.3273 93.58457 159.20693 93.575806 159.0867 L 93.392871 156.58039 L 88.446403 156.58039 L 83.499418 156.58039 z M 93.666757 160.22306 L 89.078923 162.8813 L 91.194039 162.8813 L 93.779928 161.3894 C 93.779902 161.38916 93.779954 161.38912 93.779928 161.38888 C 93.743656 161.05463 93.704497 160.65323 93.666757 160.22306 z M 86.567965 165.55039 L 84.422876 165.57933 L 82.637456 166.61337 L 82.528935 167.88099 L 86.567965 165.55039 z M 82.987305 165.59845 L 82.724272 165.60206 L 82.710836 165.75864 L 82.987305 165.59845 z "/><g id="g3-7"><path id="path32878" style="fill:#ffffff;fill-opacity:1;stroke:none;stroke-width:0.0183" d="m 68.486898,157.41342 c -0.07169,-0.002 -0.142177,0.035 -0.180351,0.10128 l -0.708484,1.2299 c -0.05553,0.0965 -0.02237,0.22083 0.0739,0.27647 l 2.613794,1.5105 c 0.09626,0.0556 0.220427,0.022 0.275952,-0.0744 l 0.166915,-0.28991 c 0.01847,-0.0321 0.04901,-0.0555 0.08475,-0.0651 l 0.22686,-0.061 c 0.06342,-0.017 0.100915,-0.0822 0.08371,-0.14573 l -0.06098,-0.22634 c -0.0097,-0.0359 -0.0046,-0.0737 0.01395,-0.10593 l 0.19327,-0.3359 c 0.05553,-0.0964 0.02185,-0.22084 -0.07441,-0.27647 l -2.613277,-1.5105 c -0.03008,-0.0174 -0.06301,-0.0261 -0.0956,-0.0269 z m 0.09302,0.42323 c 0.02147,5.5e-4 0.04314,0.007 0.06305,0.0181 l 0.02325,0.0134 c 0.03459,0.02 0.05813,0.0546 0.0646,0.0941 l 0.113171,0.68833 c 0.0084,0.0514 0.07633,0.0637 0.10232,0.0186 l 0.209806,-0.3638 c 0.03676,-0.0639 0.118172,-0.0859 0.181901,-0.0491 0.06373,0.0368 0.08534,0.11857 0.04858,0.18242 l -0.449068,0.78031 c -0.03675,0.0638 -0.118172,0.0854 -0.181901,0.0486 l -0.0217,-0.0124 c -0.03454,-0.02 -0.05859,-0.0546 -0.06511,-0.094 l -0.114205,-0.68988 c -0.0085,-0.0514 -0.07635,-0.0637 -0.102319,-0.0186 l -0.209806,0.36432 c -0.03675,0.0638 -0.118172,0.0859 -0.181901,0.0491 -0.06371,-0.0368 -0.08585,-0.11859 -0.04909,-0.18242 l 0.449585,-0.78031 c 0.02527,-0.0439 0.07162,-0.0679 0.118856,-0.0667 z m 1.232999,0.75964 c 0.110361,0.004 0.218235,0.0366 0.324012,0.0977 0.08845,0.0511 0.160054,0.11247 0.214974,0.18397 0.02381,0.031 0.04392,0.0636 0.06046,0.0971 0.03509,0.0712 -0.01028,0.15686 -0.09043,0.16846 -0.05143,0.007 -0.10219,-0.0212 -0.12454,-0.0682 -0.03517,-0.074 -0.08968,-0.13238 -0.163814,-0.17518 -0.06443,-0.0372 -0.12933,-0.0564 -0.19482,-0.0584 -0.06556,-0.002 -0.126238,0.0135 -0.182418,0.0465 -0.05617,0.033 -0.102927,0.0811 -0.139527,0.14469 -0.03606,0.0626 -0.05387,0.12652 -0.05426,0.19172 -4e-4,0.0652 0.01589,0.12581 0.04961,0.18191 0.0337,0.056 0.08227,0.10282 0.145727,0.13952 0.03688,0.0213 0.0743,0.0367 0.112138,0.047 0.04026,0.011 0.08212,2.3e-4 0.111621,-0.0269 0.01048,-0.01 0.0087,-0.0271 -0.0036,-0.0341 -0.0671,-0.0388 -0.08861,-0.12664 -0.04496,-0.19224 0.03983,-0.0599 0.121231,-0.0753 0.183451,-0.0393 l 0.115239,0.0667 5.17e-4,5.2e-4 h 5.16e-4 c 4.76e-4,3e-4 0.0016,7.2e-4 0.0021,0.001 l 5.16e-4,5.2e-4 c 7.78e-4,5.6e-4 0.0018,0.001 0.0026,0.002 l 0.0078,0.005 v -5.2e-4 c 0.05675,0.0328 0.07664,0.10546 0.04393,0.16226 l -0.08268,0.14315 c -0.06794,0.11801 -0.204823,0.17996 -0.337447,0.14986 -8e-4,-1.9e-4 -0.0012,-3.3e-4 -0.0021,-5.2e-4 -0.08488,-0.0195 -0.164135,-0.0503 -0.237195,-0.0925 -0.104811,-0.0606 -0.186062,-0.13728 -0.243912,-0.23048 -0.05786,-0.0931 -0.0876,-0.19327 -0.0894,-0.30024 -0.0018,-0.10698 0.02603,-0.21037 0.08372,-0.31057 0.05767,-0.10016 0.133003,-0.17641 0.226343,-0.22841 0.09335,-0.052 0.19551,-0.0758 0.305924,-0.0718 z m 0.929659,0.49041 c 0.02174,5.6e-4 0.0434,0.006 0.06356,0.0181 0.06452,0.0373 0.08683,0.11984 0.04961,0.18448 l -0.447518,0.77721 c -0.03722,0.0646 -0.119964,0.0869 -0.184485,0.0496 -0.06452,-0.0373 -0.08631,-0.11984 -0.04909,-0.18448 l 0.447518,-0.77722 c 0.02559,-0.0444 0.07258,-0.0689 0.120406,-0.0677 z"/><path style="font-variant:normal;font-weight:600;font-stretch:normal;font-size:31.76px;font-family:'Montserrat SemiBold';-inkscape-font-specification:Montserrat-SemiBold;font-variant-ligatures:normal;font-variant-caps:normal;font-variant-numeric:normal;font-feature-settings:normal;text-align:start;writing-mode:lr-tb;text-anchor:start;fill:#ffffff;fill-opacity:1;fill-rule:nonzero;stroke:none;stroke-width:0.0183" d="m 71.667752,160.08586 0.308229,0.17812 -0.03301,0.0573 -0.334005,0.12474 0.202375,0.11695 -0.04123,0.0716 -0.319527,-0.18465 0.03301,-0.0573 0.334005,-0.12474 -0.191077,-0.11042 z" id="path2325"/><path style="font-variant:normal;font-weight:600;font-stretch:normal;font-size:31.76px;font-family:'Montserrat SemiBold';-inkscape-font-specification:Montserrat-SemiBold;font-variant-ligatures:normal;font-variant-caps:normal;font-variant-numeric:normal;font-feature-settings:normal;text-align:start;writing-mode:lr-tb;text-anchor:start;fill:#ffffff;fill-opacity:1;fill-rule:nonzero;stroke:none;stroke-width:0.0183" d="m 72.22502,160.4079 0.25518,0.14746 -0.04123,0.0716 -0.160623,-0.0928 -0.03938,0.0684 0.151045,0.0873 -0.04123,0.0716 -0.151045,-0.0873 -0.04845,0.0841 0.166026,0.0959 -0.04123,0.0716 -0.260582,-0.15058 z" id="path2327"/><path style="font-variant:normal;font-weight:600;font-stretch:normal;font-size:31.76px;font-family:'Montserrat SemiBold';-inkscape-font-specification:Montserrat-SemiBold;font-variant-ligatures:normal;font-variant-caps:normal;font-variant-numeric:normal;font-feature-settings:normal;text-align:start;writing-mode:lr-tb;text-anchor:start;fill:#ffffff;fill-opacity:1;fill-rule:nonzero;stroke:none;stroke-width:0.0183" d="m 72.784287,160.94818 q 0.02972,0.0172 0.04886,0.0135 0.01939,-0.004 0.03398,-0.0289 0.01445,-0.0251 0.0077,-0.0435 -0.0065,-0.0182 -0.03626,-0.0354 l -0.03979,-0.023 -0.05426,0.0942 z m -0.07747,0.0425 -0.08004,0.13902 -0.09456,-0.0547 0.211513,-0.36735 0.144414,0.0834 q 0.07245,0.0419 0.09207,0.0857 0.01987,0.0439 -0.01045,0.0966 -0.02097,0.0364 -0.05211,0.0496 -0.0309,0.0133 -0.07264,0.004 0.01685,0.0156 0.02301,0.0402 0.0065,0.0244 0.004,0.0653 l -0.0087,0.13398 -0.100696,-0.0582 0.0079,-0.11711 q 0.0024,-0.0354 -0.0058,-0.0536 -0.0079,-0.018 -0.03103,-0.0314 z" id="path2329"/><path style="font-variant:normal;font-weight:600;font-stretch:normal;font-size:31.76px;font-family:'Montserrat SemiBold';-inkscape-font-specification:Montserrat-SemiBold;font-variant-ligatures:normal;font-variant-caps:normal;font-variant-numeric:normal;font-feature-settings:normal;text-align:start;writing-mode:lr-tb;text-anchor:start;fill:#ffffff;fill-opacity:1;fill-rule:nonzero;stroke:none;stroke-width:0.0183" d="m 73.437463,161.1912 q -0.04322,-0.025 -0.08547,-0.007 -0.04224,0.0182 -0.07567,0.0763 -0.03329,0.0578 -0.02789,0.10358 0.0054,0.0458 0.04863,0.0707 0.04347,0.0251 0.08571,0.007 0.04224,-0.0182 0.07553,-0.076 0.03343,-0.0581 0.02803,-0.10382 -0.0054,-0.0457 -0.04888,-0.0709 z m 0.03953,-0.0687 q 0.08842,0.0511 0.109335,0.13073 0.02092,0.0796 -0.03051,0.16896 -0.05129,0.0891 -0.130572,0.1108 -0.07929,0.0217 -0.167703,-0.0294 -0.08817,-0.051 -0.109335,-0.13073 -0.02092,-0.0796 0.03037,-0.16872 0.05143,-0.0893 0.130712,-0.11105 0.07953,-0.0216 0.167703,0.0294 z" id="path2331"/></g><g id="g188" transform="matrix(0.26500347,0,0,0.26549077,88.584954,219.39346)" style="fill:#ffffff"><path id="path819" d="m -90.380986,-267.88303 c -1.860633,-0.42536 -3.843711,-1.28502 -4.579975,-1.98541 l -0.683827,-0.6505 v -1.46656 c 0,-2.22572 0.298994,-2.33593 2.793752,-1.02973 2.447421,1.28141 3.849759,1.66306 6.052601,1.64724 1.436702,-0.0103 2.025674,-0.0928 2.78909,-0.39082 2.127656,-0.83047 3.277191,-2.44716 3.280244,-4.61329 0.0035,-2.36359 -1.097648,-3.59116 -4.855129,-5.41336 -5.101112,-2.47381 -5.807307,-2.8938 -7.115375,-4.23168 -2.995007,-3.06328 -3.02124,-8.4365 -0.05568,-11.40418 2.716394,-2.71834 8.198707,-3.44352 12.62406,-1.66987 1.631964,0.65409 2.032475,1.05175 2.18054,2.16504 0.162458,1.22152 -0.0087,2.41629 -0.37945,2.6495 -0.228812,0.14393 -0.675451,-0.0109 -2.081494,-0.72136 -2.241378,-1.13262 -3.608009,-1.4859 -5.341722,-1.38083 -1.660724,0.10063 -2.938015,0.63953 -3.741917,1.57871 -0.688039,0.80382 -0.945056,1.57006 -0.941007,2.80542 0.0074,2.25108 1.26084,3.4076 6.473717,5.97301 5.144885,2.53195 6.350168,3.55063 7.446596,6.29372 0.523782,1.31043 0.510371,4.45206 -0.02534,5.93235 -0.976249,2.69766 -2.94395,4.54687 -5.967079,5.60776 -1.103818,0.38736 -1.588019,0.44678 -4.029885,0.49456 -1.940126,0.038 -3.096552,-0.0192 -3.842737,-0.18972 z m 28.387035,-0.0114 c -3.702727,-0.79794 -6.502556,-2.86976 -8.061461,-5.96533 -2.636342,-5.23507 -2.622355,-13.89286 0.03112,-19.26243 0.673602,-1.3631 1.070608,-1.90348 2.297472,-3.12717 2.038558,-2.03328 4.298047,-3.15796 7.293994,-3.63064 1.457735,-0.22999 4.633866,-0.22813 6.061826,0.003 3.660293,0.59387 6.648039,2.44687 8.387576,5.20198 0.514589,0.81502 1.161809,2.1264 1.161809,2.35402 0,0.036 -1.151327,0.0639 -2.558503,0.0617 l -2.558503,-0.003 -0.520375,-0.79791 c -0.637857,-0.97804 -2.204579,-2.17558 -3.461586,-2.64589 -2.115194,-0.79139 -5.410263,-0.79394 -7.409979,-0.006 -4.189735,1.65145 -6.315848,6.30037 -5.97823,13.07189 0.226851,4.54981 1.163536,7.27227 3.12376,9.07914 1.686259,1.55433 3.469727,2.17179 6.267344,2.16982 0.95402,-6.9e-4 2.115652,-0.0926 2.581406,-0.2043 2.081515,-0.49919 4.089148,-1.97231 5.249116,-3.85161 l 0.631496,-1.02311 h 2.399463 2.399464 l -0.177054,0.46569 c -0.545602,1.43504 -1.741269,3.3743 -2.720388,4.41222 -1.862253,1.97408 -4.11048,3.17825 -6.952968,3.72404 -1.639188,0.31475 -5.975194,0.2996 -7.486795,-0.0262 z m 45.966349,0.0192 c -4.348165,-0.90655 -7.284423,-3.35383 -8.825501,-7.35577 -1.639473,-4.25744 -1.765985,-11.32288 -0.281064,-15.6966 1.444671,-4.25518 4.231321,-7.12404 8.116992,-8.35645 2.060913,-0.65365 3.575965,-0.82935 6.280038,-0.72827 4.163008,0.15563 6.7156428,1.16174 9.1348708,3.60047 2.24257649,2.26064 3.3914623,5.25183 3.8024277,9.89979 0.3870512,4.37756 -0.3006407,8.77007 -1.87086641,11.94984 -0.68289853,1.38288 -1.06625762,1.90018 -2.38419509,3.21717 -1.2834956,1.28255 -1.8398887,1.69965 -3.0448594,2.28252 -2.2865663,1.10606 -3.28024,1.30711 -6.7648526,1.36871 -2.077231,0.0367 -3.391449,-0.0205 -4.16299,-0.18141 z m 6.9267762,-3.85174 c 2.8121341,-0.73226 5.1327462,-3.26586 6.0616699,-6.61801 1.0540947,-3.8038 0.862063,-9.40834 -0.4319777,-12.60779 -0.9163126,-2.26552 -2.5997405,-3.98403 -4.6565594,-4.75358 -1.8690746,-0.69932 -4.83134,-0.79572 -6.774031,-0.22047 -1.906106,0.56441 -4.073952,2.39687 -5.063657,4.28023 -1.149771,2.18796 -1.741693,5.67395 -1.546087,9.10531 0.334821,5.87353 2.100053,9.17879 5.649235,10.57774 1.777236,0.70052 4.600358,0.7993 6.7614072,0.23657 z m -28.5841722,3.74877 c -0.701848,-0.0736 -1.347902,-0.20555 -1.435676,-0.29332 -0.09714,-0.0971 -0.0772,-1.12152 0.05097,-2.61805 l 0.210559,-2.45845 h 4.01136 4.011361 l 0.210559,2.45845 c 0.119836,1.39923 0.145359,2.52366 0.05923,2.60979 -0.390964,0.39096 -4.574301,0.56819 -7.118362,0.30158 z m 46.6699055,0.01 c -0.314904,-0.0746 -0.6271288,-0.19015 -0.6938379,-0.25683 -0.1542382,-0.15419 -0.2634226,-28.30672 -0.1146363,-29.56018 0.1983433,-1.67096 1.0956584,-2.08686 3.9834927,-1.8463 1.681965,0.14011 2.31978,0.46831 3.05191,1.57047 0.53765,0.80937 8.545721,15.69055 11.023449,20.48455 l 1.708701,3.30607 -0.04882,-12.43552 c -0.04363,-11.11911 -0.02,-12.4594 0.223117,-12.66118 0.380843,-0.31609 2.670335,-0.43612 3.444573,-0.18061 l 0.630848,0.2082 v 15.23543 15.23542 l -0.533685,0.44907 c -0.492505,0.41441 -0.661317,0.44906 -2.187979,0.44906 -1.957024,0 -2.659957,-0.29881 -3.51994,-1.49631 -0.612529,-0.85293 -9.90108,-17.96147 -12.042327,-22.18069 l -1.408469,-2.77533 0.05043,12.92262 c 0.02828,7.24998 -0.0166,13.02329 -0.10227,13.15198 -0.311375,0.46777 -2.213289,0.67643 -3.4645585,0.38008 z m -47.6164555,-7.67786 c 0.04203,-0.40546 0.130014,-1.36165 0.195516,-2.12487 l 0.119087,-1.38766 3.489929,-0.0469 3.489929,-0.0469 0.121732,1.78146 c 0.06695,0.97981 0.163639,1.95709 0.214857,2.17175 l 0.09313,0.39028 h -3.900302 -3.900301 z m 0.463969,-5.46393 c 0.04731,-0.16695 0.13891,-1.02557 0.20356,-1.90804 l 0.117548,-1.60448 h 3.001527 3.001527 l 0.110838,1.51776 c 0.06096,0.83476 0.147511,1.69338 0.192333,1.90804 l 0.08149,0.39027 h -3.397422 c -3.15277,0 -3.391229,-0.0218 -3.311407,-0.30355 z m 0.527667,-5.81084 c 0.05015,-0.40546 0.138606,-1.18601 0.196569,-1.73458 l 0.105378,-0.99738 h 2.492029 2.49203 l 0.09119,0.73719 c 0.05015,0.40547 0.138606,1.18602 0.196569,1.73458 l 0.105382,0.99739 h -2.885169 -2.885164 z m 0.450446,-4.78925 c 0,-0.27288 0.04962,-0.85815 0.110255,-1.30058 0.105001,-0.76607 0.144281,-0.81362 0.823926,-0.99745 0.787063,-0.21289 3.15491,-0.12441 3.406607,0.12729 0.08763,0.0876 0.211772,0.72354 0.275864,1.41312 l 0.116525,1.25379 h -2.366589 -2.366588 z m 1.892866,-4.18961 c -0.886389,-0.15279 -1.635353,-0.74893 -1.959869,-1.55998 -0.360905,-0.902 -0.348596,-1.47857 0.05033,-2.35697 0.439709,-0.9682 1.268471,-1.45801 2.465556,-1.45718 1.681151,8.7e-4 2.753558,1.04802 2.753558,2.68795 0,1.81349 -1.466613,3.00385 -3.309573,2.68618 z m 1.122758,-1.58121 c 0.593509,-0.27042 0.879557,-1.00175 0.617115,-1.57775 -0.200923,-0.44098 -0.812021,-0.82816 -1.307108,-0.82816 -0.417628,0 -1.11143,0.8121 -1.11143,1.30094 0,0.48883 0.693802,1.30093 1.11143,1.30093 0.142952,0 0.453447,-0.0882 0.689993,-0.19596 z" style="fill:#ffffff;fill-opacity:1;stroke-width:0.173458"/></g></g></svg>