<?xml version="1.0" encoding="UTF-8" standalone="no"?>
<!-- Created with Inkscape (http://www.inkscape.org/) -->

<svg
   width="44.400162mm"
   height="51.292393mm"
   viewBox="0 0 44.400164 51.292393"
   version="1.1"
   id="svg5"
   sodipodi:docname="pycm.hex.svg"
   inkscape:version="1.3.2 (091e20ef0f, 2023-11-25)"
   xmlns:inkscape="http://www.inkscape.org/namespaces/inkscape"
   xmlns:sodipodi="http://sodipodi.sourceforge.net/DTD/sodipodi-0.dtd"
   xmlns:xlink="http://www.w3.org/1999/xlink"
   xmlns="http://www.w3.org/2000/svg"
   xmlns:svg="http://www.w3.org/2000/svg">
  <sodipodi:namedview
     id="namedview8"
     pagecolor="#ffffff"
     bordercolor="#666666"
     borderopacity="1.0"
     inkscape:pageshadow="2"
     inkscape:pageopacity="0.0"
     inkscape:pagecheckerboard="0"
     inkscape:document-units="mm"
     showgrid="false"
     fit-margin-top="0"
     fit-margin-left="0"
     fit-margin-right="0"
     fit-margin-bottom="0"
     inkscape:zoom="4"
     inkscape:cx="87.75"
     inkscape:cy="117"
     inkscape:window-width="1920"
     inkscape:window-height="1008"
     inkscape:window-x="0"
     inkscape:window-y="0"
     inkscape:window-maximized="1"
     inkscape:current-layer="svg5"
     inkscape:showpageshadow="2"
     inkscape:deskcolor="#d1d1d1" />
  <defs
     id="defs2">
    <linearGradient
       id="linearGradient1"
       inkscape:collect="always">
      <stop
         style="stop-color:#ffffff;stop-opacity:1;"
         offset="0"
         id="stop1" />
      <stop
         style="stop-color:#ffffff;stop-opacity:0;"
         offset="1"
         id="stop2" />
    </linearGradient>
    <linearGradient
       gradientUnits="userSpaceOnUse"
       y2="161.62906"
       x2="79.058426"
       y1="157.91002"
       x1="100.54038"
       id="linearGradient884"
       xlink:href="#linearGradient880" />
    <linearGradient
       id="linearGradient880">
      <stop
         id="stop876"
         offset="0"
         style="stop-color:#784421;stop-opacity:1;" />
      <stop
         id="stop878"
         offset="1"
         style="stop-color:#784421;stop-opacity:0;" />
    </linearGradient>
    <linearGradient
       gradientUnits="userSpaceOnUse"
       y2="187.636"
       x2="162.18832"
       y1="188.57594"
       x1="188.85896"
       id="linearGradient1106"
       xlink:href="#linearGradient880" />
    <linearGradient
       gradientUnits="userSpaceOnUse"
       y2="208.92482"
       x2="-1.8827039"
       y1="261.78836"
       x1="-1.8827039"
       id="linearGradient1408-6"
       xlink:href="#linearGradient1406" />
    <linearGradient
       id="linearGradient1406">
      <stop
         id="stop1402"
         offset="0"
         style="stop-color:#000000;stop-opacity:1;" />
      <stop
         id="stop1404"
         offset="1"
         style="stop-color:#000000;stop-opacity:0;" />
    </linearGradient>
    <radialGradient
       gradientUnits="userSpaceOnUse"
       gradientTransform="matrix(1,0,0,1.4639338,0,-64.581152)"
       r="56.134296"
       fy="127.04554"
       fx="140.49042"
       cy="127.04554"
       cx="140.49042"
       id="radialGradient1608"
       xlink:href="#linearGradient1606" />
    <linearGradient
       id="linearGradient1606">
      <stop
         id="stop1602"
         offset="0"
         style="stop-color:#fdbc5c;stop-opacity:1" />
      <stop
         id="stop1604"
         offset="1"
         style="stop-color:#fdd08c;stop-opacity:0;" />
    </linearGradient>
    <linearGradient
       gradientUnits="userSpaceOnUse"
       y2="276.31"
       y1="233.23"
       x2="529.53003"
       x1="479.79001"
       id="d">
      <stop
         id="stop16254"
         stop-color="#fff"
         offset="0" />
      <stop
         id="stop16256"
         stop-opacity="0"
         stop-color="#fff"
         offset="1" />
    </linearGradient>
    <clipPath
       id="c">
      <path
         id="path16259"
         fill="#009688"
         fill-rule="evenodd"
         d="m 503.51,222.01 c -20.04,0 -36.286,16.246 -36.286,36.286 0,1.925 0.151,3.814 0.44,5.657 1.402,6.762 6.687,9.389 6.687,9.389 1.108,0.908 2.484,1.836 4.073,2.752 l -0.13,-0.004 c 0,0 3.331,18.563 9.444,18.41 4.622,-0.116 8.25,-9.453 14.128,-9.265 5.872,0.188 8.256,9.151 14.1,9.213 3.374,0.036 6.307,-5.744 8.16,-10.528 0.586,-0.12 1.17,-0.25 1.749,-0.392 5.556,5.254 18.398,10.599 23.87,12.412 a 0.533,0.533 0 0 0 0.177,-0.14 c 1.396,-1.82 -7.954,-16.01 -12.983,-23.372 a 36.17,36.17 0 0 0 2.856,-14.132 c 0,-20.04 -16.246,-36.286 -36.286,-36.286 z" />
    </clipPath>
    <filter
       color-interpolation-filters="sRGB"
       height="1.1272249"
       width="1.1135408"
       y="-0.063612454"
       x="-0.056770418"
       id="b">
      <feGaussianBlur
         id="feGaussianBlur16262"
         stdDeviation="7.406" />
    </filter>
    <filter
       color-interpolation-filters="sRGB"
       height="1.071391"
       width="1.072607"
       y="-0.035695516"
       x="-0.036303554"
       id="a">
      <feGaussianBlur
         id="feGaussianBlur16265"
         stdDeviation="1.279" />
    </filter>
    <clipPath
       clipPathUnits="userSpaceOnUse"
       id="clipPath80613">
      <polygon
         points="36.911,66.116 36.911,132.309 36.911,135.321 39.346,136.825 96.715,169.921 99.273,171.419 101.853,169.921 159.319,136.825 161.938,135.321 161.938,132.309 161.938,66.116 161.938,63.104 159.308,61.6 101.841,28.504 99.234,27.006 96.629,28.504 39.347,61.6 36.911,63.104 "
         id="polygon80615"
         style="fill:#77889b;fill-opacity:1"
         transform="matrix(1.4781253,0,0,1.4781253,81.707219,-272.07126)" />
    </clipPath>
    <linearGradient
       xlink:href="#linearGradient5562"
       id="linearGradient5384"
       gradientUnits="userSpaceOnUse"
       gradientTransform="translate(70.650339,-1055.1511)"
       x1="200.59668"
       y1="351.41116"
       x2="290.08701"
       y2="506.18814" />
    <linearGradient
       id="linearGradient5562">
      <stop
         style="stop-color:#699ad7;stop-opacity:1"
         offset="0"
         id="stop5564" />
      <stop
         id="stop5566"
         offset="0.24345198"
         style="stop-color:#7eb1dd;stop-opacity:1" />
      <stop
         style="stop-color:#7ebae4;stop-opacity:1"
         offset="1"
         id="stop5568" />
    </linearGradient>
    <linearGradient
       xlink:href="#linearGradient5053"
       id="linearGradient5386"
       gradientUnits="userSpaceOnUse"
       gradientTransform="translate(864.69589,-1491.3405)"
       x1="-584.19934"
       y1="782.33563"
       x2="-496.29703"
       y2="937.71399" />
    <linearGradient
       id="linearGradient5053">
      <stop
         style="stop-color:#415e9a;stop-opacity:1"
         offset="0"
         id="stop5055" />
      <stop
         id="stop5057"
         offset="0.23168644"
         style="stop-color:#4a6baf;stop-opacity:1" />
      <stop
         style="stop-color:#5277c3;stop-opacity:1"
         offset="1"
         id="stop5059" />
    </linearGradient>
    <linearGradient
       xlink:href="#linearGradient1407"
       id="linearGradient1409"
       x1="-171.06561"
       y1="270.24414"
       x2="-129.89749"
       y2="203.39642"
       gradientUnits="userSpaceOnUse" />
    <linearGradient
       id="linearGradient1407">
      <stop
         style="stop-color:#264d82;stop-opacity:1"
         offset="0"
         id="stop1403" />
      <stop
         style="stop-color:#56a4d7;stop-opacity:1"
         offset="1"
         id="stop1405" />
    </linearGradient>
    <linearGradient
       inkscape:collect="always"
       xlink:href="#linearGradient1"
       id="linearGradient2"
       x1="36.910999"
       y1="99.212502"
       x2="161.938"
       y2="99.212502"
       gradientUnits="userSpaceOnUse" />
  </defs>
  <polygon
     points="36.911,63.104 36.911,66.116 36.911,132.309 36.911,135.321 39.346,136.825 96.715,169.921 99.273,171.419 101.853,169.921 159.319,136.825 161.938,135.321 161.938,132.309 161.938,66.116 161.938,63.104 159.308,61.6 101.841,28.504 99.234,27.006 96.629,28.504 39.347,61.6 "
     id="polygon71814"
     style="fill:#000000;fill-opacity:1;stroke:url(#linearGradient2)"
     transform="matrix(0.35112416,0,0,0.35176889,-12.710344,-9.2969983)" />
  <g
     id="g44"
     transform="matrix(0.02799276,0,0,-0.02799276,129.33441,48.538664)" />
  <g
     id="g3114-6"
     transform="matrix(0.37307209,0,0,0.37307209,-7.107903,-19.546674)"
     style="fill:#ffffff">
    <path
       id="path30-2"
       style="fill:#ffffff;fill-opacity:1;stroke:none;stroke-width:0.056338"
       d="m 69.17227,168.67724 c -0.342463,0 -0.62298,0.28056 -0.62298,0.62299 v 4.36713 c 0,0.34246 0.280517,0.62298 0.62298,0.62298 h 9.297955 c 0.342425,0 0.621944,-0.28056 0.621944,-0.62298 v -1.0286 c 0,-0.11392 0.0452,-0.22307 0.125858,-0.30369 l 0.512739,-0.51274 c 0.143093,-0.14306 0.142412,-0.37429 -0.0011,-0.5169 l -0.510664,-0.50858 c -0.08111,-0.0806 -0.126878,-0.19037 -0.126878,-0.30474 v -1.19189 c 0,-0.34242 -0.279534,-0.62298 -0.621944,-0.62298 z m 6.077998,0.94956 c 0.314646,0 0.600484,0.0531 0.856989,0.15912 0.111194,0.046 0.214148,0.10137 0.309921,0.16535 0.203036,0.13561 0.213733,0.43425 0.01776,0.58867 -0.12582,0.0991 -0.304932,0.10019 -0.436819,0.009 -0.207609,-0.14298 -0.443505,-0.21426 -0.707225,-0.21426 -0.229191,0 -0.432699,0.0479 -0.6105,0.14351 -0.177902,0.0959 -0.315779,0.23112 -0.41498,0.40562 -0.09921,0.17443 -0.149783,0.3744 -0.149783,0.6001 0,0.22239 0.05053,0.42048 0.149783,0.5949 0.09921,0.17443 0.236711,0.31023 0.412898,0.4077 0.176126,0.0975 0.376441,0.14664 0.602181,0.14664 0.131225,0 0.255496,-0.0159 0.372321,-0.0468 0.124271,-0.0329 0.218797,-0.12574 0.255836,-0.24336 0.01323,-0.0417 -0.01852,-0.0842 -0.0624,-0.0842 -0.238715,0 -0.430639,-0.20206 -0.414977,-0.4441 0.01436,-0.22084 0.208177,-0.38793 0.429536,-0.38793 h 0.409772 c 0.0037,0 0.0079,0.001 0.01134,0.001 0.0037,-1.1e-4 0.0068,-0.001 0.0102,-0.001 h 0.0291 c 0.201865,0 0.365065,0.16429 0.365065,0.36608 v 0.50962 c 0,0.41899 -0.269556,0.7943 -0.669785,0.91836 -0.0027,5.3e-4 -0.0049,0.001 -0.0072,0.002 -0.256554,0.0787 -0.514945,0.11754 -0.774829,0.11754 -0.372851,0 -0.708144,-0.0791 -1.005721,-0.23819 -0.297562,-0.15904 -0.53065,-0.37926 -0.699942,-0.66146 -0.169285,-0.28218 -0.253795,-0.60106 -0.253795,-0.95684 0,-0.35565 0.08447,-0.67469 0.253795,-0.95683 0.169285,-0.28222 0.404069,-0.50352 0.705142,-0.66251 0.300851,-0.15904 0.639837,-0.23818 1.016123,-0.23818 z m -5.279248,0.0614 h 0.08217 c 0.123061,0 0.239282,0.0556 0.317216,0.1508 l 1.360373,1.65991 c 0.101518,0.12404 0.302664,0.0531 0.302664,-0.10711 v -1.29277 c 0,-0.2267 0.183081,-0.41082 0.409777,-0.41082 0.226696,0 0.410819,0.1841 0.410819,0.41082 v 2.77066 c 0,0.22666 -0.184101,0.40978 -0.410819,0.40978 h -0.07695 c -0.122872,0 -0.239244,-0.0548 -0.317215,-0.14979 l -1.36557,-1.66198 c -0.101632,-0.12377 -0.302665,-0.052 -0.302665,0.10817 v 1.29381 c 0,0.22666 -0.18308,0.40978 -0.409784,0.40978 -0.226658,0 -0.410812,-0.18312 -0.410812,-0.40978 v -2.77066 c 0,-0.2267 0.184177,-0.41082 0.410812,-0.41082 z m 7.695258,0 c 0.229531,0 0.416016,0.18648 0.416016,0.41602 v 2.76027 c 0,0.22953 -0.186481,0.41497 -0.416016,0.41497 -0.229531,0 -0.414977,-0.18546 -0.414977,-0.41497 v -2.76027 c 0,-0.22953 0.185461,-0.41602 0.414977,-0.41602 z" />
    <g
       aria-label="Z E R O"
       transform="matrix(0.05633821,0,0,0.05633821,67.750922,175.08921)"
       style="font-variant:normal;font-weight:600;font-stretch:normal;font-size:31.76px;font-family:'Montserrat SemiBold';-inkscape-font-specification:Montserrat-SemiBold;font-variant-ligatures:normal;font-variant-caps:normal;font-variant-numeric:normal;font-feature-settings:normal;text-align:start;writing-mode:lr-tb;text-anchor:start;fill:#ffffff;fill-opacity:1;fill-rule:nonzero;stroke:none"
       id="text56-3">
      <path
         style="fill:#ffffff;fill-opacity:1"
         d="m 243.58117,-73.015206 h 19.46231 v 3.613321 l -12.42176,15.02707 h 12.77844 v 4.512774 h -20.17567 v -3.613321 l 12.42176,-15.02707 h -12.06508 z"
         id="path2325-8" />
      <path
         style="fill:#ffffff;fill-opacity:1"
         d="m 278.7684,-73.015206 h 16.11262 v 4.512774 h -10.14211 v 4.311172 h 9.5373 v 4.512773 h -9.5373 v 5.303672 h 10.48328 v 4.512774 H 278.7684 Z"
         id="path2327-6" />
      <path
         style="fill:#ffffff;fill-opacity:1"
         d="m 320.00367,-62.749034 q 1.87645,0 2.68285,-0.697851 0.82192,-0.697852 0.82192,-2.295157 0,-1.581796 -0.82192,-2.26414 -0.8064,-0.682344 -2.68285,-0.682344 h -2.51226 v 5.939492 z m -2.51226,4.125078 v 8.761915 h -5.97051 v -23.153165 h 9.11859 q 4.57481,0 6.69938,1.535274 2.14008,1.535273 2.14008,4.853945 0,2.295156 -1.11657,3.768399 -1.10105,1.473242 -3.33418,2.171093 1.22512,0.279141 2.18661,1.271641 0.97699,0.976992 1.96949,2.9775 l 3.24113,6.575313 h -6.3582 l -2.82242,-5.753399 q -0.85293,-1.736875 -1.73688,-2.372695 -0.86844,-0.635821 -2.32617,-0.635821 z"
         id="path2329-2" />
      <path
         style="fill:#ffffff;fill-opacity:1"
         d="m 357.57911,-69.107237 q -2.72938,0 -4.23364,2.016016 -1.50425,2.016015 -1.50425,5.675859 0,3.644336 1.50425,5.660352 1.50426,2.016015 4.23364,2.016015 2.74488,0 4.24914,-2.016015 1.50426,-2.016016 1.50426,-5.660352 0,-3.659844 -1.50426,-5.675859 -1.50426,-2.016016 -4.24914,-2.016016 z m 0,-4.32668 q 5.58281,0 8.7464,3.19461 3.1636,3.194609 3.1636,8.823945 0,5.613828 -3.1636,8.808438 -3.16359,3.194609 -8.7464,3.194609 -5.56731,0 -8.74641,-3.194609 -3.16359,-3.19461 -3.16359,-8.808438 0,-5.629336 3.16359,-8.823945 3.1791,-3.19461 8.74641,-3.19461 z"
         id="path2331-7" />
    </g>
  </g>
  <path
     style="fill:#000000;stroke-width:0.3175"
     id="path12-3"
     d="" />
  <path
     style="fill:#fdd33a;stroke:#ffffff;stroke-width:0.5;stroke-dasharray:none;stroke-opacity:1"
     d="m 27.003625,32.267403 c -0.789858,-0.09624 -1.417821,-0.70177 -1.551887,-1.496438 -0.01336,-0.07919 -0.01419,-0.199823 -0.01419,-2.065916 0,-2.186655 -0.0037,-2.013405 0.04773,-2.216416 0.113656,-0.448365 0.395076,-0.832484 0.794244,-1.084087 0.211246,-0.133153 0.489485,-0.229395 0.744356,-0.25747 0.05266,-0.0058 0.68282,-0.0084 1.985785,-0.0083 2.026667,1.87e-4 1.963199,-9.38e-4 2.14674,0.03627 0.21451,0.04345 0.465663,0.15195 0.647573,0.279766 0.198982,0.139812 0.379629,0.330893 0.508202,0.537556 0.130868,0.210349 0.228027,0.500149 0.253987,0.757571 0.01148,0.113853 0.01148,3.804402 0,3.918255 -0.06213,0.616096 -0.440812,1.159239 -0.996512,1.429298 -0.163219,0.07932 -0.301249,0.124316 -0.492474,0.160537 -0.0869,0.01646 -0.09811,0.01656 -2.037415,0.01823 -1.575106,0.0014 -1.966597,-3.75e-4 -2.036139,-0.0088 z m -0.01498,-14.289819 c -0.125381,-0.0171 -0.201754,-0.03476 -0.324549,-0.07507 -0.591191,-0.194066 -1.034051,-0.673556 -1.182881,-1.28072 -0.05075,-0.207027 -0.04853,-0.09847 -0.04591,-2.246169 0.0026,-2.165808 -0.0023,-1.966227 0.05374,-2.188335 0.09727,-0.385723 0.339461,-0.743234 0.669053,-0.987617 0.257429,-0.190874 0.570546,-0.311147 0.891299,-0.342359 0.120649,-0.01174 3.788589,-0.01174 3.909238,0 0.207711,0.02021 0.420231,0.08066 0.611015,0.173798 0.559492,0.273131 0.936492,0.817052 0.996809,1.438159 0.0064,0.06539 0.008,0.637617 0.0059,2.013586 -0.0029,1.90777 -0.003,1.922898 -0.01945,2.009614 -0.05539,0.292749 -0.152244,0.525722 -0.312148,0.750835 -0.285152,0.401436 -0.734218,0.670479 -1.225602,0.734277 -0.08211,0.01066 -0.332778,0.01207 -2.021529,0.01135 -1.553433,-6.57e-4 -1.942792,-0.0029 -2.005037,-0.01135 z"
     id="path183" />
  <path
     style="fill:#2f6897;fill-opacity:1;stroke:#ffffff;stroke-width:0.5;stroke-dasharray:none;stroke-opacity:1"
     d="m 13.574467,32.274117 c -0.224666,-0.02303 -0.423201,-0.07926 -0.623536,-0.176624 -0.555699,-0.27006 -0.934381,-0.813202 -0.996512,-1.429298 -0.01159,-0.114967 -0.01147,-3.804956 9.4e-5,-3.918255 0.05791,-0.565514 0.373083,-1.063911 0.857367,-1.355775 0.194159,-0.117015 0.380615,-0.187163 0.619577,-0.233095 l 0.09135,-0.01756 1.965928,-0.0049 c 1.499093,-0.0038 1.981016,-0.0073 2.029473,-0.01475 0.424755,-0.06555 0.744532,-0.228978 1.045871,-0.534513 0.302192,-0.306401 0.470384,-0.651896 0.514497,-1.056863 0.0057,-0.05203 0.0084,-0.693127 0.0084,-1.970135 0,-2.064892 0.0017,-1.981147 -0.04501,-2.178483 -0.07067,-0.298373 -0.203591,-0.545914 -0.420897,-0.783868 -0.341956,-0.374446 -0.73082,-0.567272 -1.214066,-0.602019 -0.06983,-0.005 -0.798898,-0.008 -1.959563,-0.0081 -2.0158,-7.6e-5 -1.92458,0.0019 -2.123212,-0.04504 -0.399472,-0.09432 -0.767622,-0.333706 -1.013034,-0.65871 -0.177444,-0.234993 -0.285618,-0.484764 -0.343702,-0.793602 -0.01627,-0.08654 -0.01646,-0.105787 -0.01935,-2.009613 -0.0021,-1.37597 -3.75e-4,-1.9482 0.0059,-2.013587 0.04018,-0.413784 0.220924,-0.797993 0.514358,-1.093389 0.29071,-0.292656 0.682814,-0.478608 1.093465,-0.518568 0.120648,-0.01174 3.78859,-0.01174 3.909238,0 0.320752,0.03121 0.63387,0.151485 0.891299,0.34236 0.329693,0.244456 0.568713,0.59701 0.668277,0.985703 0.05648,0.220506 0.05143,0.02323 0.05649,2.206134 0.0049,2.132708 0.002,1.994124 0.04656,2.198266 0.08943,0.409756 0.351866,0.794432 0.733676,1.075419 0.203251,0.149579 0.444472,0.251699 0.71283,0.301771 l 0.09929,0.01853 1.965927,0.0049 c 1.08126,0.0027 1.978438,0.0074 1.993729,0.01045 0.01529,0.003 0.06176,0.01085 0.10326,0.01736 0.428095,0.06716 0.858495,0.326349 1.120531,0.674802 0.192771,0.256344 0.304874,0.522805 0.354095,0.841656 0.01402,0.09083 0.01471,0.186075 0.01471,2.021529 0,2.069614 0.0016,1.982439 -0.04097,2.17642 -0.06087,0.277097 -0.194497,0.54651 -0.382143,0.770485 -0.235853,0.281518 -0.577191,0.493368 -0.93516,0.580404 -0.221453,0.05384 -0.05751,0.04978 -2.228051,0.05523 -1.944757,0.0049 -1.966868,0.0051 -2.053301,0.02139 -0.360139,0.06784 -0.628905,0.201265 -0.895073,0.444338 -0.339393,0.309943 -0.519264,0.639948 -0.592268,1.086616 -0.01174,0.07185 -0.01353,0.275747 -0.01796,2.049689 -0.0049,1.95726 -0.005,1.970439 -0.02155,2.054097 -0.05179,0.262183 -0.13832,0.478784 -0.271191,0.678865 -0.180061,0.271145 -0.409461,0.474292 -0.700083,0.619966 -0.116752,0.05852 -0.215124,0.09477 -0.35347,0.130233 -0.228021,0.05846 -0.111781,0.05564 -2.235995,0.05423 -1.046309,-6.57e-4 -1.914892,-0.0025 -1.930183,-0.0041 z"
     id="path355" />
  <path
     style="opacity:0.4;fill:#fdd33a;stroke:#ffffff;stroke-width:0.5;stroke-dasharray:none;stroke-opacity:1"
     d="m 5.3077906,32.267403 c -0.789858,-0.09624 -1.4178207,-0.70177 -1.5518867,-1.496438 -0.01336,-0.07919 -0.01419,-0.199823 -0.01419,-2.065916 0,-2.186655 -0.0037,-2.013405 0.04773,-2.216416 0.113656,-0.448365 0.395076,-0.832484 0.7942437,-1.084087 0.211246,-0.133153 0.489485,-0.229395 0.744356,-0.25747 0.05266,-0.0058 0.68282,-0.0084 1.985785,-0.0083 2.026667,1.87e-4 1.963199,-9.38e-4 2.14674,0.03627 0.21451,0.04345 0.4656627,0.15195 0.6475724,0.279766 0.198982,0.139812 0.379629,0.330893 0.508202,0.537556 0.130868,0.210349 0.228027,0.500149 0.253987,0.757571 0.01148,0.113853 0.01148,3.804402 0,3.918255 -0.06213,0.616096 -0.440812,1.159239 -0.9965117,1.429298 -0.1632187,0.07932 -0.3012487,0.124316 -0.4924737,0.160537 -0.0869,0.01646 -0.09811,0.01656 -2.037415,0.01823 -1.575106,0.0014 -1.966597,-3.75e-4 -2.036139,-0.0088 z m -0.01498,-14.289819 c -0.125381,-0.0171 -0.201754,-0.03476 -0.324549,-0.07507 -0.5911907,-0.194066 -1.0340507,-0.673556 -1.1828807,-1.28072 -0.05075,-0.207027 -0.04853,-0.09847 -0.04591,-2.246169 0.0026,-2.165808 -0.0023,-1.966227 0.05374,-2.188335 0.09727,-0.385723 0.339461,-0.743234 0.6690527,-0.987617 0.257429,-0.190874 0.570546,-0.311147 0.891299,-0.342359 0.120649,-0.01174 3.788589,-0.01174 3.909238,0 0.207711,0.02021 0.420231,0.08066 0.6110147,0.173798 0.5594917,0.273131 0.9364917,0.817052 0.9968087,1.438159 0.0064,0.06539 0.008,0.637617 0.0059,2.013586 -0.0029,1.90777 -0.003,1.922898 -0.01945,2.009614 -0.05539,0.292749 -0.152244,0.525722 -0.312148,0.750835 -0.285152,0.401436 -0.7342177,0.670479 -1.2256014,0.734277 -0.08211,0.01066 -0.332778,0.01207 -2.021529,0.01135 -1.553433,-6.57e-4 -1.942792,-0.0029 -2.005037,-0.01135 z"
     id="path16" />
  <path
     id="path17"
     style="opacity:0.4;fill:#2f6897;fill-opacity:1;stroke:#ffffff;stroke-width:0.5;stroke-dasharray:none;stroke-opacity:1"
     d="m 0.25,17.98883 v 7.152535 c 0.25294567,-7.81e-4 0.30491647,-0.0016 0.69969889,-0.0026 2.17053881,-0.0054 2.00631821,-0.0015 2.22777101,-0.05529 0.3579686,-0.08704 0.6994906,-0.298809 0.9353434,-0.580326 0.1876458,-0.223975 0.3215357,-0.493399 0.3824056,-0.770496 0.04257,-0.193981 0.040824,-0.106999 0.040824,-2.176611 0,-1.835453 -9.662e-4,-1.930753 -0.014986,-2.021582 C 4.4718362,19.215622 4.3598444,18.949524 4.1670736,18.69318 3.9050378,18.344728 3.4748231,18.085446 3.0467285,18.018286 c -0.0415,-0.0065 -0.088063,-0.01457 -0.1033528,-0.01757 -0.015291,-0.003 -0.9124179,-0.0076 -1.99367681,-0.01033 z" />
  <path
     id="path18"
     style="opacity:0.4;fill:#2f6897;fill-opacity:1;stroke:#ffffff;stroke-width:0.5;stroke-dasharray:none;stroke-opacity:1"
     d="m 37.212085,10.848698 c -0.947147,0 -1.894079,0.0029 -1.954403,0.0088 -0.41065,0.03996 -0.802763,0.225659 -1.093473,0.518314 -0.293434,0.295396 -0.474001,0.67969 -0.514181,1.093474 -0.0063,0.06539 -0.0083,0.637862 -0.0062,2.01383 0.0029,1.903824 0.0034,1.92264 0.01964,2.00918 0.05808,0.308838 0.166205,0.558757 0.343649,0.79375 0.245411,0.325004 0.613386,0.564555 1.012858,0.658874 0.198632,0.04694 0.107586,0.04488 2.123384,0.04496 1.160664,10e-5 1.889741,0.0033 1.959571,0.0083 0.483245,0.03475 0.871923,0.227585 1.213879,0.602031 0.217306,0.237953 0.350493,0.485558 0.421163,0.783931 0.04671,0.197336 0.04496,0.113272 0.04496,2.178162 0,1.277006 -0.0026,1.918392 -0.0083,1.970422 -0.04411,0.404967 -0.212505,0.750382 -0.514697,1.056783 -0.301339,0.305535 -0.621176,0.468785 -1.045931,0.534334 -0.04846,0.0074 -0.530242,0.01119 -2.029334,0.01499 l -1.966288,0.0047 -0.09095,0.01757 c -0.238962,0.04593 -0.425442,0.116045 -0.619601,0.23306 -0.484283,0.291864 -0.799402,0.790476 -0.857312,1.35599 -0.01156,0.113299 -0.01211,3.80314 -5.17e-4,3.918107 0.06213,0.616095 0.44114,1.15931 0.996839,1.42937 0.200335,0.09736 0.398552,0.153703 0.623218,0.176733 0.01529,0.0016 0.883806,0.0035 1.930114,0.0041 2.124212,0.0014 2.008019,0.0042 2.23604,-0.05426 0.138345,-0.03546 0.236715,-0.0717 0.353466,-0.130224 0.290622,-0.145674 0.520155,-0.348973 0.700216,-0.620118 0.132871,-0.20008 0.219511,-0.416845 0.271301,-0.679028 0.01655,-0.08366 0.0168,-0.09688 0.0217,-2.054138 0.0044,-1.77394 0.0058,-1.977637 0.01757,-2.049487 0.073,-0.446668 0.25282,-0.776813 0.592212,-1.086756 0.266168,-0.243072 0.534898,-0.376577 0.895036,-0.444417 0.08164,-0.01539 0.221242,-0.01647 1.862419,-0.02067 v -7.149434 l -1.774569,-0.0041 -0.09974,-0.0186 c -0.268358,-0.05007 -0.509368,-0.152211 -0.712618,-0.30179 -0.38181,-0.280987 -0.644376,-0.665631 -0.733806,-1.075387 -0.04456,-0.204141 -0.04161,-0.06561 -0.04651,-2.198315 -0.0051,-2.182902 1.53e-4,-1.985561 -0.05633,-2.206067 -0.09956,-0.388692 -0.338483,-0.74153 -0.668176,-0.985986 -0.257429,-0.190875 -0.570667,-0.310888 -0.891419,-0.342098 -0.06032,-0.0059 -1.007772,-0.0088 -1.954919,-0.0088 z" />
  <path
     style="opacity:0.4;fill:#fdd33a;stroke:#ffffff;stroke-width:0.5;stroke-dasharray:none;stroke-opacity:1"
     d="m 18.747434,9.8406394 c -0.789858,-0.09624 -1.417821,-0.7017692 -1.551887,-1.4964369 -0.01336,-0.07919 -0.01419,-0.199823 -0.01419,-2.065916 0,-2.186655 -0.0037,-2.013405 0.04773,-2.216416 0.113656,-0.4483647 0.395076,-0.8324837 0.794244,-1.0840867 0.211246,-0.133153 0.489485,-0.229395 0.744356,-0.25747 0.05266,-0.0058 0.68282,-0.0084 1.985785,-0.0083 2.026667,1.87e-4 1.963199,-9.38e-4 2.14674,0.03627 0.21451,0.04345 0.465663,0.15195 0.647573,0.279766 0.198982,0.139812 0.379629,0.330893 0.508202,0.537556 0.130868,0.2103487 0.228027,0.5001487 0.253987,0.7575707 0.01148,0.113853 0.01148,3.804402 0,3.918255 -0.06213,0.616096 -0.440812,1.1592387 -0.996512,1.4292974 -0.163219,0.079319 -0.301249,0.1243155 -0.492474,0.1605365 -0.0869,0.01646 -0.09811,0.01656 -2.037415,0.01823 -1.575106,0.0014 -1.966597,-3.75e-4 -2.036139,-0.0088 z"
     id="path19"
     sodipodi:nodetypes="csscssccssscssccc" />
  <path
     id="path20"
     style="opacity:0.4;fill:#2f6897;fill-opacity:1;stroke:#ffffff;stroke-width:0.5;stroke-dasharray:none;stroke-opacity:1"
     d="M 10.829199,6.7435221 5.4667358,9.8477254 c 0.1314925,0.0015 0.8158946,0.00301 1.7818034,0.00362 2.1242114,0.00141 2.0080184,0.0042 2.2360393,-0.05426 C 9.6229243,9.7616191 9.7212934,9.7253779 9.8380452,9.6668579 10.128667,9.5211841 10.357683,9.3184022 10.537744,9.0472575 10.670615,8.847177 10.757255,8.6304119 10.809045,8.3682292 c 0.0145,-0.073273 0.01662,-0.3059918 0.02015,-1.6247071 z" />
  <path
     id="path22"
     style="opacity:0.4;fill:#2f6897;fill-opacity:1;stroke:#ffffff;stroke-width:0.5;stroke-dasharray:none;stroke-opacity:1"
     d="m 26.630302,2.7964762 c -0.133102,0.04237 -0.255022,0.096458 -0.378788,0.171049 -0.484285,0.2918637 -0.799402,0.7899594 -0.857312,1.3554728 -0.01156,0.1132989 -0.01159,3.803657 0,3.9186239 0.06213,0.6160954 0.440623,1.1587939 0.996321,1.4288534 0.200335,0.097363 0.399069,0.1537034 0.623735,0.1767334 0.01529,0.0016 0.883807,0.00348 1.930115,0.00413 2.12421,0.00141 2.008017,0.0042 2.236039,-0.05426 0.138346,-0.035463 0.236715,-0.071705 0.353467,-0.1302246 0.290621,-0.1456738 0.519638,-0.3484557 0.699698,-0.6196004 0.132871,-0.2000805 0.219512,-0.4168456 0.271302,-0.6790283 0.01655,-0.083658 0.0168,-0.09688 0.0217,-2.0541382 1.53e-4,-0.061465 3.69e-4,-0.057483 5.17e-4,-0.1152385 z" />
  <path
     id="path23"
     style="opacity:0.4;fill:#fdd33a;stroke:#ffffff;stroke-width:0.5;stroke-dasharray:none;stroke-opacity:1"
     d="m 20.747974,33.40081 c -0.947147,0 -1.894595,0.0029 -1.95492,0.0088 -0.320752,0.03121 -0.633473,0.151741 -0.890901,0.342614 -0.329592,0.244384 -0.57194,0.601813 -0.66921,0.987537 -0.05604,0.222108 -0.05114,0.02269 -0.05374,2.188497 -0.0026,2.147697 -0.0048,2.038831 0.04599,2.245858 0.14883,0.607163 0.591683,1.086993 1.182874,1.281058 0.122795,0.04031 0.199147,0.05783 0.324528,0.07493 0.06224,0.0084 0.451614,0.01071 2.005045,0.01137 1.68875,7.2e-4 1.939472,-7.09e-4 2.021582,-0.01137 0.491384,-0.0638 0.940097,-0.332886 1.225249,-0.734322 0.159903,-0.225113 0.256735,-0.45811 0.312125,-0.750858 0.01645,-0.08672 0.01674,-0.101929 0.01964,-2.009697 0.0021,-1.375968 1.99e-4,-1.947924 -0.0062,-2.013314 -0.06032,-0.621106 -0.43683,-1.165024 -0.996322,-1.438155 -0.190783,-0.09314 -0.403621,-0.153939 -0.611332,-0.174149 -0.06032,-0.0059 -1.007256,-0.0088 -1.954402,-0.0088 z m 0.0057,14.2906 c -1.302964,-10e-5 -1.933265,0.0025 -1.985925,0.0083 -0.254871,0.02808 -0.533412,0.124196 -0.744658,0.257349 -0.172762,0.108895 -0.321374,0.243869 -0.445967,0.396875 l 3.67161,2.121834 0.898137,0.5271 0.905888,-0.5271 1.259354,-0.72657 c -0.001,-0.09547 -7.57e-4,-0.434012 -0.0021,-0.447001 -0.02596,-0.257422 -0.12338,-0.547228 -0.254248,-0.757577 -0.128573,-0.206663 -0.308997,-0.397623 -0.507979,-0.537435 -0.18191,-0.127816 -0.432996,-0.236119 -0.647506,-0.279569 -0.183541,-0.03721 -0.119974,-0.03599 -2.146639,-0.03617 z" />
  <path
     id="path24"
     style="opacity:0.4;fill:#2f6897;fill-opacity:1;stroke:#ffffff;stroke-width:0.5;stroke-dasharray:none;stroke-opacity:1"
     d="m 7.2604248,33.40081 c -0.9471464,0 -1.8945955,0.0029 -1.9549194,0.0088 -0.4106506,0.03996 -0.8027636,0.226174 -1.0934733,0.518831 -0.2934338,0.295397 -0.4740006,0.67969 -0.5141805,1.093473 -0.00628,0.06539 -0.00778,0.637345 -0.00568,2.013314 0.00289,1.903824 0.00285,1.923157 0.01912,2.009697 0.058084,0.308837 0.1662045,0.558757 0.3436483,0.79375 0.2454119,0.325003 0.6133865,0.564037 1.0128581,0.658357 0.1986318,0.04694 0.1075865,0.0454 2.1233846,0.04548 1.1606634,10e-5 1.8897404,0.0028 1.9595703,0.0078 0.4832456,0.03475 0.8719241,0.227585 1.2138791,0.60203 0.217306,0.237954 0.350493,0.485559 0.421163,0.783932 0.04671,0.197336 0.04496,0.113788 0.04496,2.178678 0,0.219758 -0.0014,0.156665 -0.0016,0.338998 l 5.568136,3.217891 c 0.08977,-0.0076 0.146014,-0.01763 0.220141,-0.03566 0.357969,-0.08704 0.698974,-0.298808 0.934827,-0.580326 0.187646,-0.223975 0.321536,-0.493399 0.382406,-0.770496 0.04257,-0.19398 0.04082,-0.106999 0.04082,-2.176611 0,-1.835452 -4.49e-4,-1.930752 -0.01447,-2.021582 -0.04922,-0.318851 -0.16173,-0.585465 -0.354501,-0.841809 -0.262035,-0.348453 -0.69225,-0.607217 -1.120345,-0.674377 -0.0415,-0.0065 -0.08806,-0.01457 -0.103353,-0.01757 -0.01529,-0.0031 -0.912417,-0.0076 -1.993676,-0.01034 l -1.965772,-0.0052 -0.09922,-0.0186 c -0.268357,-0.05007 -0.509884,-0.152211 -0.713134,-0.30179 -0.381811,-0.280987 -0.643859,-0.665631 -0.733289,-1.075387 -0.04456,-0.204142 -0.04213,-0.06561 -0.04702,-2.198315 -0.0051,-2.182901 1.52e-4,-1.985561 -0.05633,-2.206067 -0.09956,-0.388694 -0.338483,-0.741013 -0.668176,-0.98547 -0.2574288,-0.190874 -0.5706665,-0.311404 -0.8914183,-0.342614 -0.060324,-0.0059 -1.0072562,-0.0088 -1.9544027,-0.0088 z" />
  <path
     id="path25"
     style="opacity:0.4;fill:#fdd33a;stroke:#ffffff;stroke-width:0.5;stroke-dasharray:none;stroke-opacity:1"
     d="m 42.443807,33.40081 c -0.947146,0 -1.894595,0.0029 -1.954919,0.0088 -0.320753,0.03121 -0.633473,0.151741 -0.890902,0.342614 -0.329592,0.244384 -0.57194,0.601813 -0.66921,0.987537 -0.05604,0.222108 -0.05114,0.02269 -0.05374,2.188497 -0.0026,2.147697 -0.0048,2.038831 0.04599,2.245858 0.148829,0.607163 0.591683,1.086993 1.182873,1.281058 0.08297,0.02724 0.148565,0.04296 0.218591,0.05633 l 2.907833,-1.677934 0.919841,-0.52865 v -1.059884 -3.838008 c -0.297726,-0.0038 -0.941353,-0.0062 -1.706356,-0.0062 z" />
  <path
     id="path26"
     style="opacity:0.4;fill:#2f6897;fill-opacity:1;stroke:#ffffff;stroke-width:0.5;stroke-dasharray:none;stroke-opacity:1"
     d="m 28.956258,33.40081 c -0.947146,0 -1.894595,0.0029 -1.954919,0.0088 -0.410651,0.03996 -0.802764,0.226174 -1.093474,0.518831 -0.293434,0.295397 -0.474,0.67969 -0.51418,1.093473 -0.0063,0.06539 -0.0078,0.637345 -0.0057,2.013314 0.0029,1.903824 0.0029,1.923157 0.01912,2.009697 0.05808,0.308837 0.166204,0.558757 0.343648,0.79375 0.245413,0.325003 0.613387,0.564037 1.012858,0.658357 0.198632,0.04694 0.107587,0.0454 2.123385,0.04548 1.160664,10e-5 1.88974,0.0028 1.95957,0.0078 0.483247,0.03475 0.871924,0.227585 1.213879,0.60203 0.217306,0.237954 0.350493,0.485559 0.421163,0.783932 0.04671,0.197336 0.04496,0.113788 0.04496,2.178678 0,0.581219 -0.0025,0.574414 -0.0036,0.896586 l 6.697266,-3.864363 c -0.264655,-0.297952 -0.65177,-0.515572 -1.038179,-0.576192 -0.0415,-0.0065 -0.08806,-0.01457 -0.103353,-0.01757 -0.01529,-0.0031 -0.912418,-0.0076 -1.993677,-0.01034 l -1.965772,-0.0052 -0.09922,-0.0186 c -0.268358,-0.05007 -0.509884,-0.152211 -0.713135,-0.30179 -0.381811,-0.280987 -0.643859,-0.665631 -0.733289,-1.075387 -0.04456,-0.204142 -0.04212,-0.06561 -0.04702,-2.198315 -0.0051,-2.182901 1.52e-4,-1.985561 -0.05633,-2.206067 -0.09956,-0.388694 -0.338484,-0.741013 -0.668177,-0.98547 -0.257428,-0.190874 -0.570666,-0.311404 -0.891418,-0.342614 -0.06032,-0.0059 -1.007257,-0.0088 -1.954403,-0.0088 z m -1.081588,14.292667 -0.912089,0.0026 -0.09147,0.01757 c -0.238962,0.04593 -0.425442,0.116046 -0.6196,0.233061 -0.427357,0.257555 -0.722389,0.676206 -0.82579,1.159619 z" />
  <g
     id="g1"
     style="fill:#ffffff"
     transform="translate(0.25,0.20283611)">
    <path
       style="fill:#ffffff;fill-opacity:1;stroke-width:0.00794314"
       d="m 26.869493,36.801712 0.002,-2.066345 0.142977,-0.102362 c 0.467588,-0.334763 0.751603,-0.487989 1.084239,-0.584943 0.342415,-0.09981 0.803004,-0.135067 1.102342,-0.08439 0.320968,0.05433 0.606137,0.191234 0.812089,0.389857 l 0.05971,0.05758 0.08724,-0.05154 c 0.444645,-0.262673 0.862527,-0.390075 1.362866,-0.415503 0.321508,-0.01634 0.574596,0.03321 0.845193,0.165488 0.392308,0.191769 0.644329,0.499456 0.737066,0.899869 l 0.01707,0.07373 0.0024,1.892453 0.0024,1.892453 h -0.401289 -0.401287 v -0.276023 c 0,-1.172692 -0.0099,-3.036541 -0.01667,-3.135555 -0.02081,-0.306268 -0.103056,-0.526954 -0.259307,-0.695756 -0.123934,-0.133889 -0.314383,-0.228114 -0.537954,-0.266152 -0.117998,-0.02007 -0.343359,-0.02388 -0.441581,-0.0075 -0.118299,0.01978 -0.2381,0.06134 -0.380043,0.131835 -0.156178,0.07756 -0.345892,0.201278 -0.338239,0.220568 0.01281,0.0323 0.02769,0.124486 0.03533,0.218973 0.0054,0.06719 0.0083,0.740071 0.0083,1.955998 v 1.85357 h -0.401128 -0.401129 v -1.662934 c 0,-1.076446 -0.0029,-1.699059 -0.0082,-1.765363 -0.03858,-0.479947 -0.238848,-0.772404 -0.613941,-0.896537 -0.13677,-0.04526 -0.21466,-0.05537 -0.42632,-0.05533 -0.205086,0 -0.259222,0.0074 -0.389214,0.05274 -0.148277,0.05175 -0.334532,0.158945 -0.438859,0.252587 l -0.04567,0.041 v 2.016922 2.016922 H 27.26874 26.867596 l 0.002,-2.066346 z"
       id="path353" />
    <path
       style="fill:#ffffff;fill-opacity:1;stroke-width:0.00794314"
       d="M 24.127139,38.96592 C 23.900332,38.94927 23.694997,38.8943 23.49566,38.796875 23.311624,38.706925 23.157966,38.596357 23.007488,38.445598 22.625544,38.062939 22.37734,37.517066 22.29485,36.878301 c -0.02038,-0.157838 -0.02028,-0.571621 1.88e-4,-0.730768 0.08485,-0.65998 0.32964,-1.214486 0.71061,-1.609699 0.315866,-0.327674 0.64882,-0.499026 1.117528,-0.575124 0.107715,-0.01749 0.440887,-0.02443 0.565457,-0.01179 0.293136,0.02976 0.583884,0.108924 0.834905,0.227327 0.107871,0.05088 0.231815,0.120843 0.236718,0.133618 0.003,0.0079 -0.202478,0.401547 -0.219617,0.42067 -0.0034,0.0038 -0.05738,-0.01453 -0.120027,-0.04063 -0.30783,-0.128245 -0.630025,-0.205498 -0.893226,-0.214169 -0.221532,-0.0073 -0.362453,0.0187 -0.52537,0.09691 -0.116207,0.05579 -0.193644,0.109783 -0.290692,0.202689 -0.136144,0.130334 -0.234823,0.264836 -0.326799,0.44544 -0.181904,0.357182 -0.281575,0.767171 -0.295299,1.214676 -0.02252,0.73448 0.267855,1.44781 0.724167,1.778954 0.131363,0.09533 0.26822,0.154941 0.440845,0.192022 0.07229,0.01553 0.106166,0.01787 0.254181,0.01761 0.363628,-6.57e-4 0.62324,-0.07155 1.126731,-0.307754 0.08016,-0.03761 0.148134,-0.06838 0.151042,-0.06838 0.01135,0 0.21106,0.412754 0.203408,0.420393 -0.01768,0.01764 -0.221689,0.13258 -0.317511,0.178878 -0.37742,0.18236 -0.765645,0.282984 -1.211329,0.313969 -0.108163,0.0075 -0.252539,0.0087 -0.333612,0.0028 z"
       id="path351" />
    <path
       style="fill:#ffffff;fill-opacity:1;stroke-width:0.00794314"
       d="m 18.53191,41.123616 c -0.03418,-0.131224 -0.06263,-0.244532 -0.0632,-0.251795 -8.44e-4,-0.01113 0.01894,-0.01604 0.126036,-0.03124 0.530924,-0.07535 0.802967,-0.138507 1.059355,-0.245924 0.326065,-0.136609 0.56371,-0.356114 0.668281,-0.617269 0.06368,-0.159023 0.107828,-0.406215 0.126491,-0.708196 0.01258,-0.203495 0.02009,-0.679138 0.01072,-0.679138 -0.0044,0 -0.04517,0.01652 -0.09052,0.03672 -0.499299,0.222373 -1.0114,0.328525 -1.585409,0.328634 -0.309693,8e-5 -0.530417,-0.0488 -0.784943,-0.173748 -0.311167,-0.152756 -0.537749,-0.370627 -0.674254,-0.648334 -0.08194,-0.166703 -0.116735,-0.296071 -0.131427,-0.488675 -0.0052,-0.0685 -0.0082,-0.705422 -0.0082,-1.768463 l -1.8e-5,-1.661404 0.09333,-0.03164 c 0.366631,-0.124277 0.712671,-0.239828 0.718213,-0.239828 0.0036,0 0.0066,0.781444 0.0066,1.736543 0,1.527575 0.0015,1.74652 0.01231,1.819463 0.07437,0.500858 0.425885,0.823793 0.97503,0.895755 0.120137,0.01574 0.301816,0.01571 0.409631,-7.9e-5 0.280198,-0.04103 0.604189,-0.165107 0.916467,-0.350984 l 0.101275,-0.06028 v -1.960636 -1.960636 h 0.401129 0.401128 v 2.277696 c 0,1.397876 -0.0031,2.359003 -0.0081,2.488188 -0.02687,0.700985 -0.106533,1.143041 -0.259102,1.437709 -0.250976,0.484733 -0.855787,0.852789 -1.670898,1.01682 -0.216921,0.04365 -0.507853,0.07933 -0.646874,0.07933 h -0.04089 l -0.06215,-0.238589 z"
       id="path349" />
    <path
       id="path181"
       style="fill:#ffffff;fill-opacity:1;stroke-width:0.00794314"
       d="m 13.903,33.941728 c -0.02772,0 -0.06415,6.46e-4 -0.102536,0.0023 -0.725241,0.03171 -1.360226,0.23497 -1.822357,0.583274 -0.101658,0.07662 -0.221798,0.187036 -0.25152,0.231158 l -0.02075,0.03074 -0.0029,3.156361 -0.0029,3.156313 0.389254,0.140837 c 0.214068,0.07746 0.391914,0.138483 0.395218,0.135649 0.0033,-0.0028 0.0051,-0.642062 0.004,-1.420544 -0.0011,-0.778482 -0.0018,-1.415453 -0.0015,-1.415453 2.98e-4,0 0.0447,0.02532 0.09866,0.05624 0.34607,0.198268 0.668765,0.311368 1.032695,0.362008 0.139556,0.01943 0.42318,0.01958 0.548079,2.98e-4 0.205978,-0.03181 0.382507,-0.08554 0.552539,-0.168084 0.575473,-0.27938 0.969667,-0.873562 1.102749,-1.662318 0.03691,-0.218789 0.04667,-0.368802 0.04203,-0.64538 -0.0044,-0.262533 -0.01579,-0.403377 -0.0495,-0.611152 -0.058,-0.357504 -0.144084,-0.638093 -0.281579,-0.917892 -0.19603,-0.398917 -0.491055,-0.703626 -0.831548,-0.858795 -0.197022,-0.08978 -0.452009,-0.146025 -0.662008,-0.146025 -0.03978,0 -0.07836,-0.003 -0.08571,-0.0066 -0.0037,-0.0018 -0.0227,-0.0028 -0.05042,-0.0029 z m -0.217146,0.537994 c 0.243976,-2.73e-4 0.286105,0.0049 0.42896,0.05236 0.443582,0.147499 0.716565,0.615142 0.801634,1.373178 0.02392,0.213181 0.03048,0.385336 0.02613,0.685766 -0.008,0.549109 -0.06664,0.875562 -0.211766,1.177945 -0.06714,0.139881 -0.12575,0.223962 -0.2266,0.325162 -0.191723,0.192386 -0.411743,0.287691 -0.722173,0.312848 -0.05634,0.0046 -0.109973,0.0078 -0.119167,0.0072 -0.19842,-0.01312 -0.329926,-0.03836 -0.508227,-0.0975 -0.204603,-0.06785 -0.381767,-0.149468 -0.595348,-0.274306 l -0.08475,-0.04955 v -1.567393 -1.567345 l 0.04843,-0.03641 c 0.188627,-0.141793 0.514636,-0.267828 0.83819,-0.323998 0.08905,-0.01546 0.13101,-0.0178 0.324678,-0.01799 z" />
  </g>
  <path
     id="path27"
     style="opacity:0.4;fill:#fdd33a;stroke:#ffffff;stroke-width:0.5;stroke-dasharray:none;stroke-opacity:1"
     d="m 0.25,33.402877 v 3.842142 1.059884 l 0.8552449,0.52865 1.3094808,0.75706 c 0.08719,-0.164526 0.1471593,-0.340235 0.1860352,-0.545703 0.01645,-0.08672 0.016737,-0.101929 0.019637,-2.009697 0.0021,-1.375968 1.989e-4,-1.947924 -0.0062,-2.013314 C 2.5538798,34.400793 2.1773666,33.856875 1.6178752,33.583744 1.4270914,33.490606 1.2142538,33.429805 1.006543,33.409595 0.97380971,33.406409 0.66327395,33.404334 0.25,33.402877 Z" />
</svg>
