<?xml version="1.0" encoding="UTF-8" standalone="no"?>
<!-- Created with Inkscape (http://www.inkscape.org/) -->

<svg
   width="43.900162mm"
   height="50.799999mm"
   viewBox="0 0 43.900162 50.799999"
   version="1.1"
   id="svg5"
   sodipodi:docname="rotonda.hex.svg"
   inkscape:version="1.3.2 (091e20ef0f, 2023-11-25)"
   xmlns:inkscape="http://www.inkscape.org/namespaces/inkscape"
   xmlns:sodipodi="http://sodipodi.sourceforge.net/DTD/sodipodi-0.dtd"
   xmlns:xlink="http://www.w3.org/1999/xlink"
   xmlns="http://www.w3.org/2000/svg"
   xmlns:svg="http://www.w3.org/2000/svg">
  <sodipodi:namedview
     id="namedview8"
     pagecolor="#ffffff"
     bordercolor="#666666"
     borderopacity="1.0"
     inkscape:pageshadow="2"
     inkscape:pageopacity="0.0"
     inkscape:pagecheckerboard="0"
     inkscape:document-units="mm"
     showgrid="false"
     fit-margin-top="0"
     fit-margin-left="0"
     fit-margin-right="0"
     fit-margin-bottom="0"
     inkscape:zoom="0.50000001"
     inkscape:cx="558.99998"
     inkscape:cy="-395.99999"
     inkscape:window-width="1920"
     inkscape:window-height="1080"
     inkscape:window-x="0"
     inkscape:window-y="0"
     inkscape:window-maximized="1"
     inkscape:current-layer="svg5"
     inkscape:showpageshadow="2"
     inkscape:deskcolor="#d1d1d1" />
  <defs
     id="defs2">
    <linearGradient
       gradientUnits="userSpaceOnUse"
       y2="161.62906"
       x2="79.058426"
       y1="157.91002"
       x1="100.54038"
       id="linearGradient884"
       xlink:href="#linearGradient880" />
    <linearGradient
       id="linearGradient880">
      <stop
         id="stop876"
         offset="0"
         style="stop-color:#784421;stop-opacity:1;" />
      <stop
         id="stop878"
         offset="1"
         style="stop-color:#784421;stop-opacity:0;" />
    </linearGradient>
    <linearGradient
       gradientUnits="userSpaceOnUse"
       y2="187.636"
       x2="162.18832"
       y1="188.57594"
       x1="188.85896"
       id="linearGradient1106"
       xlink:href="#linearGradient880" />
    <linearGradient
       gradientUnits="userSpaceOnUse"
       y2="208.92482"
       x2="-1.8827039"
       y1="261.78836"
       x1="-1.8827039"
       id="linearGradient1408-6"
       xlink:href="#linearGradient1406" />
    <linearGradient
       id="linearGradient1406">
      <stop
         id="stop1402"
         offset="0"
         style="stop-color:#000000;stop-opacity:1;" />
      <stop
         id="stop1404"
         offset="1"
         style="stop-color:#000000;stop-opacity:0;" />
    </linearGradient>
    <radialGradient
       gradientUnits="userSpaceOnUse"
       gradientTransform="matrix(1,0,0,1.4639338,0,-64.581152)"
       r="56.134296"
       fy="127.04554"
       fx="140.49042"
       cy="127.04554"
       cx="140.49042"
       id="radialGradient1608"
       xlink:href="#linearGradient1606" />
    <linearGradient
       id="linearGradient1606">
      <stop
         id="stop1602"
         offset="0"
         style="stop-color:#fdbc5c;stop-opacity:1" />
      <stop
         id="stop1604"
         offset="1"
         style="stop-color:#fdd08c;stop-opacity:0;" />
    </linearGradient>
    <linearGradient
       gradientUnits="userSpaceOnUse"
       y2="276.31"
       y1="233.23"
       x2="529.53003"
       x1="479.79001"
       id="d">
      <stop
         id="stop16254"
         stop-color="#fff"
         offset="0" />
      <stop
         id="stop16256"
         stop-opacity="0"
         stop-color="#fff"
         offset="1" />
    </linearGradient>
    <clipPath
       id="c">
      <path
         id="path16259"
         fill="#009688"
         fill-rule="evenodd"
         d="m 503.51,222.01 c -20.04,0 -36.286,16.246 -36.286,36.286 0,1.925 0.151,3.814 0.44,5.657 1.402,6.762 6.687,9.389 6.687,9.389 1.108,0.908 2.484,1.836 4.073,2.752 l -0.13,-0.004 c 0,0 3.331,18.563 9.444,18.41 4.622,-0.116 8.25,-9.453 14.128,-9.265 5.872,0.188 8.256,9.151 14.1,9.213 3.374,0.036 6.307,-5.744 8.16,-10.528 0.586,-0.12 1.17,-0.25 1.749,-0.392 5.556,5.254 18.398,10.599 23.87,12.412 a 0.533,0.533 0 0 0 0.177,-0.14 c 1.396,-1.82 -7.954,-16.01 -12.983,-23.372 a 36.17,36.17 0 0 0 2.856,-14.132 c 0,-20.04 -16.246,-36.286 -36.286,-36.286 z" />
    </clipPath>
    <filter
       color-interpolation-filters="sRGB"
       height="1.1272249"
       width="1.1135408"
       y="-0.063612454"
       x="-0.056770418"
       id="b">
      <feGaussianBlur
         id="feGaussianBlur16262"
         stdDeviation="7.406" />
    </filter>
    <filter
       color-interpolation-filters="sRGB"
       height="1.071391"
       width="1.072607"
       y="-0.035695516"
       x="-0.036303554"
       id="a">
      <feGaussianBlur
         id="feGaussianBlur16265"
         stdDeviation="1.279" />
    </filter>
    <style
       id="style1157">.cls-1{fill:#ed6b06;}.cls-2{fill:#fff;}</style>
  </defs>
  <g
     id="g5882"
     inkscape:label="Hexagon"
     style="fill:#000066;fill-opacity:1"
     transform="translate(1.3024e-7,-0.57858844)">
    <polygon
       points="39.346,136.825 96.715,169.921 99.273,171.419 101.853,169.921 159.319,136.825 161.938,135.321 161.938,132.309 161.938,66.116 161.938,63.104 159.308,61.6 101.841,28.504 99.234,27.006 96.629,28.504 39.347,61.6 36.911,63.104 36.911,66.116 36.911,132.309 36.911,135.321 "
       id="polygon71814"
       style="fill:#000066;fill-opacity:1"
       transform="matrix(0.35112416,0,0,0.35176889,-12.960344,-8.9212822)"
       inkscape:label="Hexagon" />
  </g>
  <path
     id="path3"
     style="opacity:0.309921;fill:#ffffff;stroke-width:0.182882"
     class="cls-1"
     d="M 12.911357,5.1905685 7.0274781,8.5960454 C 11.442977,8.4650773 17.301264,9.4267806 23.779427,11.811353 c 1.182088,0.435047 2.352667,0.900379 3.506763,1.403016 8.230068,3.585827 14.040421,8.182392 16.613973,12.017871 V 19.458949 C 40.170271,15.796992 34.815161,12.377101 28.686104,9.7143236 27.530435,9.2126175 26.362438,8.743667 25.181925,8.3076909 20.975496,6.7546676 16.792699,5.7032549 12.911357,5.1905685 Z M 4.6787843,15.611638 C 2.8794748,15.634345 1.3060263,15.845073 1.3024e-7,16.2054 V 31.958444 C 3.4615046,34.763405 7.8173708,37.352632 12.674679,39.462896 c 1.155663,0.501696 2.32418,0.970653 3.504695,1.406632 5.951339,2.197208 11.859763,3.402635 16.916797,3.464388 l 9.884151,-5.703011 0.919841,-0.529167 v -1.059367 -5.184696 c -0.61923,0.436208 -1.420132,0.797268 -2.376083,1.072803 l -0.0031,0.0016 c -1.906216,-3.266595 -6.329519,-7.19769 -12.712919,-10.606121 -0.280456,-0.150635 -0.603536,-0.208385 -0.919324,-0.163814 -0.474001,0.06811 -0.876483,0.383211 -1.053166,0.827856 -0.177609,0.443077 -0.105166,0.948564 0.189653,1.324467 l 7.203694,9.177218 C 32.521162,33.37849 30.719804,33.13597 28.85767,32.76563 l -4.802291,-6.119006 c -0.294815,-0.375905 -0.768426,-0.565315 -1.241784,-0.499712 -0.474004,0.06811 -0.874931,0.382178 -1.051616,0.826823 L 20.40599,30.354408 C 19.819168,30.138632 19.230025,29.915679 18.641756,29.679513 18.048475,29.44206 17.471195,29.195126 16.901811,28.947775 l 1.35754,-3.381706 c 0.177608,-0.443082 -4.201543,1.249241 -4.496367,0.873332 -0.294815,-0.375904 -1.010272,-1.974018 -1.48363,-1.908411 L 9.117273,24.843116 C 7.4686176,23.79592 5.9972968,22.724678 4.7201254,21.655197 L 13.810527,20.307476 C 15.479196,18.189037 14.66785,18.958528 16.38608,17.336598 12.193537,16.16755 8.1733658,15.565923 4.6787843,15.611638 Z" />
  <g
     id="g77"
     transform="matrix(0.02799276,0,0,-0.02799276,17.417947,46.875222)"
     inkscape:label="NGI Zero logo"
     style="fill:#ffffff">
    <g
       id="g65"
       inkscape:label="NGI"
       style="fill:#ffffff">
      <path
         id="path63"
         style="fill:#ffffff;fill-opacity:1;stroke:none;stroke-width:0.999996"
         d="m 25.228832,113.81197 c -6.078957,0 -11.057907,-4.97999 -11.057907,-11.058 V 25.237743 c 0,-6.078958 4.97895,-11.057908 11.057907,-11.057908 H 190.26701 c 6.07801,0 11.03948,4.979896 11.03948,11.057908 v 18.25757 c 0,2.022034 0.80246,3.959569 2.23375,5.390579 l 9.1011,9.101091 c 2.53999,2.538956 2.52751,6.643895 -0.0189,9.174911 l -9.06423,9.027272 c -1.43999,1.43101 -2.25218,3.378942 -2.25218,5.408916 v 21.155888 c 0,6.07801 -4.96147,11.058 -11.03948,11.058 z M 133.11291,96.957337 c 5.585,0 10.65856,-0.943294 15.21152,-2.824496 1.97402,-0.815694 3.80125,-1.799159 5.50126,-2.935177 3.60399,-2.407008 3.79388,-7.707794 0.3138,-10.448736 -2.233,-1.75899 -5.41251,-1.778177 -7.75354,-0.166353 -3.68499,2.538011 -7.87216,3.802857 -12.55319,3.802857 -4.06798,0 -7.68039,-0.849721 -10.83636,-2.547557 -3.15805,-1.701994 -5.60485,-4.102575 -7.36582,-7.199663 -1.76098,-3.095953 -2.65834,-6.645784 -2.65834,-10.651762 0,-3.946997 0.89698,-7.463464 2.65834,-10.559511 1.76097,-3.095954 4.20182,-5.506553 7.32887,-7.236525 3.12601,-1.729973 6.6817,-2.602945 10.68871,-2.602945 2.32894,0 4.53491,0.283555 6.60893,0.830817 2.20596,0.582234 3.88329,2.231771 4.54133,4.319779 0.23157,0.74008 -0.33176,1.495283 -1.10767,1.495283 -4.23698,0 -7.6438,3.586693 -7.36582,7.882748 0.25425,3.919965 3.69529,6.885767 7.62424,6.885767 h 7.27348 c 0.0662,0 0.13894,-0.0189 0.20321,-0.0189 0.0662,0.002 0.12099,0.0189 0.18432,0.0189 h 0.51701 c 3.58301,0 6.47962,-2.916085 6.47962,-6.498147 v -9.045704 c 0,-7.436998 -4.78462,-14.098756 -11.88863,-16.300754 -0.0473,-0.0095 -0.0851,-0.0189 -0.12949,-0.03781 -4.55399,-1.396038 -9.14022,-2.086118 -13.7532,-2.086118 -6.61799,0 -12.56944,1.403505 -17.85142,4.227529 -5.28198,2.822984 -9.41905,6.731985 -12.42398,11.740993 -3.005031,5.009007 -4.504473,10.668775 -4.504473,16.983745 0,6.312985 1.499442,11.975777 4.504473,16.983839 3.00493,5.009008 7.17225,8.937386 12.51623,11.759424 5.34001,2.822984 11.35706,4.227435 18.03611,4.227435 z M 39.406607,95.868201 h 1.45842 c 2.184039,0 4.247472,-0.986773 5.630467,-2.676764 L 70.64204,63.728226 c 1.801995,-2.201997 5.372053,-0.943295 5.372053,1.901429 v 22.946538 c 0,4.024031 3.249546,7.292008 7.273482,7.292008 4.02403,0 7.292007,-3.267977 7.292007,-7.292008 V 39.397086 c 0,-4.022991 -3.267977,-7.273482 -7.292007,-7.273482 h -1.366076 c -2.181014,0 -4.246432,0.973351 -5.630467,2.658333 L 52.052236,64.28201 c -1.804074,2.196988 -5.372053,0.923446 -5.372053,-1.91986 V 39.397086 c 0,-4.022991 -3.249546,-7.273482 -7.273576,-7.273482 -4.022991,0 -7.291913,3.250491 -7.291913,7.273482 v 49.179107 c 0,4.024031 3.268922,7.292008 7.291913,7.292008 z m 136.590383,0 c 4.07393,0 7.38425,-3.310321 7.38425,-7.384258 V 39.489336 c 0,-4.073937 -3.31032,-7.365732 -7.38425,-7.365732 -4.07403,0 -7.36583,3.291795 -7.36583,7.365732 v 48.994607 c 0,4.073937 3.2918,7.384258 7.36583,7.384258 z"
         inkscape:label="tag" />
    </g>
    <g
       aria-label="Z E R O"
       transform="scale(1,-1)"
       style="font-variant:normal;font-weight:600;font-stretch:normal;font-size:31.76px;font-family:'Montserrat SemiBold';-inkscape-font-specification:Montserrat-SemiBold;font-variant-ligatures:normal;font-variant-caps:normal;font-variant-numeric:normal;font-feature-settings:normal;text-align:start;writing-mode:lr-tb;text-anchor:start;fill:#ffffff;fill-opacity:1;fill-rule:nonzero;stroke:none"
       id="g75"
       inkscape:label="letters">
      <path
         style="fill:#ffffff;fill-opacity:1"
         d="m 243.58117,-73.015206 h 19.46231 v 3.613321 l -12.42176,15.02707 h 12.77844 v 4.512774 h -20.17567 v -3.613321 l 12.42176,-15.02707 h -12.06508 z"
         id="path67"
         inkscape:connector-curvature="0"
         inkscape:label="z" />
      <path
         style="fill:#ffffff;fill-opacity:1"
         d="m 278.7684,-73.015206 h 16.11262 v 4.512774 h -10.14211 v 4.311172 h 9.5373 v 4.512773 h -9.5373 v 5.303672 h 10.48328 v 4.512774 H 278.7684 Z"
         id="path69"
         inkscape:connector-curvature="0"
         inkscape:label="e" />
      <path
         style="fill:#ffffff;fill-opacity:1"
         d="m 320.00367,-62.749034 q 1.87645,0 2.68285,-0.697851 0.82192,-0.697852 0.82192,-2.295157 0,-1.581796 -0.82192,-2.26414 -0.8064,-0.682344 -2.68285,-0.682344 h -2.51226 v 5.939492 z m -2.51226,4.125078 v 8.761915 h -5.97051 v -23.153165 h 9.11859 q 4.57481,0 6.69938,1.535274 2.14008,1.535273 2.14008,4.853945 0,2.295156 -1.11657,3.768399 -1.10105,1.473242 -3.33418,2.171093 1.22512,0.279141 2.18661,1.271641 0.97699,0.976992 1.96949,2.9775 l 3.24113,6.575313 h -6.3582 l -2.82242,-5.753399 q -0.85293,-1.736875 -1.73688,-2.372695 -0.86844,-0.635821 -2.32617,-0.635821 z"
         id="path71"
         inkscape:connector-curvature="0"
         inkscape:label="r" />
      <path
         style="fill:#ffffff;fill-opacity:1"
         d="m 357.57911,-69.107237 q -2.72938,0 -4.23364,2.016016 -1.50425,2.016015 -1.50425,5.675859 0,3.644336 1.50425,5.660352 1.50426,2.016015 4.23364,2.016015 2.74488,0 4.24914,-2.016015 1.50426,-2.016016 1.50426,-5.660352 0,-3.659844 -1.50426,-5.675859 -1.50426,-2.016016 -4.24914,-2.016016 z m 0,-4.32668 q 5.58281,0 8.7464,3.19461 3.1636,3.194609 3.1636,8.823945 0,5.613828 -3.1636,8.808438 -3.16359,3.194609 -8.7464,3.194609 -5.56731,0 -8.74641,-3.194609 -3.16359,-3.19461 -3.16359,-8.808438 0,-5.629336 3.16359,-8.823945 3.1791,-3.19461 8.74641,-3.19461 z"
         id="path73"
         inkscape:connector-curvature="0"
         inkscape:label="o" />
    </g>
  </g>
  <path
     class="cls-1"
     d="m 29.964164,15.196159 -1.65279,-2.153955 c 0,0 0,-6.46e-4 -6.46e-4,-0.0013 -0.830012,-1.081252 -2.490695,-1.356827 -4.676219,-0.776081 -1.817871,0.482748 -3.859358,1.514016 -5.808112,2.924116 -0.366996,0.265709 -0.726099,0.541284 -1.077308,0.826724 -1.866542,1.517304 -3.39042,3.22271 -4.327639,4.853796 -1.126632,1.960592 -1.289739,3.636402 -0.460386,4.717654 v 0 c 0,0 1.653449,2.155268 1.653449,2.155268 0.561013,0.731359 1.502836,1.094407 2.729436,1.072704 0.586667,-0.01051 1.2391,-0.108522 1.946781,-0.296621 1.817871,-0.482751 3.85936,-1.514017 5.808113,-2.924118 0.366994,-0.26571 0.726096,-0.541283 1.077306,-0.826723 1.866541,-1.517322 3.390423,-3.222727 4.327639,-4.853813 1.126634,-1.960592 1.289742,-3.636401 0.460388,-4.717653 z m -2.601187,0.274916 c -1.360115,-0.0086 -3.387135,0.639939 -5.611462,1.990846 -0.098,0.05919 -0.174948,0.14864 -0.219013,0.254529 v 0 c -0.06577,0.159162 -0.04209,0.341344 0.06314,0.477487 0.104573,0.136143 0.274259,0.206517 0.444602,0.184155 l 4.159927,-0.547861 c -0.347921,0.507741 -0.753062,1.020744 -1.208845,1.529143 l -2.773504,0.365021 c -0.170343,0.02236 -0.315694,0.13417 -0.382121,0.292675 -0.06577,0.159163 -0.04209,0.340687 0.06314,0.47683 l 0.797785,1.03916 c -0.17429,0.142062 -0.35121,0.283466 -0.532076,0.42224 -0.182182,0.14009 -0.364364,0.273602 -0.54523,0.404483 l -0.797785,-1.039817 c -0.104574,-0.136143 -0.274259,-0.206517 -0.444604,-0.184155 -0.170343,0.02236 -0.315694,0.13417 -0.382119,0.292675 l -1.072045,2.588034 c -0.626128,0.318324 -1.227262,0.577457 -1.792223,0.776739 l 1.609384,-3.885011 c 0.06577,-0.159162 0.04209,-0.340686 -0.06314,-0.476829 -0.104574,-0.136143 -0.274261,-0.206517 -0.444604,-0.184155 v 0 c -0.113123,0.01513 -0.217697,0.06511 -0.300566,0.144693 -1.129924,1.083225 -2.05267,2.217093 -2.678796,3.306895 -0.334767,0.582061 -0.564961,1.127292 -0.689923,1.610699 -0.714916,-0.0046 -1.246336,-0.190075 -1.523883,-0.55115 -0.917486,-1.195692 0.732674,-4.567699 4.537446,-7.666763 0.351209,-0.286097 0.709653,-0.562987 1.076649,-0.828039 2.718255,-1.962565 5.298398,-2.920828 6.953161,-2.949109 0.767531,-0.01315 1.336438,0.172974 1.62714,0.551807 0.27097,0.352525 0.308459,0.914198 0.129566,1.603463 z"
     id="path1"
     style="fill:#ffffff;stroke-width:0.0657695" />
  <path
     id="path2"
     style="fill:#ffffff;stroke-width:0.0351431"
     class="cls-1"
     d="m 10.920313,32.162075 c -1.8474686,0.006 -2.6666196,0.621623 -2.6666196,1.853388 v 0.412588 c 0,1.243713 0.819151,1.871376 2.6666196,1.865398 1.847468,0 2.666691,-0.621685 2.666691,-1.865398 v -0.412588 c 0,-1.231765 -0.819223,-1.853388 -2.666691,-1.853388 z m 10.484246,0 c -1.847468,0.006 -2.666619,0.621623 -2.666619,1.853388 v 0.412588 c 0,1.243713 0.819151,1.871376 2.666619,1.865398 1.847469,0 2.666686,-0.621685 2.666686,-1.865398 v -0.412588 c 0,-1.231765 -0.819217,-1.853388 -2.666686,-1.853388 z m 16.096302,0.07763 -2.068569,3.970141 h 1.184018 l 0.316974,-0.645617 h 2.194318 l 0.316974,0.645617 h 1.189238 l -2.074815,-3.970141 z m -34.2346752,0.006 v 3.96417 h 1.1361796 v -1.309424 h 1.1179217 l 0.9207193,1.309424 h 1.350884 l -1.028282,-1.387129 c 0.579865,-0.149709 0.866978,-0.520085 0.866978,-1.21381 v -0.0837 c 0,-0.920749 -0.538027,-1.279565 -1.6141106,-1.279565 z m 10.7815232,3.42e-4 v 0.986479 h 1.548423 v 2.977349 h 1.135837 v -2.977391 h 1.548422 v -0.986478 z m 10.809664,0 v 3.964172 h 1.070149 V 33.69323 l 2.391442,2.516989 h 1.321435 v -3.964133 h -1.064173 v 2.511016 l -2.445262,-2.511016 z m 5.762438,0 v 3.964172 h 2.517334 c 1.506585,0 2.152167,-0.567932 2.152167,-1.835542 v -0.293088 c 0,-1.261636 -0.645582,-1.835541 -2.152167,-1.835541 z m -19.699498,0.908372 c 1.046209,0 1.48274,0.239367 1.48274,0.92079 v 0.293089 c 0,0.687398 -0.442507,0.932665 -1.48274,0.932665 -1.0402336,0 -1.4826686,-0.244915 -1.4826686,-0.932665 v -0.293094 c 0,-0.681423 0.436459,-0.920791 1.4826686,-0.920791 z m 10.484246,0 c 1.04621,0 1.482741,0.239367 1.482741,0.92079 v 0.293089 c 0,0.687398 -0.442507,0.932665 -1.482741,0.932665 -1.040233,0 -1.482668,-0.244915 -1.482668,-0.932665 v -0.293094 c 0,-0.681423 0.436459,-0.920791 1.482668,-0.920791 z m -17.0021936,0.0359 h 1.5663383 c 0.3528366,0 0.4902187,0.137363 0.4902187,0.382661 v 0.07771 c 0,0.251274 -0.1314062,0.394675 -0.4902187,0.394675 H 4.4023654 Z m 27.3536256,0.04214 h 1.40504 c 0.645925,0 0.956551,0.22141 0.956551,0.843092 v 0.286772 c 0,0.633631 -0.31695,0.861007 -0.956551,0.861007 h -1.40504 z m 6.277641,0.08964 0.699295,1.440868 h -1.404626 z" />
</svg>
