<?xml version="1.0" encoding="UTF-8" standalone="no"?>
<!-- Created with Inkscape (http://www.inkscape.org/) -->

<svg
   width="43.900002mm"
   height="50.799999mm"
   viewBox="0 0 43.900004 50.799999"
   version="1.1"
   id="svg5"
   xmlns:xlink="http://www.w3.org/1999/xlink"
   xmlns="http://www.w3.org/2000/svg"
   xmlns:svg="http://www.w3.org/2000/svg">
  <defs
     id="defs2">
    <linearGradient
       id="linearGradient28">
      <stop
         style="stop-color:#44edd4;stop-opacity:1;"
         offset="0"
         id="stop28" />
      <stop
         style="stop-color:#3fbde4;stop-opacity:1;"
         offset="1"
         id="stop29" />
    </linearGradient>
    <clipPath
       clipPathUnits="userSpaceOnUse"
       id="clipPath27">
      <rect
         style="fill:none;stroke:#000000;stroke-width:0.999999;stroke-linecap:butt;stroke-linejoin:bevel;paint-order:stroke markers fill;stop-color:#000000"
         id="rect28-6"
         width="46.160622"
         height="39.922417"
         x="86.574379"
         y="420.06253" />
    </clipPath>
    <clipPath
       clipPathUnits="userSpaceOnUse"
       id="clipPath24">
      <rect
         style="fill:none;stroke:#000000;stroke-width:0.999999;stroke-linecap:butt;stroke-linejoin:bevel;paint-order:stroke markers fill;stop-color:#000000"
         id="rect24"
         width="44.999748"
         height="77.937294"
         x="251.53429"
         y="222.73541" />
    </clipPath>
    <linearGradient
       gradientUnits="userSpaceOnUse"
       y2="161.62906"
       x2="79.058426"
       y1="157.91002"
       x1="100.54038"
       id="linearGradient884"
       xlink:href="#linearGradient880" />
    <linearGradient
       id="linearGradient880">
      <stop
         id="stop876"
         offset="0"
         style="stop-color:#784421;stop-opacity:1;" />
      <stop
         id="stop878"
         offset="1"
         style="stop-color:#784421;stop-opacity:0;" />
    </linearGradient>
    <linearGradient
       gradientUnits="userSpaceOnUse"
       y2="187.636"
       x2="162.18832"
       y1="188.57594"
       x1="188.85896"
       id="linearGradient1106"
       xlink:href="#linearGradient880" />
    <linearGradient
       gradientUnits="userSpaceOnUse"
       y2="208.92482"
       x2="-1.8827039"
       y1="261.78836"
       x1="-1.8827039"
       id="linearGradient1408-6"
       xlink:href="#linearGradient1406" />
    <linearGradient
       id="linearGradient1406">
      <stop
         id="stop1402"
         offset="0"
         style="stop-color:#000000;stop-opacity:1;" />
      <stop
         id="stop1404"
         offset="1"
         style="stop-color:#000000;stop-opacity:0;" />
    </linearGradient>
    <radialGradient
       gradientUnits="userSpaceOnUse"
       gradientTransform="matrix(1,0,0,1.4639338,0,-64.581152)"
       r="56.134296"
       fy="127.04554"
       fx="140.49042"
       cy="127.04554"
       cx="140.49042"
       id="radialGradient1608"
       xlink:href="#linearGradient1606" />
    <linearGradient
       id="linearGradient1606">
      <stop
         id="stop1602"
         offset="0"
         style="stop-color:#fdbc5c;stop-opacity:1" />
      <stop
         id="stop1604"
         offset="1"
         style="stop-color:#fdd08c;stop-opacity:0;" />
    </linearGradient>
    <linearGradient
       gradientUnits="userSpaceOnUse"
       y2="276.31"
       y1="233.23"
       x2="529.53003"
       x1="479.79001"
       id="d">
      <stop
         id="stop16254"
         stop-color="#fff"
         offset="0" />
      <stop
         id="stop16256"
         stop-opacity="0"
         stop-color="#fff"
         offset="1" />
    </linearGradient>
    <clipPath
       id="c">
      <path
         id="path16259"
         fill="#009688"
         fill-rule="evenodd"
         d="m 503.51,222.01 c -20.04,0 -36.286,16.246 -36.286,36.286 0,1.925 0.151,3.814 0.44,5.657 1.402,6.762 6.687,9.389 6.687,9.389 1.108,0.908 2.484,1.836 4.073,2.752 l -0.13,-0.004 c 0,0 3.331,18.563 9.444,18.41 4.622,-0.116 8.25,-9.453 14.128,-9.265 5.872,0.188 8.256,9.151 14.1,9.213 3.374,0.036 6.307,-5.744 8.16,-10.528 0.586,-0.12 1.17,-0.25 1.749,-0.392 5.556,5.254 18.398,10.599 23.87,12.412 a 0.533,0.533 0 0 0 0.177,-0.14 c 1.396,-1.82 -7.954,-16.01 -12.983,-23.372 a 36.17,36.17 0 0 0 2.856,-14.132 c 0,-20.04 -16.246,-36.286 -36.286,-36.286 z" />
    </clipPath>
    <filter
       color-interpolation-filters="sRGB"
       height="1.1272249"
       width="1.1135408"
       y="-0.063612454"
       x="-0.056770418"
       id="b">
      <feGaussianBlur
         id="feGaussianBlur16262"
         stdDeviation="7.406" />
    </filter>
    <filter
       color-interpolation-filters="sRGB"
       height="1.071391"
       width="1.072607"
       y="-0.035695516"
       x="-0.036303554"
       id="a">
      <feGaussianBlur
         id="feGaussianBlur16265"
         stdDeviation="1.279" />
    </filter>
    <clipPath
       clipPathUnits="userSpaceOnUse"
       id="clipPath80613">
      <polygon
         points="36.911,66.116 36.911,132.309 36.911,135.321 39.346,136.825 96.715,169.921 99.273,171.419 101.853,169.921 159.319,136.825 161.938,135.321 161.938,132.309 161.938,66.116 161.938,63.104 159.308,61.6 101.841,28.504 99.234,27.006 96.629,28.504 39.347,61.6 36.911,63.104 "
         id="polygon80615"
         style="fill:#77889b;fill-opacity:1"
         transform="matrix(1.4781253,0,0,1.4781253,81.707219,-272.07126)" />
    </clipPath>
    <linearGradient
       xlink:href="#linearGradient5562"
       id="linearGradient5384"
       gradientUnits="userSpaceOnUse"
       gradientTransform="translate(70.650339,-1055.1511)"
       x1="200.59668"
       y1="351.41116"
       x2="290.08701"
       y2="506.18814" />
    <linearGradient
       id="linearGradient5562">
      <stop
         style="stop-color:#699ad7;stop-opacity:1"
         offset="0"
         id="stop5564" />
      <stop
         id="stop5566"
         offset="0.24345198"
         style="stop-color:#7eb1dd;stop-opacity:1" />
      <stop
         style="stop-color:#7ebae4;stop-opacity:1"
         offset="1"
         id="stop5568" />
    </linearGradient>
    <linearGradient
       xlink:href="#linearGradient5053"
       id="linearGradient5386"
       gradientUnits="userSpaceOnUse"
       gradientTransform="translate(864.69589,-1491.3405)"
       x1="-584.19934"
       y1="782.33563"
       x2="-496.29703"
       y2="937.71399" />
    <linearGradient
       id="linearGradient5053">
      <stop
         style="stop-color:#415e9a;stop-opacity:1"
         offset="0"
         id="stop5055" />
      <stop
         id="stop5057"
         offset="0.23168644"
         style="stop-color:#4a6baf;stop-opacity:1" />
      <stop
         style="stop-color:#5277c3;stop-opacity:1"
         offset="1"
         id="stop5059" />
    </linearGradient>
    <linearGradient
       xlink:href="#linearGradient1407"
       id="linearGradient1409"
       x1="-171.06561"
       y1="270.24414"
       x2="-129.89749"
       y2="203.39642"
       gradientUnits="userSpaceOnUse" />
    <linearGradient
       id="linearGradient1407">
      <stop
         style="stop-color:#264d82;stop-opacity:1"
         offset="0"
         id="stop1403" />
      <stop
         style="stop-color:#56a4d7;stop-opacity:1"
         offset="1"
         id="stop1405" />
    </linearGradient>
    <linearGradient
       id="paint4_linear"
       x1="33"
       y1="32"
       x2="9.3934402"
       y2="12.3279"
       gradientUnits="userSpaceOnUse"
       gradientTransform="matrix(0.26458333,0,0,0.26458333,84.402083,68.791667)">
      <stop
         stop-color="#D1D5D9"
         id="stop17" />
      <stop
         offset="1"
         stop-color="#FCFFFF"
         id="stop18" />
    </linearGradient>
    <linearGradient
       id="paint3_linear"
       x1="38"
       y1="25"
       x2="14.02"
       y2="0.020815801"
       gradientUnits="userSpaceOnUse"
       gradientTransform="matrix(0.26458333,0,0,0.26458333,84.402083,68.791667)">
      <stop
         stop-color="#D1D5D9"
         id="stop15" />
      <stop
         offset="1"
         stop-color="#FCFFFF"
         id="stop16" />
    </linearGradient>
    <linearGradient
       id="paint2_linear"
       x1="43"
       y1="18"
       x2="19.5854"
       y2="-11.2683"
       gradientUnits="userSpaceOnUse"
       gradientTransform="matrix(0.26458333,0,0,0.26458333,84.402083,68.791667)">
      <stop
         stop-color="#D1D5D9"
         id="stop13" />
      <stop
         offset="1"
         stop-color="#FCFFFF"
         id="stop14" />
    </linearGradient>
    <linearGradient
       id="paint1_linear"
       x1="8"
       y1="8"
       x2="48"
       y2="48"
       gradientUnits="userSpaceOnUse"
       gradientTransform="matrix(0.26458333,0,0,0.26458333,84.402083,68.791667)">
      <stop
         stop-color="#44F0D3"
         id="stop11" />
      <stop
         offset="1"
         stop-color="#3DAEE9"
         id="stop12" />
    </linearGradient>
    <linearGradient
       id="paint0_linear"
       x1="51"
       y1="10"
       x2="11"
       y2="50"
       gradientUnits="userSpaceOnUse"
       gradientTransform="matrix(0.26458333,0,0,0.26458333,84.402083,68.791667)">
      <stop
         stop-color="#6EB4D9"
         id="stop9" />
      <stop
         offset="1"
         stop-color="#004E6E"
         id="stop10" />
    </linearGradient>
    <linearGradient
       xlink:href="#linearGradient28"
       id="linearGradient29"
       x1="158.60643"
       y1="134.5636"
       x2="61.341465"
       y2="69.502533"
       gradientUnits="userSpaceOnUse" />
  </defs>
  <polygon
     points="36.911,63.104 36.911,66.116 36.911,132.309 36.911,135.321 39.346,136.825 96.715,169.921 99.273,171.419 101.853,169.921 159.319,136.825 161.938,135.321 161.938,132.309 161.938,66.116 161.938,63.104 159.308,61.6 101.841,28.504 99.234,27.006 96.629,28.504 39.347,61.6 "
     id="polygon71814"
     style="fill:url(#linearGradient29)"
     transform="matrix(0.35112416,0,0,0.35176889,-12.960344,-9.4998706)" />
  <g
     id="g14"
     transform="matrix(0.26500347,0,0,0.26549077,3.3461216,-1.720932)"
     style="fill:#266a88;fill-opacity:1">
    <path
       id="path12"
       style="fill:#266a88;fill-opacity:1;stroke-width:1.32497"
       d="m 69.949472,6.4820816 -3.45118,1.98438 -75.8964796,43.8515594 -3.2285204,1.99219 v 3.99023 87.705079 3.99024 l 3.2265704,1.99218 76.0136696,43.85157 3.38867,1.98632 3.41797,-1.98632 76.140618,-43.85157 3.47071,-1.99218 v -3.99024 -87.705079 -3.99023 L 149.54712,52.318021 73.404542,8.4664616 Z m -0.02735,4.4843794 78.835938,45.5957 v 91.183599 l -78.835938,45.5957 -78.1757796,-45.21289 -0.66016,-0.38281 V 56.562161 Z" />
  </g>
  <g
     id="g44"
     transform="matrix(0.02799276,0,0,-0.02799276,129.08441,48.335792)" />
  <g
     id="g3114-6"
     transform="matrix(0.41986196,0,0,0.41986196,-11.033635,-26.901031)"
     style="fill:#276b8a;fill-opacity:1">
    <path
       id="path30-2"
       style="fill:#276b8a;fill-opacity:1;stroke:none;stroke-width:0.056338"
       d="m 69.17227,168.67724 c -0.342463,0 -0.62298,0.28056 -0.62298,0.62299 v 4.36713 c 0,0.34246 0.280517,0.62298 0.62298,0.62298 h 9.297955 c 0.342425,0 0.621944,-0.28056 0.621944,-0.62298 v -1.0286 c 0,-0.11392 0.0452,-0.22307 0.125858,-0.30369 l 0.512739,-0.51274 c 0.143093,-0.14306 0.142412,-0.37429 -0.0011,-0.5169 l -0.510664,-0.50858 c -0.08111,-0.0806 -0.126878,-0.19037 -0.126878,-0.30474 v -1.19189 c 0,-0.34242 -0.279534,-0.62298 -0.621944,-0.62298 z m 6.077998,0.94956 c 0.314646,0 0.600484,0.0531 0.856989,0.15912 0.111194,0.046 0.214148,0.10137 0.309921,0.16535 0.203036,0.13561 0.213733,0.43425 0.01776,0.58867 -0.12582,0.0991 -0.304932,0.10019 -0.436819,0.009 -0.207609,-0.14298 -0.443505,-0.21426 -0.707225,-0.21426 -0.229191,0 -0.432699,0.0479 -0.6105,0.14351 -0.177902,0.0959 -0.315779,0.23112 -0.41498,0.40562 -0.09921,0.17443 -0.149783,0.3744 -0.149783,0.6001 0,0.22239 0.05053,0.42048 0.149783,0.5949 0.09921,0.17443 0.236711,0.31023 0.412898,0.4077 0.176126,0.0975 0.376441,0.14664 0.602181,0.14664 0.131225,0 0.255496,-0.0159 0.372321,-0.0468 0.124271,-0.0329 0.218797,-0.12574 0.255836,-0.24336 0.01323,-0.0417 -0.01852,-0.0842 -0.0624,-0.0842 -0.238715,0 -0.430639,-0.20206 -0.414977,-0.4441 0.01436,-0.22084 0.208177,-0.38793 0.429536,-0.38793 h 0.409772 c 0.0037,0 0.0079,0.001 0.01134,0.001 0.0037,-1.1e-4 0.0068,-0.001 0.0102,-0.001 h 0.0291 c 0.201865,0 0.365065,0.16429 0.365065,0.36608 v 0.50962 c 0,0.41899 -0.269556,0.7943 -0.669785,0.91836 -0.0027,5.3e-4 -0.0049,0.001 -0.0072,0.002 -0.256554,0.0787 -0.514945,0.11754 -0.774829,0.11754 -0.372851,0 -0.708144,-0.0791 -1.005721,-0.23819 -0.297562,-0.15904 -0.53065,-0.37926 -0.699942,-0.66146 -0.169285,-0.28218 -0.253795,-0.60106 -0.253795,-0.95684 0,-0.35565 0.08447,-0.67469 0.253795,-0.95683 0.169285,-0.28222 0.404069,-0.50352 0.705142,-0.66251 0.300851,-0.15904 0.639837,-0.23818 1.016123,-0.23818 z m -5.279248,0.0614 h 0.08217 c 0.123061,0 0.239282,0.0556 0.317216,0.1508 l 1.360373,1.65991 c 0.101518,0.12404 0.302664,0.0531 0.302664,-0.10711 v -1.29277 c 0,-0.2267 0.183081,-0.41082 0.409777,-0.41082 0.226696,0 0.410819,0.1841 0.410819,0.41082 v 2.77066 c 0,0.22666 -0.184101,0.40978 -0.410819,0.40978 h -0.07695 c -0.122872,0 -0.239244,-0.0548 -0.317215,-0.14979 l -1.36557,-1.66198 c -0.101632,-0.12377 -0.302665,-0.052 -0.302665,0.10817 v 1.29381 c 0,0.22666 -0.18308,0.40978 -0.409784,0.40978 -0.226658,0 -0.410812,-0.18312 -0.410812,-0.40978 v -2.77066 c 0,-0.2267 0.184177,-0.41082 0.410812,-0.41082 z m 7.695258,0 c 0.229531,0 0.416016,0.18648 0.416016,0.41602 v 2.76027 c 0,0.22953 -0.186481,0.41497 -0.416016,0.41497 -0.229531,0 -0.414977,-0.18546 -0.414977,-0.41497 v -2.76027 c 0,-0.22953 0.185461,-0.41602 0.414977,-0.41602 z" />
    <g
       aria-label="Z E R O"
       transform="matrix(0.05633821,0,0,0.05633821,67.750922,175.08921)"
       style="font-variant:normal;font-weight:600;font-stretch:normal;font-size:31.76px;font-family:'Montserrat SemiBold';-inkscape-font-specification:Montserrat-SemiBold;font-variant-ligatures:normal;font-variant-caps:normal;font-variant-numeric:normal;font-feature-settings:normal;text-align:start;writing-mode:lr-tb;text-anchor:start;fill:#276b8a;fill-opacity:1;fill-rule:nonzero;stroke:none"
       id="text56-3">
      <path
         style="fill:#276b8a;fill-opacity:1"
         d="m 243.58117,-73.015206 h 19.46231 v 3.613321 l -12.42176,15.02707 h 12.77844 v 4.512774 h -20.17567 v -3.613321 l 12.42176,-15.02707 h -12.06508 z"
         id="path2325-8" />
      <path
         style="fill:#276b8a;fill-opacity:1"
         d="m 278.7684,-73.015206 h 16.11262 v 4.512774 h -10.14211 v 4.311172 h 9.5373 v 4.512773 h -9.5373 v 5.303672 h 10.48328 v 4.512774 H 278.7684 Z"
         id="path2327-6" />
      <path
         style="fill:#276b8a;fill-opacity:1"
         d="m 320.00367,-62.749034 q 1.87645,0 2.68285,-0.697851 0.82192,-0.697852 0.82192,-2.295157 0,-1.581796 -0.82192,-2.26414 -0.8064,-0.682344 -2.68285,-0.682344 h -2.51226 v 5.939492 z m -2.51226,4.125078 v 8.761915 h -5.97051 v -23.153165 h 9.11859 q 4.57481,0 6.69938,1.535274 2.14008,1.535273 2.14008,4.853945 0,2.295156 -1.11657,3.768399 -1.10105,1.473242 -3.33418,2.171093 1.22512,0.279141 2.18661,1.271641 0.97699,0.976992 1.96949,2.9775 l 3.24113,6.575313 h -6.3582 l -2.82242,-5.753399 q -0.85293,-1.736875 -1.73688,-2.372695 -0.86844,-0.635821 -2.32617,-0.635821 z"
         id="path2329-2" />
      <path
         style="fill:#276b8a;fill-opacity:1"
         d="m 357.57911,-69.107237 q -2.72938,0 -4.23364,2.016016 -1.50425,2.016015 -1.50425,5.675859 0,3.644336 1.50425,5.660352 1.50426,2.016015 4.23364,2.016015 2.74488,0 4.24914,-2.016015 1.50426,-2.016016 1.50426,-5.660352 0,-3.659844 -1.50426,-5.675859 -1.50426,-2.016016 -4.24914,-2.016016 z m 0,-4.32668 q 5.58281,0 8.7464,3.19461 3.1636,3.194609 3.1636,8.823945 0,5.613828 -3.1636,8.808438 -3.16359,3.194609 -8.7464,3.194609 -5.56731,0 -8.74641,-3.194609 -3.16359,-3.19461 -3.16359,-8.808438 0,-5.629336 3.16359,-8.823945 3.1791,-3.19461 8.74641,-3.19461 z"
         id="path2331-7" />
    </g>
  </g>
  <path
     d="m 2.2617513,18.225792 v 0.520026 h 0.5961273 c 0.2536712,0 0.5517349,-0.04439 0.7863808,-0.06976 v 0.01268 c -0.1585445,0.06342 -0.3234308,0.126836 -0.46295,0.196595 l -0.9195581,0.456609 v 0.558076 H 4.3228298 V 19.379992 H 3.7267025 c -0.2536712,0 -0.5644184,0.04439 -0.7863807,0.06976 v -0.01268 c 0.1585445,-0.06342 0.3234307,-0.126835 0.4629499,-0.196595 l 0.9195581,-0.456608 v -0.558077 z m -0.038051,2.822095 c 0,0.17757 0.063418,0.405874 0.1839116,0.577102 l 0.3234308,-0.171228 c -0.063418,-0.114152 -0.095127,-0.221962 -0.095127,-0.329772 0,-0.17757 0.063418,-0.317089 0.2536712,-0.367823 v 0.903703 c 0.038051,0.0095 0.1331774,0.0222 0.2283041,0.0222 0.4248993,0 0.7673554,-0.221962 0.7673554,-0.691254 0,-0.386848 -0.317089,-0.761013 -0.8307732,-0.761013 -0.5263678,0 -0.8307732,0.355139 -0.8307732,0.818089 z m 1.0210269,-0.298063 c 0.1585445,0.03171 0.2283041,0.133177 0.2283041,0.253671 0,0.164886 -0.1078103,0.21562 -0.2283041,0.21562 z M 2.2237006,22.68407 c 0,0.405874 0.3044054,0.786381 0.8307732,0.786381 0.5263678,0 0.8307732,-0.380507 0.8307732,-0.786381 0,-0.405874 -0.3044054,-0.786381 -0.8307732,-0.786381 -0.5263678,0 -0.8307732,0.380507 -0.8307732,0.786381 z m 0.4375828,0 c 0,-0.164887 0.1522028,-0.228304 0.3931904,-0.228304 0.2409876,0 0.3931904,0.06342 0.3931904,0.228304 0,0.164886 -0.1522028,0.228304 -0.3931904,0.228304 -0.2409876,0 -0.3931904,-0.06342 -0.3931904,-0.228304 z m -0.4375828,1.78838 c 0,0.164886 0.044392,0.367823 0.1839116,0.526368 l 0.3424561,-0.209279 c -0.057076,-0.0761 -0.088785,-0.158544 -0.088785,-0.253671 0,-0.171228 0.1522028,-0.304406 0.3931904,-0.304406 0.2409876,0 0.3931904,0.120494 0.3931904,0.323431 0,0.05708 -0.012684,0.10781 -0.063418,0.17757 l 0.3361143,0.253671 c 0.1014685,-0.120494 0.1648863,-0.272696 0.1648863,-0.46295 0,-0.450266 -0.3044054,-0.849798 -0.8307732,-0.849798 -0.5263678,0 -0.8307732,0.348798 -0.8307729,0.799064 z m 0.038051,0.78004 v 0.545393 h 1.0400519 c 0.076101,0.08244 0.1204938,0.139519 0.1204938,0.240987 0,0.107811 -0.050734,0.158545 -0.2536712,0.158545 H 2.2617516 v 0.545393 h 0.9766341 c 0.3931904,0 0.6468616,-0.145861 0.6468616,-0.494659 0,-0.21562 -0.1078103,-0.367823 -0.202937,-0.475633 l 0.2726966,0.02537 h 0.5136842 v -0.545393 z m -0.038051,2.257675 c 0,0.171228 0.076101,0.310748 0.1902534,0.437583 v 0.01268 l -0.1522027,0.03805 v 0.443925 h 0.8815074 c 0.520026,0 0.7419883,-0.247329 0.7419883,-0.659545 0,-0.24733 -0.076101,-0.475634 -0.2092787,-0.697596 l -0.348798,0.190253 c 0.088785,0.164887 0.1268356,0.285381 0.1268356,0.399533 0,0.139519 -0.050734,0.209278 -0.1648862,0.221962 -0.063418,-0.608811 -0.2473295,-0.862482 -0.577102,-0.862482 -0.260013,0 -0.4883171,0.17757 -0.4883171,0.475633 z m 0.4185575,0.190254 c 0,-0.09513 0.041222,-0.145861 0.114152,-0.145861 0.088785,0 0.1712281,0.08244 0.2092788,0.342456 H 2.7500683 c -0.063418,-0.05708 -0.1078102,-0.10781 -0.1078102,-0.196595 z m -0.4185575,1.68691 c 0,0.164886 0.031709,0.291722 0.063418,0.374165 l 0.3805068,-0.08244 c -0.012684,-0.03805 -0.019025,-0.08878 -0.019025,-0.139519 0,-0.101469 0.057076,-0.190254 0.2314749,-0.190254 h 0.5422222 v 0.361482 h 0.4248993 v -0.361482 h 0.4756335 v -0.450266 l -0.4756335,-0.06342 -0.019025,-0.240987 h -0.405874 v 0.209278 H 2.870563 c -0.3868486,0 -0.6468616,0.171228 -0.6468616,0.583444 z"
     id="text1"
     style="font-weight:900;font-size:3.17089px;line-height:1.25;font-family:'Source Sans Pro';-inkscape-font-specification:'Source Sans Pro Heavy';fill:#e4e7ea;stroke-width:0.0792725"
     aria-label="Neochat" />
  <path
     d="m 41.638252,29.76149 v -0.520026 h -0.596127 c -0.253671,0 -0.551735,0.04439 -0.786381,0.06976 v -0.01268 c 0.158545,-0.06342 0.323431,-0.126836 0.46295,-0.196595 l 0.919558,-0.456608 v -0.558077 h -2.061078 v 0.520026 h 0.596127 c 0.253671,0 0.564418,-0.04439 0.786381,-0.06976 v 0.01268 c -0.158545,0.06342 -0.323431,0.126836 -0.46295,0.196595 l -0.919558,0.456608 v 0.558077 z m 0.03805,-2.822095 c 0,-0.17757 -0.06342,-0.405874 -0.183912,-0.577102 l -0.32343,0.171228 c 0.06342,0.114152 0.09513,0.221962 0.09513,0.329773 0,0.177569 -0.06342,0.317089 -0.253671,0.367823 v -0.903704 c -0.03805,-0.0095 -0.133177,-0.0222 -0.228304,-0.0222 -0.424899,0 -0.767355,0.221962 -0.767355,0.691254 0,0.386848 0.317089,0.761014 0.830773,0.761014 0.526367,0 0.830773,-0.35514 0.830773,-0.81809 z m -1.021027,0.298064 c -0.158544,-0.03171 -0.228304,-0.133178 -0.228304,-0.253672 0,-0.164886 0.107811,-0.21562 0.228304,-0.21562 z m 1.021027,-1.934246 c 0,-0.405874 -0.304406,-0.786381 -0.830773,-0.786381 -0.526368,0 -0.830773,0.380507 -0.830773,0.786381 0,0.405873 0.304405,0.78638 0.830773,0.78638 0.526367,0 0.830773,-0.380507 0.830773,-0.78638 z m -0.437583,0 c 0,0.164886 -0.152203,0.228304 -0.39319,0.228304 -0.240988,0 -0.393191,-0.06342 -0.393191,-0.228304 0,-0.164887 0.152203,-0.228305 0.393191,-0.228305 0.240987,0 0.39319,0.06342 0.39319,0.228305 z m 0.437583,-1.788381 c 0,-0.164886 -0.04439,-0.367823 -0.183912,-0.526368 l -0.342456,0.209279 c 0.05708,0.0761 0.08879,0.158545 0.08879,0.253671 0,0.171228 -0.152203,0.304406 -0.39319,0.304406 -0.240988,0 -0.393191,-0.120494 -0.393191,-0.323431 0,-0.05708 0.01268,-0.10781 0.06342,-0.17757 l -0.336114,-0.253671 c -0.101469,0.120494 -0.164886,0.272697 -0.164886,0.46295 0,0.450266 0.304405,0.849798 0.830773,0.849798 0.526367,0 0.830773,-0.348797 0.830773,-0.799064 z m -0.03805,-0.780039 V 22.1894 H 40.5982 c -0.0761,-0.08244 -0.120494,-0.13952 -0.120494,-0.240988 0,-0.10781 0.05074,-0.158545 0.253672,-0.158545 h 0.906874 v -0.545393 h -0.976634 c -0.39319,0 -0.646861,0.145861 -0.646861,0.494659 0,0.215621 0.10781,0.367823 0.202936,0.475634 l -0.272696,-0.02537 h -0.513684 v 0.545393 z m 0.03805,-2.257676 c 0,-0.171228 -0.0761,-0.310747 -0.190253,-0.437583 v -0.01268 l 0.152202,-0.03805 v -0.443925 h -0.881507 c -0.520026,0 -0.741988,0.24733 -0.741988,0.659545 0,0.24733 0.0761,0.475634 0.209278,0.697596 l 0.348798,-0.190253 c -0.08879,-0.164886 -0.126835,-0.28538 -0.126835,-0.399532 0,-0.139519 0.05073,-0.209279 0.164886,-0.221963 0.06342,0.608811 0.247329,0.862483 0.577102,0.862483 0.260013,0 0.488317,-0.17757 0.488317,-0.475634 z m -0.418558,-0.190253 c 0,0.09513 -0.04122,0.145861 -0.114152,0.145861 -0.08879,0 -0.171228,-0.08244 -0.209278,-0.342457 h 0.21562 c 0.06342,0.05708 0.10781,0.107811 0.10781,0.196596 z m 0.418558,-1.686911 c 0,-0.164886 -0.03171,-0.291722 -0.06342,-0.374165 l -0.380507,0.08244 c 0.01268,0.03805 0.01903,0.08878 0.01903,0.13952 0,0.101468 -0.05708,0.190253 -0.231475,0.190253 h -0.542223 v -0.361482 h -0.424899 v 0.361482 h -0.475633 v 0.450266 l 0.475633,0.06342 0.01903,0.240988 h 0.405873 v -0.209279 h 0.551735 c 0.386849,0 0.646862,-0.171228 0.646862,-0.583444 z"
     id="text2"
     style="font-weight:900;font-size:3.17089px;line-height:1.25;font-family:'Source Sans Pro';-inkscape-font-specification:'Source Sans Pro Heavy';fill:#e4e7ea;stroke-width:0.0792725"
     aria-label="Neochat" />
  <path
     style="fill:#000000;stroke-width:0.3175"
     id="path12-3"
     d="" />
  <g
     id="g2"
     transform="matrix(2.515233,0,0,2.515233,-209.97282,-164.33967)">
    <path
       d="m 97.895833,71.966667 c 0,-0.292259 -0.236908,-0.529167 -0.529167,-0.529167 h -9.525 c -0.292258,0 -0.529166,0.236908 -0.529166,0.529167 v 6.879167 c 0,0.292258 0.236908,0.529166 0.529166,0.529166 h 4.65291 c 0.07017,0 0.137477,0.02789 0.187087,0.0775 l 2.116666,2.116666 C 94.965017,81.735851 95.25,81.617794 95.25,81.382076 v -1.742492 c 0,-0.14613 0.118453,-0.264584 0.264583,-0.264584 h 1.852083 c 0.292259,0 0.529167,-0.236908 0.529167,-0.529166 z"
       fill="url(#paint0_linear)"
       id="path1"
       style="fill:url(#paint0_linear);stroke-width:0.264583" />
    <path
       fill-rule="evenodd"
       clip-rule="evenodd"
       d="m 87.3125,78.58125 v 0.264584 c 0,0.292258 0.236908,0.529166 0.529166,0.529166 h 4.65291 c 0.07017,0 0.137477,0.02789 0.187087,0.0775 l 2.116666,2.116666 C 94.965017,81.735851 95.25,81.617794 95.25,81.382076 v -0.264583 c 0,0.235717 -0.284983,0.353774 -0.451671,0.187087 l -2.116666,-2.116667 c -0.04961,-0.04961 -0.11692,-0.0775 -0.187087,-0.0775 h -4.65291 c -0.292258,0 -0.529166,-0.236908 -0.529166,-0.529167 z m 7.9375,1.058334 c 0,-0.14613 0.118453,-0.264584 0.264583,-0.264584 h 1.852083 c 0.292259,0 0.529167,-0.236908 0.529167,-0.529166 V 78.58125 c 0,0.292259 -0.236908,0.529167 -0.529167,0.529167 h -1.852083 c -0.14613,0 -0.264583,0.118454 -0.264583,0.264583 z"
       fill="#000405"
       fill-opacity="0.1"
       id="path2"
       style="stroke-width:0.264583" />
    <path
       d="m 86.51875,71.4375 c 0,-0.292251 0.236915,-0.529166 0.529166,-0.529166 h 9.525 c 0.292259,0 0.529167,0.236915 0.529167,0.529166 v 6.879167 c 0,0.292259 -0.236908,0.529167 -0.529167,0.529167 h -4.652909 c -0.07017,0 -0.137478,0.02789 -0.187087,0.0775 l -2.116667,2.116667 c -0.166687,0.166687 -0.45167,0.04863 -0.45167,-0.187087 v -1.742493 c 0,-0.14613 -0.118454,-0.264583 -0.264583,-0.264583 h -1.852084 c -0.292251,0 -0.529166,-0.236908 -0.529166,-0.529167 z"
       fill="url(#paint1_linear)"
       id="path3"
       style="fill:url(#paint1_linear);stroke-width:0.264583" />
    <path
       fill-rule="evenodd"
       clip-rule="evenodd"
       d="m 86.51875,78.052084 v 0.264583 c 0,0.292259 0.236915,0.529167 0.529166,0.529167 H 88.9 c 0.146129,0 0.264583,0.118453 0.264583,0.264583 v -0.264583 c 0,-0.14613 -0.118454,-0.264584 -0.264583,-0.264584 h -1.852084 c -0.292251,0 -0.529166,-0.236908 -0.529166,-0.529166 z m 2.645833,2.536242 v 0.264584 c 0,0.235717 0.284983,0.353774 0.45167,0.187087 L 91.73292,78.92333 c 0.04961,-0.04961 0.116919,-0.0775 0.187087,-0.0775 h 4.652909 c 0.292259,0 0.529167,-0.236908 0.529167,-0.529167 V 78.05208 c 0,0.292258 -0.236908,0.529166 -0.529167,0.529166 h -4.652909 c -0.07017,0 -0.137478,0.02789 -0.187087,0.0775 l -2.116667,2.116666 c -0.166687,0.166688 -0.45167,0.04863 -0.45167,-0.187086 z"
       fill="#031c5a"
       fill-opacity="0.1"
       id="path4"
       style="stroke-width:0.264583" />
    <rect
       x="87.841667"
       y="72.495834"
       width="7.9375"
       height="1.0583333"
       rx="0.52916664"
       fill="url(#paint2_linear)"
       id="rect4"
       style="fill:url(#paint2_linear);stroke-width:0.264583" />
    <path
       style="color:#000000;fill:#004e6e;fill-opacity:0.1;stroke-width:0.264583;-inkscape-stroke:none"
       d="m 88.370833,72.23125 c -0.437449,0 -0.79375,0.356301 -0.79375,0.79375 0,0.437449 0.356301,0.79375 0.79375,0.79375 H 95.25 c 0.437448,0 0.79375,-0.356301 0.79375,-0.79375 0,-0.437449 -0.356302,-0.79375 -0.79375,-0.79375 z m 0,0.264584 H 95.25 c 0.295446,0 0.529166,0.23372 0.529166,0.529166 0,0.295446 -0.23372,0.529167 -0.529166,0.529167 h -6.879167 c -0.295446,0 -0.529167,-0.233721 -0.529167,-0.529167 0,-0.295446 0.233721,-0.529166 0.529167,-0.529166 z"
       id="rect5" />
    <rect
       x="87.841667"
       y="74.347916"
       width="6.614583"
       height="1.0583333"
       rx="0.52916664"
       fill="url(#paint3_linear)"
       id="rect6"
       style="fill:url(#paint3_linear);stroke-width:0.264583" />
    <path
       style="color:#000000;fill:#004e6e;fill-opacity:0.1;stroke-width:0.264583;-inkscape-stroke:none"
       d="m 88.370833,74.083334 c -0.437449,0 -0.79375,0.356301 -0.79375,0.79375 0,0.437448 0.356301,0.79375 0.79375,0.79375 h 5.55625 c 0.437449,0 0.79375,-0.356302 0.79375,-0.79375 0,-0.437449 -0.356301,-0.79375 -0.79375,-0.79375 z m 0,0.264583 h 5.55625 c 0.295446,0 0.529167,0.23372 0.529167,0.529167 0,0.295446 -0.233721,0.529166 -0.529167,0.529166 h -5.55625 c -0.295446,0 -0.529167,-0.23372 -0.529167,-0.529166 0,-0.295447 0.233721,-0.529167 0.529167,-0.529167 z"
       id="rect7" />
    <rect
       x="87.841667"
       y="76.199997"
       width="5.2916665"
       height="1.0583333"
       rx="0.52916664"
       fill="url(#paint4_linear)"
       id="rect8"
       style="fill:url(#paint4_linear);stroke-width:0.264583" />
    <path
       style="color:#000000;fill:#004e6e;fill-opacity:0.1;stroke-width:0.264583;-inkscape-stroke:none"
       d="m 88.370833,75.935417 c -0.437449,0 -0.79375,0.356301 -0.79375,0.79375 0,0.437449 0.356301,0.79375 0.79375,0.79375 h 4.233333 c 0.437449,0 0.79375,-0.356301 0.79375,-0.79375 0,-0.437449 -0.356301,-0.79375 -0.79375,-0.79375 z m 0,0.264583 h 4.233333 c 0.295446,0 0.529167,0.233721 0.529167,0.529167 0,0.295446 -0.233721,0.529167 -0.529167,0.529167 h -4.233333 c -0.295446,0 -0.529167,-0.233721 -0.529167,-0.529167 0,-0.295446 0.233721,-0.529167 0.529167,-0.529167 z"
       id="rect9" />
  </g>
</svg>
